<svg width="121" height="121" viewBox="0 0 121 121" fill="none" xmlns="http://www.w3.org/2000/svg">
<rect width="121" height="121" fill="#F5F5F5"/>
<g id="Desktop " clip-path="url(#clip0_56_4790)">
<rect width="1440" height="10397" transform="translate(-924 -4505)" fill="#262C42"/>
<g id="Frame 1377">
<g id="block3">
<g id="Frame 37">
<rect x="-558.5" y="-472.15" width="709" height="623" rx="18" fill="#0C322C"/>
<rect x="-558.5" y="-472.15" width="709" height="623" rx="18" stroke="#FE7C3F" stroke-width="4"/>
<g id="Frame 1375">
<g id="BCL 1">
<path id="Vector" d="M9.82001 98.5201H33.79" stroke="#C0EFDE" stroke-width="2" stroke-miterlimit="10"/>
<path id="Vector_2" d="M34.92 98.5201H52.43" stroke="#C0EFDE" stroke-width="2" stroke-miterlimit="10"/>
<path id="Vector_3" d="M53.35 98.5201H70.85" stroke="#C0EFDE" stroke-width="2" stroke-miterlimit="10"/>
<path id="Vector_4" d="M111.18 90.9001H9.82001V106.15H111.18V90.9001Z" stroke="#C0EFDE" stroke-width="2" stroke-miterlimit="10"/>
<path id="Vector_5" d="M96.78 100.64C97.9508 100.64 98.9 99.6909 98.9 98.5201C98.9 97.3492 97.9508 96.4001 96.78 96.4001C95.6092 96.4001 94.66 97.3492 94.66 98.5201C94.66 99.6909 95.6092 100.64 96.78 100.64Z" fill="#C0EFDE"/>
<path id="Vector_6" d="M103.61 100.64C104.781 100.64 105.73 99.6909 105.73 98.5201C105.73 97.3492 104.781 96.4001 103.61 96.4001C102.439 96.4001 101.49 97.3492 101.49 98.5201C101.49 99.6909 102.439 100.64 103.61 100.64Z" fill="#C0EFDE"/>
<path id="Vector_7" d="M74.34 44.7201H48.02V81.6801H74.34V44.7201Z" stroke="#30BA78" stroke-width="2" stroke-miterlimit="10"/>
<path id="Vector_8" d="M48.02 50.5801H74.34" stroke="#30BA78" stroke-width="2" stroke-miterlimit="10"/>
<path id="Vector_9" d="M50.58 57.1201H62.58" stroke="#30BA78" stroke-width="2" stroke-miterlimit="10"/>
<path id="Vector_10" d="M71.19 57.1201H65.68" stroke="#30BA78" stroke-width="2" stroke-miterlimit="10"/>
<path id="Vector_11" d="M50.58 61.9701H62.58" stroke="#30BA78" stroke-width="2" stroke-miterlimit="10"/>
<path id="Vector_12" d="M71.19 61.9701H65.68" stroke="#30BA78" stroke-width="2" stroke-miterlimit="10"/>
<path id="Vector_13" d="M50.58 66.8201H62.58" stroke="#30BA78" stroke-width="2" stroke-miterlimit="10"/>
<path id="Vector_14" d="M71.19 66.8201H65.68" stroke="#30BA78" stroke-width="2" stroke-miterlimit="10"/>
<path id="Vector_15" d="M50.58 71.6701H62.58" stroke="#30BA78" stroke-width="2" stroke-miterlimit="10"/>
<path id="Vector_16" d="M71.19 71.6701H65.68" stroke="#30BA78" stroke-width="2" stroke-miterlimit="10"/>
<path id="Vector_17" d="M50.58 76.5101H62.58" stroke="#30BA78" stroke-width="2" stroke-miterlimit="10"/>
<path id="Vector_18" d="M71.19 76.5101H65.68" stroke="#30BA78" stroke-width="2" stroke-miterlimit="10"/>
<path id="Vector_19" d="M78.02 29.8501H91.99" stroke="#30BA78" stroke-width="2" stroke-miterlimit="10"/>
<path id="Vector_20" d="M81.4 28.2201V31.4901" stroke="#30BA78" stroke-width="2" stroke-miterlimit="10"/>
<path id="Vector_21" d="M78.02 24.6301H91.99" stroke="#30BA78" stroke-width="2" stroke-miterlimit="10"/>
<path id="Vector_22" d="M84.17 22.9901V26.2601" stroke="#30BA78" stroke-width="2" stroke-miterlimit="10"/>
<path id="Vector_23" d="M78.02 19.4101H91.99" stroke="#30BA78" stroke-width="2" stroke-miterlimit="10"/>
<path id="Vector_24" d="M87.58 17.7701V21.0401" stroke="#30BA78" stroke-width="2" stroke-miterlimit="10"/>
<path id="Vector_25" d="M96.54 15.5601H73.46V33.7001H96.54V15.5601Z" stroke="#C0EFDE" stroke-width="2" stroke-miterlimit="10"/>
<g id="Layer_2">
<path id="Vector_26" d="M33.92 35.2101V33.8001L31.76 33.3301C31.63 32.8601 31.43 32.3901 31.15 31.9201L32.36 30.1001L30.27 28.0001L28.44 29.2101C27.96 28.9401 27.5 28.7401 27.02 28.6101L26.54 26.4501H23.63L23.15 28.6101C22.67 28.7401 22.13 28.9401 21.73 29.2101L19.9 28.0001L17.8 30.0901L19.04 31.9101C18.77 32.3801 18.56 32.8501 18.43 33.3201L16.27 33.7901V35.2001" stroke="#30BA78" stroke-width="2" stroke-miterlimit="10"/>
<path id="Vector_27" d="M16.27 35.2101V36.6201L18.43 37.0901C18.56 37.5601 18.76 38.0301 19.04 38.5001L17.83 40.3201L19.93 42.4101L21.76 41.2201C22.24 41.4901 22.7 41.6901 23.18 41.8201L23.66 43.9801H26.57L27.05 41.8201C27.53 41.6901 28.07 41.4901 28.47 41.2201L30.3 42.4301L32.4 40.3401L31.19 38.5201C31.46 38.0501 31.67 37.5801 31.8 37.1101L33.96 36.6401V35.2301" stroke="#30BA78" stroke-width="2" stroke-miterlimit="10"/>
<path id="Vector_28" d="M21.82 35.2101C21.82 33.3901 23.3 31.9101 25.13 31.9101C26.96 31.9101 28.44 33.3901 28.44 35.2101" stroke="#30BA78" stroke-width="2" stroke-miterlimit="10"/>
<path id="Vector_29" d="M28.45 35.2101C28.45 37.0301 26.97 38.5101 25.14 38.5101C23.31 38.5101 21.83 37.0301 21.83 35.2101" stroke="#30BA78" stroke-width="2" stroke-miterlimit="10"/>
</g>
<path id="Vector_30" d="M16.29 44.5201C13.69 42.3701 12.02 39.1201 12.02 35.4801C12.02 30.7101 14.87 26.6001 18.96 24.7801" stroke="#C0EFDE" stroke-width="2" stroke-miterlimit="10"/>
<path id="Vector_31" d="M16.79 42.0401L17.67 44.2601L18.54 46.4901L16.18 46.1301L13.82 45.7801L15.31 43.9101L16.79 42.0401Z" fill="#C0EFDE"/>
<path id="Vector_32" d="M34.28 26.3201C36.88 28.4701 38.55 31.7201 38.55 35.3601C38.55 40.1301 35.7 44.2401 31.61 46.0601" stroke="#C0EFDE" stroke-width="2" stroke-miterlimit="10"/>
<path id="Vector_33" d="M33.78 28.8001L32.91 26.5801L32.03 24.3601L34.39 24.7101L36.76 25.0601L35.27 26.9301L33.78 28.8001Z" fill="#C0EFDE"/>
<path id="Vector_34" d="M101.45 52.2801L93.53 55.8301V61.1101C93.53 63.5601 94.29 65.7901 95.8 67.8101C97.31 69.8301 99.2 71.1201 101.45 71.6701C103.71 71.1201 105.59 69.8301 107.1 67.8101C108.61 65.7901 109.37 63.5501 109.37 61.1101V55.8301L101.45 52.2801Z" stroke="#30BA78" stroke-width="2" stroke-miterlimit="10"/>
<path id="Vector_35" d="M76.89 63.2001H90.66" stroke="#C0EFDE" stroke-width="2" stroke-miterlimit="10"/>
<g id="shield">
<g id="shield-2">
<path id="Path_19" d="M97.1 61.2301L99.73 63.9101L105 58.5901" stroke="#FE7C3F" stroke-width="2"/>
</g>
</g>
<path id="Vector_36" d="M77.06 48.5601H85V36.4101" stroke="#C0EFDE" stroke-width="2" stroke-miterlimit="10"/>
<path id="Vector_37" d="M25.67 48.5601V58.9201H45.22" stroke="#C0EFDE" stroke-width="2" stroke-miterlimit="10"/>
<path id="Vector_38" d="M45.22 69.3001H44.22" stroke="#C0EFDE" stroke-width="2" stroke-miterlimit="10"/>
<path id="Vector_39" d="M42.95 69.3001H30.08" stroke="#C0EFDE" stroke-width="2" stroke-miterlimit="10"/>
<path id="Vector_40" d="M29.45 69.3001H28.45V70.3001" stroke="#C0EFDE" stroke-width="2" stroke-miterlimit="10"/>
<path id="Vector_41" d="M28.45 71.1901V73.1201" stroke="#C0EFDE" stroke-width="2" stroke-miterlimit="10"/>
<path id="Vector_42" d="M28.45 73.5701V74.5701" stroke="#C0EFDE" stroke-width="2" stroke-miterlimit="10"/>
<path id="Vector_43" d="M30.64 74.9101H26.25V79.3001H30.64V74.9101Z" stroke="#30BA78" stroke-width="2" stroke-miterlimit="10"/>
<path id="Vector_44" d="M57.65 41.9201V32.3301" stroke="#C0EFDE" stroke-width="2" stroke-miterlimit="10"/>
<path id="Vector_45" d="M77.06 77.2801H86.66" stroke="#C0EFDE" stroke-width="2" stroke-miterlimit="10"/>
<path id="Vector_46" d="M90.49 79.4701V75.0801H86.1V79.4701H90.49Z" stroke="#C0EFDE" stroke-width="2" stroke-miterlimit="10"/>
<path id="Vector_47" d="M59.84 28.5001H55.45V32.8901H59.84V28.5001Z" stroke="#FE7C3F" stroke-width="2" stroke-miterlimit="10"/>
</g>
</g>
</g>
</g>
</g>
</g>
<defs>
<clipPath id="clip0_56_4790">
<rect width="1440" height="10397" fill="white" transform="translate(-924 -4505)"/>
</clipPath>
</defs>
</svg>
