<svg width="373" height="373" viewBox="0 0 373 373" fill="none" xmlns="http://www.w3.org/2000/svg">
<path d="M370.5 3.1001H3V369.863H370.5V3.1001Z" fill="#90EBCD"/>
<mask id="mask0_56_5494" style="mask-type:luminance" maskUnits="userSpaceOnUse" x="3" y="3" width="368" height="368">
<path d="M370.5 3.1001H3V370.6H370.5V3.1001Z" fill="white"/>
</mask>
<g mask="url(#mask0_56_5494)">
<path d="M738 227.171C733.108 231.97 726.673 234.895 719.625 234.895C712.577 234.895 706.142 231.97 701.25 227.171C696.358 231.97 689.923 234.895 682.875 234.895C675.827 234.895 669.392 231.97 664.5 227.171C659.608 231.97 653.173 234.895 646.125 234.895C639.077 234.895 632.642 231.97 627.75 227.171C622.858 231.97 616.423 234.895 609.375 234.895C602.327 234.895 595.892 231.97 591 227.171C586.108 231.97 579.673 234.895 572.625 234.895C565.577 234.895 559.142 231.97 554.25 227.171C549.358 231.97 542.923 234.895 535.875 234.895C528.827 234.895 522.392 231.97 517.5 227.171C512.608 231.97 506.173 234.895 499.125 234.895C492.077 234.895 485.642 231.97 480.75 227.171C475.858 231.97 469.423 234.895 462.375 234.895C455.327 234.895 448.892 231.97 444 227.171C439.108 231.97 432.673 234.895 425.625 234.895C418.577 234.895 412.142 231.97 407.25 227.171C402.358 231.97 395.923 234.895 388.875 234.895C381.827 234.895 375.392 231.97 370.5 227.171C365.608 231.97 359.173 234.895 352.125 234.895C345.077 234.895 338.642 231.97 333.75 227.171C328.858 231.97 322.423 234.895 315.375 234.895C308.327 234.895 301.892 231.97 297 227.171C292.108 231.97 285.673 234.895 278.625 234.895C271.577 234.895 265.142 231.97 260.25 227.171C255.358 231.97 248.923 234.895 241.875 234.895C234.827 234.895 228.392 231.97 223.5 227.171C218.608 231.97 212.173 234.895 205.125 234.895C198.077 234.895 191.642 231.97 186.75 227.171C181.858 231.97 175.423 234.895 168.375 234.895C161.327 234.895 154.892 231.97 150 227.171C145.108 231.97 138.673 234.895 131.625 234.895C124.577 234.895 118.142 231.97 113.25 227.171C108.358 231.97 101.923 234.895 94.8749 234.895C87.8271 234.895 81.3917 231.97 76.4999 227.171C71.6081 231.97 65.1727 234.895 58.1249 234.895C51.0771 234.895 44.6417 231.97 39.7499 227.171C34.8581 231.97 28.4227 234.895 21.3749 234.895C14.3271 234.895 7.89173 231.97 2.99989 227.171V329.113H738V227.171Z" fill="#BFF1EA" stroke="#0C322C" stroke-width="4.59375" stroke-linejoin="round"/>
<path d="M738 267.922C733.108 272.722 726.673 275.647 719.625 275.647C712.577 275.647 706.142 272.722 701.25 267.922C696.358 272.722 689.923 275.647 682.875 275.647C675.827 275.647 669.392 272.722 664.5 267.922C659.608 272.722 653.173 275.647 646.125 275.647C639.077 275.647 632.642 272.722 627.75 267.922C622.858 272.722 616.423 275.647 609.375 275.647C602.327 275.647 595.892 272.722 591 267.922C586.108 272.722 579.673 275.647 572.625 275.647C565.577 275.647 559.142 272.722 554.25 267.922C549.358 272.722 542.923 275.647 535.875 275.647C528.827 275.647 522.392 272.722 517.5 267.922C512.608 272.722 506.173 275.647 499.125 275.647C492.077 275.647 485.642 272.722 480.75 267.922C475.858 272.722 469.423 275.647 462.375 275.647C455.327 275.647 448.892 272.722 444 267.922C439.108 272.722 432.673 275.647 425.625 275.647C418.577 275.647 412.142 272.722 407.25 267.922C402.358 272.722 395.923 275.647 388.875 275.647C381.827 275.647 375.392 272.722 370.5 267.922C365.608 272.722 359.173 275.647 352.125 275.647C345.077 275.647 338.642 272.722 333.75 267.922C328.858 272.722 322.423 275.647 315.375 275.647C308.327 275.647 301.892 272.722 297 267.922C292.108 272.722 285.673 275.647 278.625 275.647C271.577 275.647 265.142 272.722 260.25 267.922C255.358 272.722 248.923 275.647 241.875 275.647C234.827 275.647 228.392 272.722 223.5 267.922C218.608 272.722 212.173 275.647 205.125 275.647C198.077 275.647 191.642 272.722 186.75 267.922C181.858 272.722 175.423 275.647 168.375 275.647C161.327 275.647 154.892 272.722 150 267.922C145.108 272.722 138.673 275.647 131.625 275.647C124.577 275.647 118.142 272.722 113.25 267.922C108.358 272.722 101.923 275.647 94.8749 275.647C87.8271 275.647 81.3917 272.722 76.4999 267.922C71.6081 272.722 65.1727 275.647 58.1249 275.647C51.0771 275.647 44.6417 272.722 39.7499 267.922C34.8581 272.722 28.4227 275.647 21.3749 275.647C14.3271 275.647 7.89173 272.722 2.99989 267.922V369.864H738V267.922Z" fill="#2453FF" stroke="#0C322C" stroke-width="4.59375" stroke-linejoin="round"/>
<path d="M738 308.147C733.108 312.947 726.673 315.872 719.625 315.872C712.577 315.872 706.142 312.947 701.25 308.147C696.358 312.947 689.923 315.872 682.875 315.872C675.827 315.872 669.392 312.947 664.5 308.147C659.608 312.947 653.173 315.872 646.125 315.872C639.077 315.872 632.642 312.947 627.75 308.147C622.858 312.947 616.423 315.872 609.375 315.872C602.327 315.872 595.892 312.947 591 308.147C586.108 312.947 579.673 315.872 572.625 315.872C565.577 315.872 559.142 312.947 554.25 308.147C549.358 312.947 542.923 315.872 535.875 315.872C528.827 315.872 522.392 312.947 517.5 308.147C512.608 312.947 506.173 315.872 499.125 315.872C492.077 315.872 485.642 312.947 480.75 308.147C475.858 312.947 469.423 315.872 462.375 315.872C455.327 315.872 448.892 312.947 444 308.147C439.108 312.947 432.673 315.872 425.625 315.872C418.577 315.872 412.142 312.947 407.25 308.147C402.358 312.947 395.923 315.872 388.875 315.872C381.827 315.872 375.392 312.947 370.5 308.147C365.608 312.947 359.173 315.872 352.125 315.872C345.077 315.872 338.642 312.947 333.75 308.147C328.858 312.947 322.423 315.872 315.375 315.872C308.327 315.872 301.892 312.947 297 308.147C292.108 312.947 285.673 315.872 278.625 315.872C271.577 315.872 265.142 312.947 260.25 308.147C255.358 312.947 248.923 315.872 241.875 315.872C234.827 315.872 228.392 312.947 223.5 308.147C218.608 312.947 212.173 315.872 205.125 315.872C198.077 315.872 191.642 312.947 186.75 308.147C181.858 312.947 175.423 315.872 168.375 315.872C161.327 315.872 154.892 312.947 150 308.147C145.108 312.947 138.673 315.872 131.625 315.872C124.577 315.872 118.142 312.947 113.25 308.147C108.358 312.947 101.923 315.872 94.8749 315.872C87.8271 315.872 81.3917 312.947 76.4999 308.147C71.6081 312.947 65.1727 315.872 58.1249 315.872C51.0771 315.872 44.6417 312.947 39.7499 308.147C34.8581 312.947 28.4227 315.872 21.3749 315.872C14.3271 315.872 7.89173 312.947 2.99989 308.147V410.09H738V308.147Z" fill="#192072" stroke="#0C322C" stroke-width="4.59375" stroke-linejoin="round"/>
<path d="M297 -485.918L-217.5 84.5938H370.5V-485.918H297Z" fill="#BFF1EA" stroke="#0C322C" stroke-width="4.59375" stroke-linejoin="round"/>
</g>
<path d="M370.5 3.1001H3V369.863H370.5V3.1001Z" stroke="#0C322C" stroke-width="4.59375" stroke-linejoin="round"/>
<path d="M370.5 149.363H39.4641V170.035H370.5V149.363Z" fill="#999999" stroke="#0C322C" stroke-width="4.59375" stroke-linejoin="round"/>
<path d="M370.5 128.692H21.2976V149.364H370.5V128.692Z" fill="#BABABA" stroke="#0C322C" stroke-width="4.59375" stroke-linejoin="round"/>
<path d="M315.375 282.639C322.423 282.639 328.858 279.638 333.75 274.712C333.775 274.74 333.799 274.759 333.824 274.777V170.372H297.408V275.103C302.251 279.796 308.515 282.639 315.375 282.639Z" fill="#999999" stroke="#0C322C" stroke-width="4.59375" stroke-linejoin="round"/>
<path d="M241.875 282.639C248.923 282.639 255.359 279.638 260.25 274.712C260.332 274.796 260.422 274.88 260.512 274.963V170.372H224.097V275.289C228.915 279.87 235.105 282.639 241.875 282.639Z" fill="#999999" stroke="#0C322C" stroke-width="4.59375" stroke-linejoin="round"/>
<path d="M94.8752 282.639C101.923 282.639 108.358 279.638 113.25 274.712V170.372H76.8351V275.038C81.6861 279.768 87.9825 282.639 94.867 282.639H94.8752Z" fill="#999999" stroke="#0C322C" stroke-width="4.59375" stroke-linejoin="round"/>
<path d="M168.375 282.639C175.423 282.639 181.858 279.637 186.75 274.712C186.897 274.861 187.052 275 187.199 275.149V170.381H150.784V275.474C155.57 279.944 161.695 282.639 168.375 282.639Z" fill="#999999" stroke="#0C322C" stroke-width="4.59375" stroke-linejoin="round"/>
<path d="M260.491 65.5273H150.482V128.691H260.491V65.5273Z" fill="#30BA78" stroke="#0C322C" stroke-width="4.59375" stroke-linejoin="round"/>
<path d="M296.825 3.51165H186.816V65.5273H296.825V3.51165Z" fill="white" stroke="#0C322C" stroke-width="4.59375" stroke-linejoin="round"/>
<path d="M370.5 65.5273H260.491V128.691H370.5V65.5273Z" fill="#30BA78" stroke="#0C322C" stroke-width="4.59375" stroke-linejoin="round"/>
<path d="M150.482 65.5273H39.4641V128.691H150.482V65.5273Z" fill="#FE7C3F" stroke="#0C322C" stroke-width="4.59375" stroke-linejoin="round"/>
<path d="M58.1355 75.8636C63.4308 75.8636 67.7235 71.236 67.7235 65.5276C67.7235 59.8192 63.4308 55.1917 58.1355 55.1917C52.8403 55.1917 48.5476 59.8192 48.5476 65.5276C48.5476 71.236 52.8403 75.8636 58.1355 75.8636Z" fill="#30BA78" stroke="#0C322C" stroke-width="4.59375" stroke-linejoin="round"/>
<path d="M199.988 14.2787V54.647" stroke="#0C322C" stroke-width="4.59375" stroke-linejoin="round"/>
<path d="M210.458 14.2787V54.647" stroke="#0C322C" stroke-width="4.59375" stroke-linejoin="round"/>
<path d="M252.353 14.2787L231.405 54.647" stroke="#0C322C" stroke-width="4.59375" stroke-linejoin="round"/>
<path d="M273.292 14.2787V54.647" stroke="#0C322C" stroke-width="4.59375" stroke-linejoin="round"/>
<path d="M283.769 14.2787V54.647" stroke="#0C322C" stroke-width="4.59375" stroke-linejoin="round"/>
<path d="M228.727 25.253L220.65 34.4437L228.751 43.6622" stroke="#0C322C" stroke-width="4.59375" stroke-miterlimit="10"/>
<path d="M255.023 43.6622L263.1 34.4716L254.999 25.253" stroke="#0C322C" stroke-width="4.59375" stroke-miterlimit="10"/>
<path d="M273.726 77.0049V117.373" stroke="#0C322C" stroke-width="4.59375" stroke-linejoin="round"/>
<path d="M284.195 77.0049V117.373" stroke="#0C322C" stroke-width="4.59375" stroke-linejoin="round"/>
<path d="M326.09 77.0049L305.142 117.373" stroke="#0C322C" stroke-width="4.59375" stroke-linejoin="round"/>
<path d="M347.029 77.0049V117.373" stroke="#0C322C" stroke-width="4.59375" stroke-linejoin="round"/>
<path d="M357.508 77.0049V117.373" stroke="#0C322C" stroke-width="4.59375" stroke-linejoin="round"/>
<path d="M302.464 87.9807L294.396 97.1714L302.489 106.39" stroke="#0C322C" stroke-width="4.59375" stroke-miterlimit="10"/>
<path d="M328.76 106.39L336.837 97.1993L328.736 87.9807" stroke="#0C322C" stroke-width="4.59375" stroke-miterlimit="10"/>
<path d="M163.238 77.0049V117.373" stroke="#0C322C" stroke-width="4.59375" stroke-linejoin="round"/>
<path d="M173.708 77.0049V117.373" stroke="#0C322C" stroke-width="4.59375" stroke-linejoin="round"/>
<path d="M215.603 77.0049L194.655 117.373" stroke="#0C322C" stroke-width="4.59375" stroke-linejoin="round"/>
<path d="M236.542 77.0049V117.373" stroke="#0C322C" stroke-width="4.59375" stroke-linejoin="round"/>
<path d="M247.02 77.0049V117.373" stroke="#0C322C" stroke-width="4.59375" stroke-linejoin="round"/>
<path d="M191.976 87.9807L183.9 97.1714L192.001 106.39" stroke="#0C322C" stroke-width="4.59375" stroke-miterlimit="10"/>
<path d="M218.273 106.39L226.35 97.1993L218.249 87.9807" stroke="#0C322C" stroke-width="4.59375" stroke-miterlimit="10"/>
<path d="M53.1598 77.0049V117.373" stroke="#0C322C" stroke-width="4.59375" stroke-linejoin="round"/>
<path d="M63.6299 77.0049V117.373" stroke="#0C322C" stroke-width="4.59375" stroke-linejoin="round"/>
<path d="M105.516 77.0049L84.5687 117.373" stroke="#0C322C" stroke-width="4.59375" stroke-linejoin="round"/>
<path d="M126.464 77.0049V117.373" stroke="#0C322C" stroke-width="4.59375" stroke-linejoin="round"/>
<path d="M136.934 77.0049V117.373" stroke="#0C322C" stroke-width="4.59375" stroke-linejoin="round"/>
<path d="M81.8981 87.9807L73.8213 97.1714L81.9227 106.39" stroke="#0C322C" stroke-width="4.59375" stroke-miterlimit="10"/>
<path d="M108.195 106.39L116.272 97.1993L108.17 87.9807" stroke="#0C322C" stroke-width="4.59375" stroke-miterlimit="10"/>
</svg>
