<svg width="372" height="372" viewBox="0 0 372 372" fill="none" xmlns="http://www.w3.org/2000/svg">
<path d="M369.5 2.1001H2V369.6H369.5V2.1001Z" fill="#EAFAF4" stroke="#0C322C" stroke-width="4" stroke-miterlimit="10"/>
<path d="M143.64 157.578V219.352H159.081L174.521 157.578H143.64Z" fill="#2453FF" stroke="#0C322C" stroke-width="3" stroke-miterlimit="10"/>
<path d="M97.3202 149.824V145.569C97.3202 143.675 95.783 142.138 93.889 142.138H69.8712C67.9772 142.138 66.4401 143.675 66.4401 145.569V149.824H51V211.632C51 215.894 54.4586 219.352 58.72 219.352H159.08V149.824H97.3202Z" fill="#42D29F" stroke="#0C322C" stroke-width="3" stroke-miterlimit="10"/>
<path d="M97.3199 173.025L112.76 165.298L128.2 173.025V188.465L112.76 196.178L97.3199 188.465V173.025Z" stroke="#0C322C" stroke-width="3" stroke-miterlimit="10"/>
<path d="M97.32 173.024L112.76 180.744L128.2 173.024" stroke="#0C322C" stroke-width="3" stroke-miterlimit="10"/>
<path d="M97.32 188.465L112.76 180.745L128.2 188.465" stroke="#0C322C" stroke-width="3" stroke-miterlimit="10"/>
<path d="M112.76 184.609C114.894 184.609 116.624 182.879 116.624 180.745C116.624 178.611 114.894 176.882 112.76 176.882C110.626 176.882 108.897 178.611 108.897 180.745C108.897 182.879 110.626 184.609 112.76 184.609Z" fill="#EFEFEF" stroke="#0C322C" stroke-width="3" stroke-miterlimit="10"/>
<path d="M112.76 169.161C114.894 169.161 116.624 167.432 116.624 165.298C116.624 163.164 114.894 161.434 112.76 161.434C110.626 161.434 108.897 163.164 108.897 165.298C108.897 167.432 110.626 169.161 112.76 169.161Z" fill="#EFEFEF" stroke="#0C322C" stroke-width="3" stroke-miterlimit="10"/>
<path d="M112.76 200.041C114.894 200.041 116.624 198.312 116.624 196.178C116.624 194.044 114.894 192.314 112.76 192.314C110.626 192.314 108.897 194.044 108.897 196.178C108.897 198.312 110.626 200.041 112.76 200.041Z" fill="#EFEFEF" stroke="#0C322C" stroke-width="3" stroke-miterlimit="10"/>
<path d="M97.3202 176.888C99.4539 176.888 101.184 175.158 101.184 173.024C101.184 170.891 99.4539 169.161 97.3202 169.161C95.1864 169.161 93.4567 170.891 93.4567 173.024C93.4567 175.158 95.1864 176.888 97.3202 176.888Z" fill="#EFEFEF" stroke="#0C322C" stroke-width="3" stroke-miterlimit="10"/>
<path d="M128.201 192.328C130.334 192.328 132.064 190.598 132.064 188.465C132.064 186.331 130.334 184.601 128.201 184.601C126.067 184.601 124.337 186.331 124.337 188.465C124.337 190.598 126.067 192.328 128.201 192.328Z" fill="#EFEFEF" stroke="#0C322C" stroke-width="3" stroke-miterlimit="10"/>
<path d="M97.3202 192.328C99.4539 192.328 101.184 190.598 101.184 188.465C101.184 186.331 99.4539 184.601 97.3202 184.601C95.1864 184.601 93.4567 186.331 93.4567 188.465C93.4567 190.598 95.1864 192.328 97.3202 192.328Z" fill="#EFEFEF" stroke="#0C322C" stroke-width="3" stroke-miterlimit="10"/>
<path d="M128.201 176.888C130.334 176.888 132.064 175.158 132.064 173.024C132.064 170.891 130.334 169.161 128.201 169.161C126.067 169.161 124.337 170.891 124.337 173.024C124.337 175.158 126.067 176.888 128.201 176.888Z" fill="#EFEFEF" stroke="#0C322C" stroke-width="3" stroke-miterlimit="10"/>
<path d="M143.64 49.54V111.314H159.081L174.521 49.54H143.64Z" fill="#2453FF" stroke="#0C322C" stroke-width="3" stroke-miterlimit="10"/>
<path d="M97.3202 41.7858V37.5312C97.3202 35.6372 95.783 34.1001 93.889 34.1001H69.8712C67.9772 34.1001 66.4401 35.6372 66.4401 37.5312V41.7858H51V103.594C51 107.856 54.4586 111.314 58.72 111.314H159.08V41.7858H97.3202Z" fill="#FE7C3F" stroke="#0C322C" stroke-width="3" stroke-miterlimit="10"/>
<path d="M97.3199 64.9864L112.76 57.2595L128.2 64.9933V80.4264L112.76 88.1396L97.3199 80.4333V64.9864Z" stroke="#0C322C" stroke-width="3" stroke-miterlimit="10"/>
<path d="M97.32 64.9862L112.76 72.7062L128.2 64.9931" stroke="#0C322C" stroke-width="3" stroke-miterlimit="10"/>
<path d="M97.32 80.4337L112.76 72.7068L128.2 80.4268" stroke="#0C322C" stroke-width="3" stroke-miterlimit="10"/>
<path d="M112.76 76.5703C114.894 76.5703 116.624 74.8406 116.624 72.7068C116.624 70.5731 114.894 68.8434 112.76 68.8434C110.626 68.8434 108.897 70.5731 108.897 72.7068C108.897 74.8406 110.626 76.5703 112.76 76.5703Z" fill="#EFEFEF" stroke="#0C322C" stroke-width="3" stroke-miterlimit="10"/>
<path d="M112.76 61.1231C114.894 61.1231 116.624 59.3934 116.624 57.2597C116.624 55.126 114.894 53.3962 112.76 53.3962C110.626 53.3962 108.897 55.126 108.897 57.2597C108.897 59.3934 110.626 61.1231 112.76 61.1231Z" fill="#EFEFEF" stroke="#0C322C" stroke-width="3" stroke-miterlimit="10"/>
<path d="M112.76 92.003C114.894 92.003 116.624 90.2733 116.624 88.1396C116.624 86.0058 114.894 84.2761 112.76 84.2761C110.626 84.2761 108.897 86.0058 108.897 88.1396C108.897 90.2733 110.626 92.003 112.76 92.003Z" fill="#EFEFEF" stroke="#0C322C" stroke-width="3" stroke-miterlimit="10"/>
<path d="M97.3202 68.8497C99.4539 68.8497 101.184 67.12 101.184 64.9863C101.184 62.8525 99.4539 61.1228 97.3202 61.1228C95.1864 61.1228 93.4567 62.8525 93.4567 64.9863C93.4567 67.12 95.1864 68.8497 97.3202 68.8497Z" fill="#EFEFEF" stroke="#0C322C" stroke-width="3" stroke-miterlimit="10"/>
<path d="M128.201 84.2896C130.334 84.2896 132.064 82.5599 132.064 80.4262C132.064 78.2925 130.334 76.5627 128.201 76.5627C126.067 76.5627 124.337 78.2925 124.337 80.4262C124.337 82.5599 126.067 84.2896 128.201 84.2896Z" fill="#EFEFEF" stroke="#0C322C" stroke-width="3" stroke-miterlimit="10"/>
<path d="M97.3202 84.297C99.4539 84.297 101.184 82.5672 101.184 80.4335C101.184 78.2998 99.4539 76.5701 97.3202 76.5701C95.1864 76.5701 93.4567 78.2998 93.4567 80.4335C93.4567 82.5672 95.1864 84.297 97.3202 84.297Z" fill="#EFEFEF" stroke="#0C322C" stroke-width="3" stroke-miterlimit="10"/>
<path d="M128.201 68.8569C130.334 68.8569 132.064 67.1272 132.064 64.9935C132.064 62.8597 130.334 61.13 128.201 61.13C126.067 61.13 124.337 62.8597 124.337 64.9935C124.337 67.1272 126.067 68.8569 128.201 68.8569Z" fill="#EFEFEF" stroke="#0C322C" stroke-width="3" stroke-miterlimit="10"/>
<path d="M143.64 265.7V327.474H159.081L174.521 265.7H143.64Z" fill="#2453FF" stroke="#0C322C" stroke-width="3" stroke-miterlimit="10"/>
<path d="M97.3202 257.946V253.691C97.3202 251.797 95.783 250.26 93.889 250.26H69.8712C67.9772 250.26 66.4401 251.797 66.4401 253.691V257.946H51V319.754C51 324.016 54.4586 327.474 58.72 327.474H159.08V257.946H97.3202Z" fill="#FE7C3F" stroke="#0C322C" stroke-width="3" stroke-miterlimit="10"/>
<path d="M97.3199 281.147L112.76 273.42L128.2 281.154V296.587L112.76 304.3L97.3199 296.594V281.147Z" stroke="#0C322C" stroke-width="3" stroke-miterlimit="10"/>
<path d="M97.32 281.146L112.76 288.866L128.2 281.153" stroke="#0C322C" stroke-width="3" stroke-miterlimit="10"/>
<path d="M97.32 296.594L112.76 288.867L128.2 296.587" stroke="#0C322C" stroke-width="3" stroke-miterlimit="10"/>
<path d="M112.76 292.729C114.894 292.729 116.624 291 116.624 288.866C116.624 286.732 114.894 285.002 112.76 285.002C110.626 285.002 108.897 286.732 108.897 288.866C108.897 291 110.626 292.729 112.76 292.729Z" fill="#EFEFEF" stroke="#0C322C" stroke-width="3" stroke-miterlimit="10"/>
<path d="M112.76 277.283C114.894 277.283 116.624 275.554 116.624 273.42C116.624 271.286 114.894 269.557 112.76 269.557C110.626 269.557 108.897 271.286 108.897 273.42C108.897 275.554 110.626 277.283 112.76 277.283Z" fill="#EFEFEF" stroke="#0C322C" stroke-width="3" stroke-miterlimit="10"/>
<path d="M112.76 308.163C114.894 308.163 116.624 306.434 116.624 304.3C116.624 302.166 114.894 300.436 112.76 300.436C110.626 300.436 108.897 302.166 108.897 304.3C108.897 306.434 110.626 308.163 112.76 308.163Z" fill="#EFEFEF" stroke="#0C322C" stroke-width="3" stroke-miterlimit="10"/>
<path d="M97.3202 285.01C99.4539 285.01 101.184 283.28 101.184 281.147C101.184 279.013 99.4539 277.283 97.3202 277.283C95.1864 277.283 93.4567 279.013 93.4567 281.147C93.4567 283.28 95.1864 285.01 97.3202 285.01Z" fill="#EFEFEF" stroke="#0C322C" stroke-width="3" stroke-miterlimit="10"/>
<path d="M128.201 300.45C130.334 300.45 132.064 298.72 132.064 296.586C132.064 294.453 130.334 292.723 128.201 292.723C126.067 292.723 124.337 294.453 124.337 296.586C124.337 298.72 126.067 300.45 128.201 300.45Z" fill="#EFEFEF" stroke="#0C322C" stroke-width="3" stroke-miterlimit="10"/>
<path d="M97.3202 300.457C99.4539 300.457 101.184 298.728 101.184 296.594C101.184 294.46 99.4539 292.73 97.3202 292.73C95.1864 292.73 93.4567 294.46 93.4567 296.594C93.4567 298.728 95.1864 300.457 97.3202 300.457Z" fill="#EFEFEF" stroke="#0C322C" stroke-width="3" stroke-miterlimit="10"/>
<path d="M128.201 285.017C130.334 285.017 132.064 283.287 132.064 281.154C132.064 279.02 130.334 277.29 128.201 277.29C126.067 277.29 124.337 279.02 124.337 281.154C124.337 283.287 126.067 285.017 128.201 285.017Z" fill="#EFEFEF" stroke="#0C322C" stroke-width="3" stroke-miterlimit="10"/>
<path d="M289.12 157.578V219.352H304.56L320 157.578H289.12Z" fill="#2453FF" stroke="#0C322C" stroke-width="3" stroke-miterlimit="10"/>
<path d="M242.8 149.824V145.569C242.8 143.675 241.263 142.138 239.369 142.138H215.351C213.457 142.138 211.92 143.675 211.92 145.569V149.824H196.479V211.632C196.479 215.894 199.938 219.352 204.2 219.352H304.56V149.824H242.8Z" fill="#FE7C3F" stroke="#0C322C" stroke-width="3" stroke-miterlimit="10"/>
<path d="M242.799 173.025L258.239 165.298L273.679 173.025V188.465L258.239 196.178L242.799 188.465V173.025Z" stroke="#0C322C" stroke-width="3" stroke-miterlimit="10"/>
<path d="M242.8 173.024L258.24 180.744L273.68 173.024" stroke="#0C322C" stroke-width="3" stroke-miterlimit="10"/>
<path d="M242.8 188.465L258.24 180.745L273.68 188.465" stroke="#0C322C" stroke-width="3" stroke-miterlimit="10"/>
<path d="M258.24 184.609C260.373 184.609 262.103 182.879 262.103 180.745C262.103 178.611 260.373 176.882 258.24 176.882C256.106 176.882 254.376 178.611 254.376 180.745C254.376 182.879 256.106 184.609 258.24 184.609Z" fill="#EFEFEF" stroke="#0C322C" stroke-width="3" stroke-miterlimit="10"/>
<path d="M258.24 169.161C260.373 169.161 262.103 167.432 262.103 165.298C262.103 163.164 260.373 161.434 258.24 161.434C256.106 161.434 254.376 163.164 254.376 165.298C254.376 167.432 256.106 169.161 258.24 169.161Z" fill="#EFEFEF" stroke="#0C322C" stroke-width="3" stroke-miterlimit="10"/>
<path d="M258.24 200.041C260.373 200.041 262.103 198.312 262.103 196.178C262.103 194.044 260.373 192.314 258.24 192.314C256.106 192.314 254.376 194.044 254.376 196.178C254.376 198.312 256.106 200.041 258.24 200.041Z" fill="#EFEFEF" stroke="#0C322C" stroke-width="3" stroke-miterlimit="10"/>
<path d="M242.8 176.888C244.933 176.888 246.663 175.158 246.663 173.024C246.663 170.891 244.933 169.161 242.8 169.161C240.666 169.161 238.936 170.891 238.936 173.024C238.936 175.158 240.666 176.888 242.8 176.888Z" fill="#EFEFEF" stroke="#0C322C" stroke-width="3" stroke-miterlimit="10"/>
<path d="M273.68 192.328C275.814 192.328 277.544 190.598 277.544 188.465C277.544 186.331 275.814 184.601 273.68 184.601C271.546 184.601 269.817 186.331 269.817 188.465C269.817 190.598 271.546 192.328 273.68 192.328Z" fill="#EFEFEF" stroke="#0C322C" stroke-width="3" stroke-miterlimit="10"/>
<path d="M242.8 192.328C244.933 192.328 246.663 190.598 246.663 188.465C246.663 186.331 244.933 184.601 242.8 184.601C240.666 184.601 238.936 186.331 238.936 188.465C238.936 190.598 240.666 192.328 242.8 192.328Z" fill="#EFEFEF" stroke="#0C322C" stroke-width="3" stroke-miterlimit="10"/>
<path d="M273.68 176.888C275.814 176.888 277.544 175.158 277.544 173.024C277.544 170.891 275.814 169.161 273.68 169.161C271.546 169.161 269.817 170.891 269.817 173.024C269.817 175.158 271.546 176.888 273.68 176.888Z" fill="#EFEFEF" stroke="#0C322C" stroke-width="3" stroke-miterlimit="10"/>
<path d="M289.12 49.54V111.314H304.56L320 49.54H289.12Z" fill="#2453FF" stroke="#0C322C" stroke-width="3" stroke-miterlimit="10"/>
<path d="M242.8 41.7858V37.5312C242.8 35.6372 241.263 34.1001 239.369 34.1001H215.351C213.457 34.1001 211.92 35.6372 211.92 37.5312V41.7858H196.479V103.594C196.479 107.856 199.938 111.314 204.2 111.314H304.56V41.7858H242.8Z" fill="#42D29F" stroke="#0C322C" stroke-width="3" stroke-miterlimit="10"/>
<path d="M242.799 64.9864L258.239 57.2595L273.68 64.9933V80.4264L258.239 88.1396L242.799 80.4333V64.9864Z" stroke="#0C322C" stroke-width="3" stroke-miterlimit="10"/>
<path d="M242.8 64.9862L258.24 72.7062L273.68 64.9931" stroke="#0C322C" stroke-width="3" stroke-miterlimit="10"/>
<path d="M242.8 80.4337L258.24 72.7068L273.68 80.4268" stroke="#0C322C" stroke-width="3" stroke-miterlimit="10"/>
<path d="M258.24 76.5703C260.373 76.5703 262.103 74.8406 262.103 72.7068C262.103 70.5731 260.373 68.8434 258.24 68.8434C256.106 68.8434 254.376 70.5731 254.376 72.7068C254.376 74.8406 256.106 76.5703 258.24 76.5703Z" fill="#EFEFEF" stroke="#0C322C" stroke-width="3" stroke-miterlimit="10"/>
<path d="M258.24 61.1231C260.373 61.1231 262.103 59.3934 262.103 57.2597C262.103 55.126 260.373 53.3962 258.24 53.3962C256.106 53.3962 254.376 55.126 254.376 57.2597C254.376 59.3934 256.106 61.1231 258.24 61.1231Z" fill="#EFEFEF" stroke="#0C322C" stroke-width="3" stroke-miterlimit="10"/>
<path d="M258.24 92.003C260.373 92.003 262.103 90.2733 262.103 88.1396C262.103 86.0058 260.373 84.2761 258.24 84.2761C256.106 84.2761 254.376 86.0058 254.376 88.1396C254.376 90.2733 256.106 92.003 258.24 92.003Z" fill="#EFEFEF" stroke="#0C322C" stroke-width="3" stroke-miterlimit="10"/>
<path d="M242.8 68.8497C244.933 68.8497 246.663 67.12 246.663 64.9863C246.663 62.8525 244.933 61.1228 242.8 61.1228C240.666 61.1228 238.936 62.8525 238.936 64.9863C238.936 67.12 240.666 68.8497 242.8 68.8497Z" fill="#EFEFEF" stroke="#0C322C" stroke-width="3" stroke-miterlimit="10"/>
<path d="M273.68 84.2896C275.814 84.2896 277.544 82.5599 277.544 80.4262C277.544 78.2925 275.814 76.5627 273.68 76.5627C271.547 76.5627 269.817 78.2925 269.817 80.4262C269.817 82.5599 271.547 84.2896 273.68 84.2896Z" fill="#EFEFEF" stroke="#0C322C" stroke-width="3" stroke-miterlimit="10"/>
<path d="M242.8 84.297C244.933 84.297 246.663 82.5672 246.663 80.4335C246.663 78.2998 244.933 76.5701 242.8 76.5701C240.666 76.5701 238.936 78.2998 238.936 80.4335C238.936 82.5672 240.666 84.297 242.8 84.297Z" fill="#EFEFEF" stroke="#0C322C" stroke-width="3" stroke-miterlimit="10"/>
<path d="M273.68 68.8569C275.814 68.8569 277.544 67.1272 277.544 64.9935C277.544 62.8597 275.814 61.13 273.68 61.13C271.547 61.13 269.817 62.8597 269.817 64.9935C269.817 67.1272 271.547 68.8569 273.68 68.8569Z" fill="#EFEFEF" stroke="#0C322C" stroke-width="3" stroke-miterlimit="10"/>
<path d="M289.12 265.7V327.474H304.56L320 265.7H289.12Z" fill="#2453FF" stroke="#0C322C" stroke-width="3" stroke-miterlimit="10"/>
<path d="M242.8 257.946V253.691C242.8 251.797 241.263 250.26 239.369 250.26H215.351C213.457 250.26 211.92 251.797 211.92 253.691V257.946H196.479V319.754C196.479 324.016 199.938 327.474 204.2 327.474H304.56V257.946H242.8Z" fill="#42D29F" stroke="#0C322C" stroke-width="3" stroke-miterlimit="10"/>
<path d="M242.799 281.147L258.239 273.42L273.679 281.154V296.587L258.239 304.3L242.799 296.594V281.147Z" stroke="#0C322C" stroke-width="3" stroke-miterlimit="10"/>
<path d="M242.8 281.146L258.24 288.866L273.68 281.153" stroke="#0C322C" stroke-width="3" stroke-miterlimit="10"/>
<path d="M242.8 296.594L258.24 288.867L273.68 296.587" stroke="#0C322C" stroke-width="3" stroke-miterlimit="10"/>
<path d="M258.24 292.729C260.373 292.729 262.103 291 262.103 288.866C262.103 286.732 260.373 285.002 258.24 285.002C256.106 285.002 254.376 286.732 254.376 288.866C254.376 291 256.106 292.729 258.24 292.729Z" fill="#EFEFEF" stroke="#0C322C" stroke-width="3" stroke-miterlimit="10"/>
<path d="M258.24 277.283C260.373 277.283 262.103 275.554 262.103 273.42C262.103 271.286 260.373 269.557 258.24 269.557C256.106 269.557 254.376 271.286 254.376 273.42C254.376 275.554 256.106 277.283 258.24 277.283Z" fill="#EFEFEF" stroke="#0C322C" stroke-width="3" stroke-miterlimit="10"/>
<path d="M258.24 308.163C260.373 308.163 262.103 306.434 262.103 304.3C262.103 302.166 260.373 300.436 258.24 300.436C256.106 300.436 254.376 302.166 254.376 304.3C254.376 306.434 256.106 308.163 258.24 308.163Z" fill="#EFEFEF" stroke="#0C322C" stroke-width="3" stroke-miterlimit="10"/>
<path d="M242.8 285.01C244.933 285.01 246.663 283.28 246.663 281.147C246.663 279.013 244.933 277.283 242.8 277.283C240.666 277.283 238.936 279.013 238.936 281.147C238.936 283.28 240.666 285.01 242.8 285.01Z" fill="#EFEFEF" stroke="#0C322C" stroke-width="3" stroke-miterlimit="10"/>
<path d="M273.68 300.45C275.814 300.45 277.544 298.72 277.544 296.586C277.544 294.453 275.814 292.723 273.68 292.723C271.546 292.723 269.817 294.453 269.817 296.586C269.817 298.72 271.546 300.45 273.68 300.45Z" fill="#EFEFEF" stroke="#0C322C" stroke-width="3" stroke-miterlimit="10"/>
<path d="M242.8 300.457C244.933 300.457 246.663 298.728 246.663 296.594C246.663 294.46 244.933 292.73 242.8 292.73C240.666 292.73 238.936 294.46 238.936 296.594C238.936 298.728 240.666 300.457 242.8 300.457Z" fill="#EFEFEF" stroke="#0C322C" stroke-width="3" stroke-miterlimit="10"/>
<path d="M273.68 285.017C275.814 285.017 277.544 283.287 277.544 281.154C277.544 279.02 275.814 277.29 273.68 277.29C271.546 277.29 269.817 279.02 269.817 281.154C269.817 283.287 271.546 285.017 273.68 285.017Z" fill="#EFEFEF" stroke="#0C322C" stroke-width="3" stroke-miterlimit="10"/>
</svg>
