<svg width="372" height="372" viewBox="0 0 372 372" fill="none" xmlns="http://www.w3.org/2000/svg">
<path d="M369.5 2.1001H2V369.6H369.5V2.1001Z" fill="#C8DAFC" stroke="#0C322C" stroke-width="4" stroke-miterlimit="10"/>
<path d="M290.357 2.1001H264.143V27.5571H290.357V2.1001Z" fill="#2453FF" stroke="#0C322C" stroke-width="4" stroke-linejoin="round"/>
<path d="M316.571 2.1001H290.357V27.5571H316.571V2.1001Z" fill="white" stroke="#0C322C" stroke-width="4" stroke-linejoin="round"/>
<path d="M290.357 27.5449H264.143V40.6521C264.143 47.8872 270.015 53.7592 277.25 53.7592C284.485 53.7592 290.357 47.8872 290.357 40.6521V27.5449Z" fill="#0B41B7" stroke="#0C322C" stroke-width="4" stroke-linejoin="round"/>
<path d="M316.571 27.5449H290.357V40.6521C290.357 47.8872 296.229 53.7592 303.464 53.7592C310.699 53.7592 316.571 47.8872 316.571 40.6521V27.5449Z" fill="#EFEFEF" stroke="#0C322C" stroke-width="4" stroke-linejoin="round"/>
<path d="M342.786 2.1001H316.571V27.5571H342.786V2.1001Z" fill="#2453FF" stroke="#0C322C" stroke-width="4" stroke-linejoin="round"/>
<path d="M369 2.1001H342.786V27.5571H369V2.1001Z" fill="white" stroke="#0C322C" stroke-width="4" stroke-linejoin="round"/>
<path d="M342.786 27.5449H316.571V40.6521C316.571 47.8872 322.443 53.7592 329.679 53.7592C336.914 53.7592 342.786 47.8872 342.786 40.6521V27.5449Z" fill="#0B41B7" stroke="#0C322C" stroke-width="4" stroke-linejoin="round"/>
<path d="M369 27.5449H342.786V40.6521C342.786 47.8872 348.658 53.7592 355.893 53.7592C363.128 53.7592 369 47.8872 369 40.6521V27.5449Z" fill="#EFEFEF" stroke="#0C322C" stroke-width="4" stroke-linejoin="round"/>
<path d="M237.929 2.48462H211.714V27.9416H237.929V2.48462Z" fill="#2453FF" stroke="#0C322C" stroke-width="4" stroke-linejoin="round"/>
<path d="M264.143 2.48438H237.929V27.9414H264.143V2.48438Z" fill="white" stroke="#0C322C" stroke-width="4" stroke-linejoin="round"/>
<path d="M237.929 27.9292H211.714V41.0363C211.714 48.2715 217.586 54.1435 224.822 54.1435C232.057 54.1435 237.929 48.2715 237.929 41.0363V27.9292Z" fill="#0B41B7" stroke="#0C322C" stroke-width="4" stroke-linejoin="round"/>
<path d="M264.143 27.9292H237.929V41.0363C237.929 48.2715 243.801 54.1435 251.036 54.1435C258.271 54.1435 264.143 48.2715 264.143 41.0363V27.9292Z" fill="#EFEFEF" stroke="#0C322C" stroke-width="4" stroke-linejoin="round"/>
<path d="M185.5 2.48462H159.286V27.9416H185.5V2.48462Z" fill="#2453FF" stroke="#0C322C" stroke-width="4" stroke-linejoin="round"/>
<path d="M211.714 2.48438H185.5V27.9414H211.714V2.48438Z" fill="white" stroke="#0C322C" stroke-width="4" stroke-linejoin="round"/>
<path d="M185.5 27.9292H159.286V41.0363C159.286 48.2715 165.158 54.1435 172.393 54.1435C179.628 54.1435 185.5 48.2715 185.5 41.0363V27.9292Z" fill="#0B41B7" stroke="#0C322C" stroke-width="4" stroke-linejoin="round"/>
<path d="M211.714 27.9292H185.5V41.0363C185.5 48.2715 191.372 54.1435 198.607 54.1435C205.842 54.1435 211.714 48.2715 211.714 41.0363V27.9292Z" fill="#EFEFEF" stroke="#0C322C" stroke-width="4" stroke-linejoin="round"/>
<path d="M133.071 2.48462H106.857V27.9416H133.071V2.48462Z" fill="#2453FF" stroke="#0C322C" stroke-width="4" stroke-linejoin="round"/>
<path d="M159.286 2.48438H133.071V27.9414H159.286V2.48438Z" fill="white" stroke="#0C322C" stroke-width="4" stroke-linejoin="round"/>
<path d="M133.071 27.9292H106.857V41.0363C106.857 48.2715 112.729 54.1435 119.964 54.1435C127.199 54.1435 133.071 48.2715 133.071 41.0363V27.9292Z" fill="#0B41B7" stroke="#0C322C" stroke-width="4" stroke-linejoin="round"/>
<path d="M159.286 27.9292H133.071V41.0363C133.071 48.2715 138.943 54.1435 146.178 54.1435C153.414 54.1435 159.286 48.2715 159.286 41.0363V27.9292Z" fill="#EFEFEF" stroke="#0C322C" stroke-width="4" stroke-linejoin="round"/>
<path d="M80.643 2.48462H54.4287V27.9416H80.643V2.48462Z" fill="#2453FF" stroke="#0C322C" stroke-width="4" stroke-linejoin="round"/>
<path d="M106.857 2.48438H80.6431V27.9414H106.857V2.48438Z" fill="white" stroke="#0C322C" stroke-width="4" stroke-linejoin="round"/>
<path d="M80.643 27.9292H54.4287V41.0363C54.4287 48.2715 60.3007 54.1435 67.5359 54.1435C74.771 54.1435 80.643 48.2715 80.643 41.0363V27.9292Z" fill="#0B41B7" stroke="#0C322C" stroke-width="4" stroke-linejoin="round"/>
<path d="M106.857 27.9292H80.6431V41.0363C80.6431 48.2715 86.5151 54.1435 93.7502 54.1435C100.985 54.1435 106.857 48.2715 106.857 41.0363V27.9292Z" fill="#EFEFEF" stroke="#0C322C" stroke-width="4" stroke-linejoin="round"/>
<path d="M28.2143 2.48462H2V27.9416H28.2143V2.48462Z" fill="#2453FF" stroke="#0C322C" stroke-width="4" stroke-linejoin="round"/>
<path d="M54.4286 2.48438H28.2144V27.9414H54.4286V2.48438Z" fill="white" stroke="#0C322C" stroke-width="4" stroke-linejoin="round"/>
<path d="M28.2143 27.9292H2V41.0363C2 48.2715 7.872 54.1435 15.1071 54.1435C22.3423 54.1435 28.2143 48.2715 28.2143 41.0363V27.9292Z" fill="#0B41B7" stroke="#0C322C" stroke-width="4" stroke-linejoin="round"/>
<path d="M54.4286 27.9292H28.2144V41.0363C28.2144 48.2715 34.0864 54.1435 41.3215 54.1435C48.5566 54.1435 54.4286 48.2715 54.4286 41.0363V27.9292Z" fill="#EFEFEF" stroke="#0C322C" stroke-width="4" stroke-linejoin="round"/>
<path d="M85 100.35L66.85 89.1001H40V100.35V156.6H130V100.35H85Z" fill="#2453FF" stroke="#0C322C" stroke-width="4" stroke-miterlimit="10"/>
<path d="M130 111.6H40V156.6H130V111.6Z" fill="#0B41B7" stroke="#0C322C" stroke-width="4" stroke-miterlimit="10"/>
<path d="M85 186.6L66.85 175.35H40V186.6V242.85H130V186.6H85Z" fill="#2453FF" stroke="#0C322C" stroke-width="4" stroke-miterlimit="10"/>
<path d="M130 197.85H40V242.85H130V197.85Z" fill="#0B41B7" stroke="#0C322C" stroke-width="4" stroke-miterlimit="10"/>
<path d="M184.85 100.35L166.7 89.1001H139.85V100.35V156.6H229.85V100.35H184.85Z" fill="#2453FF" stroke="#0C322C" stroke-width="4" stroke-miterlimit="10"/>
<path d="M229.85 111.6H139.85V156.6H229.85V111.6Z" fill="#0B41B7" stroke="#0C322C" stroke-width="4" stroke-miterlimit="10"/>
<path d="M184.85 186.6L166.7 175.35H139.85V186.6V242.85H229.85V186.6H184.85Z" fill="#2453FF" stroke="#0C322C" stroke-width="4" stroke-miterlimit="10"/>
<path d="M229.85 197.85H139.85V242.85H229.85V197.85Z" fill="#0B41B7" stroke="#0C322C" stroke-width="4" stroke-miterlimit="10"/>
<path d="M284.85 100.35L266.7 89.1001H239.85V100.35V156.6H329.85V100.35H284.85Z" fill="#2453FF" stroke="#0C322C" stroke-width="4" stroke-miterlimit="10"/>
<path d="M329.85 111.6H239.85V156.6H329.85V111.6Z" fill="#0B41B7" stroke="#0C322C" stroke-width="4" stroke-miterlimit="10"/>
<path d="M284.85 186.6L266.7 175.35H239.85V186.6V242.85H329.85V186.6H284.85Z" fill="#2453FF" stroke="#0C322C" stroke-width="4" stroke-miterlimit="10"/>
<path d="M329.85 197.85H239.85V242.85H329.85V197.85Z" fill="#0B41B7" stroke="#0C322C" stroke-width="4" stroke-miterlimit="10"/>
<path d="M85 273.6L66.85 262.35H40V273.6V329.85H130V273.6H85Z" fill="#2453FF" stroke="#0C322C" stroke-width="4" stroke-miterlimit="10"/>
<path d="M130 284.85H40V329.85H130V284.85Z" fill="#0B41B7" stroke="#0C322C" stroke-width="4" stroke-miterlimit="10"/>
<path d="M184.85 273.6L166.7 262.35H139.85V273.6V329.85H229.85V273.6H184.85Z" fill="#2453FF" stroke="#0C322C" stroke-width="4" stroke-miterlimit="10"/>
<path d="M229.85 284.85H139.85V329.85H229.85V284.85Z" fill="#0B41B7" stroke="#0C322C" stroke-width="4" stroke-miterlimit="10"/>
<path d="M284.85 273.6L266.7 262.35H239.85V273.6V329.85H329.85V273.6H284.85Z" fill="#2453FF" stroke="#0C322C" stroke-width="4" stroke-miterlimit="10"/>
<path d="M329.85 284.85H239.85V329.85H329.85V284.85Z" fill="#0B41B7" stroke="#0C322C" stroke-width="4" stroke-miterlimit="10"/>
</svg>
