<svg width="121" height="121" viewBox="0 0 121 121" fill="none" xmlns="http://www.w3.org/2000/svg">
<g id="SLE Rea Time">
<path id="Vector" d="M9.82001 104.2H33.79" stroke="#C0EFDE" stroke-width="2" stroke-miterlimit="10"/>
<path id="Vector_2" d="M34.92 104.2H52.43" stroke="#C0EFDE" stroke-width="2" stroke-miterlimit="10"/>
<path id="Vector_3" d="M53.35 104.2H70.85" stroke="#C0EFDE" stroke-width="2" stroke-miterlimit="10"/>
<path id="Vector_4" d="M111.18 96.5801H9.82001V111.83H111.18V96.5801Z" stroke="#C0EFDE" stroke-width="2" stroke-miterlimit="10"/>
<path id="Vector_5" d="M96.78 106.32C97.9508 106.32 98.9 105.371 98.9 104.2C98.9 103.029 97.9508 102.08 96.78 102.08C95.6092 102.08 94.66 103.029 94.66 104.2C94.66 105.371 95.6092 106.32 96.78 106.32Z" fill="#C0EFDE"/>
<path id="Vector_6" d="M103.61 106.32C104.781 106.32 105.73 105.371 105.73 104.2C105.73 103.029 104.781 102.08 103.61 102.08C102.439 102.08 101.49 103.029 101.49 104.2C101.49 105.371 102.439 106.32 103.61 106.32Z" fill="#C0EFDE"/>
<path id="Vector_7" d="M21.31 81.7301H64.27" stroke="#C0EFDE" stroke-width="2" stroke-miterlimit="10"/>
<path id="Vector_8" d="M94 81.7301H101.91" stroke="#C0EFDE" stroke-width="2" stroke-miterlimit="10"/>
<path id="Vector_9" d="M106.01 74.1001H14.99V89.3501H106.01V74.1001Z" stroke="#C0EFDE" stroke-width="2" stroke-miterlimit="10"/>
<path id="Vector_10" d="M111.18 44.9101H9.82001V61.9401H111.18V44.9101Z" stroke="#30BA78" stroke-width="2" stroke-miterlimit="10"/>
<path id="Vector_11" d="M16.02 53.4201H74.93" stroke="#30BA78" stroke-width="2" stroke-miterlimit="10"/>
<path id="Vector_12" d="M85.66 53.4201H104.98" stroke="#FE7C3F" stroke-width="2" stroke-miterlimit="10"/>
<path id="Vector_13" d="M23.43 70.8301V64.2901" stroke="#30BA78" stroke-width="2" stroke-miterlimit="10"/>
<path id="Vector_14" d="M60.5 70.8301V64.2901" stroke="#C0EFDE" stroke-width="2" stroke-miterlimit="10"/>
<path id="Vector_15" d="M97.57 70.8301V64.2901" stroke="#FE7C3F" stroke-width="2" stroke-miterlimit="10"/>
<path id="Vector_16" d="M23.43 42.4401V35.9001" stroke="#30BA78" stroke-width="2" stroke-miterlimit="10"/>
<path id="Vector_17" d="M60.5 42.4401V35.9001" stroke="#C0EFDE" stroke-width="2" stroke-miterlimit="10"/>
<path id="Vector_18" d="M97.57 42.4401V35.9001" stroke="#FE7C3F" stroke-width="2" stroke-miterlimit="10"/>
<path id="Vector_19" d="M27.2 15.3401H32.67L27.2 9.87012V15.3401Z" stroke="#30BA78" stroke-width="2" stroke-linejoin="round"/>
<path id="Vector_20" d="M27.2 9.87012H14.19V32.7001H32.67V15.3401L27.2 9.87012Z" stroke="#30BA78" stroke-width="2" stroke-miterlimit="10"/>
<path id="Vector_21" d="M64.27 15.3401H69.74L64.27 9.87012V15.3401Z" stroke="#C0EFDE" stroke-width="2" stroke-linejoin="round"/>
<path id="Vector_22" d="M64.27 9.87012H51.26V32.7001H69.74V15.3401L64.27 9.87012Z" stroke="#C0EFDE" stroke-width="2" stroke-miterlimit="10"/>
<path id="Vector_23" d="M101.34 15.3401H106.81L101.34 9.87012V15.3401Z" stroke="#FE7C3F" stroke-width="2" stroke-linejoin="round"/>
<path id="Vector_24" d="M101.34 9.87012H88.33V32.7001H106.81V15.3401L101.34 9.87012Z" stroke="#FE7C3F" stroke-width="2" stroke-miterlimit="10"/>
</g>
</svg>
