<svg width="121" height="121" viewBox="0 0 121 121" fill="none" xmlns="http://www.w3.org/2000/svg">
<g id="SLES ARM">
<path id="Vector" d="M9.82001 96.9701H33.79" stroke="#C0EFDE" stroke-width="2" stroke-miterlimit="10"/>
<path id="Vector_2" d="M34.92 96.9701H52.43" stroke="#C0EFDE" stroke-width="2" stroke-miterlimit="10"/>
<path id="Vector_3" d="M53.35 96.9701H70.85" stroke="#C0EFDE" stroke-width="2" stroke-miterlimit="10"/>
<path id="Vector_4" d="M111.18 89.3501H9.82001V104.6H111.18V89.3501Z" stroke="#C0EFDE" stroke-width="2" stroke-miterlimit="10"/>
<path id="Vector_5" d="M96.78 99.0901C97.9508 99.0901 98.9 98.1409 98.9 96.9701C98.9 95.7993 97.9508 94.8501 96.78 94.8501C95.6092 94.8501 94.66 95.7993 94.66 96.9701C94.66 98.1409 95.6092 99.0901 96.78 99.0901Z" fill="#C0EFDE"/>
<path id="Vector_6" d="M103.61 99.0901C104.781 99.0901 105.73 98.1409 105.73 96.9701C105.73 95.7993 104.781 94.8501 103.61 94.8501C102.439 94.8501 101.49 95.7993 101.49 96.9701C101.49 98.1409 102.439 99.0901 103.61 99.0901Z" fill="#C0EFDE"/>
<path id="Vector_7" d="M105.1 60.5301H94.26V78.8801H105.1V60.5301Z" stroke="#2453FF" stroke-width="2" stroke-miterlimit="10"/>
<path id="Vector_8" d="M94.26 63.6601H105.1" stroke="#2453FF" stroke-width="2" stroke-miterlimit="10"/>
<path id="Vector_9" d="M94.26 75.0901H104.79" stroke="#2453FF" stroke-width="2" stroke-miterlimit="10"/>
<path id="Vector_10" d="M15.9 68.4501V77.7901H32.91V68.4501L24.41 61.6201L15.9 68.4501Z" stroke="#30BA78" stroke-width="2" stroke-miterlimit="10"/>
<path id="Vector_11" d="M71.41 73.6801H62.58H52.68V62.1501H71.41V73.6801Z" stroke="#C0EFDE" stroke-width="2" stroke-miterlimit="10"/>
<path id="Vector_12" d="M62.58 77.2601V73.6801" stroke="#C0EFDE" stroke-width="2" stroke-miterlimit="10"/>
<path id="Vector_13" d="M58.25 77.2601H66.91" stroke="#C0EFDE" stroke-width="2" stroke-miterlimit="10"/>
<path id="Vector_14" d="M39.41 44.2901V59.8201L35.22 64.5701" stroke="#2453FF" stroke-width="2" stroke-miterlimit="10"/>
<path id="Vector_15" d="M82.42 44.2901V59.8201L86.61 64.5701" stroke="#2453FF" stroke-width="2" stroke-miterlimit="10"/>
<path id="Vector_16" d="M47.46 36.2901V43.7301H29.67V35.3201C29.67 31.4501 32.81 28.3101 36.68 28.3101H38.08V24.1101C38.08 20.2401 41.22 17.1001 45.09 17.1001H77.32C81.19 17.1001 84.33 20.2401 84.33 24.1101V31.1201C88.2 31.1201 91.34 34.2601 91.34 38.1301V43.7401H60.93V57.9501" stroke="#2453FF" stroke-width="2" stroke-miterlimit="10"/>
<path id="Vector_17" d="M35.8 65.4901C37.0592 65.4901 38.08 64.4693 38.08 63.2101C38.08 61.9509 37.0592 60.9301 35.8 60.9301C34.5408 60.9301 33.52 61.9509 33.52 63.2101C33.52 64.4693 34.5408 65.4901 35.8 65.4901Z" fill="#2453FF"/>
<path id="Vector_18" d="M60.92 59.0801C62.1792 59.0801 63.2 58.0593 63.2 56.8001C63.2 55.5409 62.1792 54.5201 60.92 54.5201C59.6608 54.5201 58.64 55.5409 58.64 56.8001C58.64 58.0593 59.6608 59.0801 60.92 59.0801Z" fill="#2453FF"/>
<path id="Vector_19" d="M47.53 37.6201C48.7892 37.6201 49.81 36.5993 49.81 35.3401C49.81 34.0809 48.7892 33.0601 47.53 33.0601C46.2708 33.0601 45.25 34.0809 45.25 35.3401C45.25 36.5993 46.2708 37.6201 47.53 37.6201Z" fill="#2453FF"/>
<path id="Vector_20" d="M74.14 34.3801C75.3992 34.3801 76.42 33.3593 76.42 32.1001C76.42 30.8409 75.3992 29.8201 74.14 29.8201C72.8808 29.8201 71.86 30.8409 71.86 32.1001C71.86 33.3593 72.8808 34.3801 74.14 34.3801Z" fill="#2453FF"/>
<path id="Vector_21" d="M69.13 51.3201C70.3892 51.3201 71.41 50.2993 71.41 49.0401C71.41 47.7809 70.3892 46.7601 69.13 46.7601C67.8708 46.7601 66.85 47.7809 66.85 49.0401C66.85 50.2993 67.8708 51.3201 69.13 51.3201Z" fill="#2453FF"/>
<path id="Vector_22" d="M85.99 66.1301C87.2492 66.1301 88.27 65.1093 88.27 63.8501C88.27 62.5909 87.2492 61.5701 85.99 61.5701C84.7308 61.5701 83.71 62.5909 83.71 63.8501C83.71 65.1093 84.7308 66.1301 85.99 66.1301Z" fill="#2453FF"/>
<path id="Vector_23" d="M74.14 43.1701V33.0601" stroke="#2453FF" stroke-width="2" stroke-miterlimit="10"/>
<path id="Vector_24" d="M69.13 43.7301V48.3201" stroke="#2453FF" stroke-width="2" stroke-miterlimit="10"/>
</g>
</svg>
