<svg width="681" height="256" viewBox="0 0 681 256" fill="none" xmlns="http://www.w3.org/2000/svg">
<path d="M153.173 111.282C153.173 92.9423 139.063 83.7968 123.7 89.1017C125.32 64.1603 104.129 56.8431 89.9162 62.557C87.9775 45.714 75.1673 29.1328 49.6451 29.8485C25.215 30.5357 19.448 47.6282 18.405 49.6446V111.282H153.173Z" fill="white" stroke="#0C322C" stroke-width="1.63604" stroke-linejoin="round"/>
<path d="M380.873 205.325L329.98 184.245L380.873 205.325Z" fill="#EAFAF4" stroke="#0C322C" stroke-width="1.63604" stroke-linejoin="round"/>
<path d="M308.899 235.134L329.98 184.245L308.899 235.134Z" fill="#EAFAF4" stroke="#0C322C" stroke-width="1.63604" stroke-linejoin="round"/>
<path d="M291.038 223.187L329.98 184.245L291.038 223.187Z" fill="#EAFAF4" stroke="#0C322C" stroke-width="1.63604" stroke-linejoin="round"/>
<path d="M274.906 184.245H329.979H274.906Z" fill="#EAFAF4" stroke="#0C322C" stroke-width="1.63604" stroke-linejoin="round"/>
<path d="M368.921 223.187L329.98 184.245L368.921 223.187Z" fill="#EAFAF4" stroke="#0C322C" stroke-width="1.63604" stroke-linejoin="round"/>
<path d="M351.06 235.134L329.98 184.245L351.06 235.134Z" fill="#EAFAF4" stroke="#0C322C" stroke-width="1.63604" stroke-linejoin="round"/>
<path d="M279.086 205.325L329.979 184.245L279.086 205.325Z" fill="#EAFAF4" stroke="#0C322C" stroke-width="1.63604" stroke-linejoin="round"/>
<path d="M368.921 145.299L329.98 184.245L368.921 145.299Z" fill="#EAFAF4" stroke="#0C322C" stroke-width="1.63604" stroke-linejoin="round"/>
<path d="M291.038 145.299L329.98 184.245L291.038 145.299Z" fill="#EAFAF4" stroke="#0C322C" stroke-width="1.63604" stroke-linejoin="round"/>
<path d="M351.06 133.352L329.98 184.245L351.06 133.352Z" fill="#EAFAF4" stroke="#0C322C" stroke-width="1.63604" stroke-linejoin="round"/>
<path d="M329.98 129.168V184.245V129.168Z" fill="#EAFAF4" stroke="#0C322C" stroke-width="1.63604" stroke-linejoin="round"/>
<path d="M329.98 184.245H385.053H329.98Z" fill="#EAFAF4" stroke="#0C322C" stroke-width="1.63604" stroke-linejoin="round"/>
<path d="M279.086 163.165L329.979 184.245L279.086 163.165Z" fill="#EAFAF4" stroke="#0C322C" stroke-width="1.63604" stroke-linejoin="round"/>
<path d="M308.899 133.352L329.98 184.245L308.899 133.352Z" fill="#EAFAF4" stroke="#0C322C" stroke-width="1.63604" stroke-linejoin="round"/>
<path d="M329.98 239.318V184.245V239.318Z" fill="#EAFAF4" stroke="#0C322C" stroke-width="1.63604" stroke-linejoin="round"/>
<path d="M380.873 163.165L329.98 184.245L380.873 163.165Z" fill="#EAFAF4" stroke="#0C322C" stroke-width="1.63604" stroke-linejoin="round"/>
<path d="M386.513 37.6604L351.06 133.352L329.98 184.245L368.921 145.299L478.54 37.6604H386.513Z" fill="#C8DAFC"/>
<mask id="mask0_56_5036" style="mask-type:luminance" maskUnits="userSpaceOnUse" x="329" y="37" width="150" height="148">
<path d="M386.513 37.6604L351.06 133.352L329.98 184.245L368.921 145.299L478.54 37.6604H386.513Z" fill="white"/>
</mask>
<g mask="url(#mask0_56_5036)">
<path d="M465.219 92.8765C465.219 87.8416 461.558 83.6656 456.756 82.8557C454.76 74.8801 447.545 68.974 438.948 68.974C438.334 68.974 437.729 69.0067 437.132 69.0639C435.479 65.6896 432.011 63.3665 428.003 63.3665C424.698 63.3665 421.761 64.9452 419.904 67.387H419.896C414.379 67.387 409.606 70.5527 407.278 75.1623C406.17 74.7451 404.967 74.516 403.712 74.516C400.1 74.516 396.93 76.4016 395.131 79.236C393.953 78.917 392.718 78.7452 391.437 78.7452C383.633 78.7452 377.31 85.0685 377.31 92.8724H465.219V92.8765Z" fill="white" stroke="#0C322C" stroke-width="1.63604" stroke-linejoin="round"/>
</g>
<path d="M386.513 37.6604L351.06 133.352L329.98 184.245L368.921 145.299L478.54 37.6604H386.513Z" stroke="#0C322C" stroke-width="1.63604" stroke-linejoin="round"/>
<path d="M478.54 37.6604L368.921 145.299L329.98 184.245L380.873 163.165L533.756 103.298V37.6604H478.54Z" fill="#C8DAFC"/>
<mask id="mask1_56_5036" style="mask-type:luminance" maskUnits="userSpaceOnUse" x="329" y="37" width="205" height="148">
<path d="M478.54 37.6604L368.921 145.299L329.98 184.245L380.873 163.165L533.756 103.298V37.6604H478.54Z" fill="white"/>
</mask>
<g mask="url(#mask1_56_5036)">
<path d="M418.636 147.61C418.636 131.769 430.825 123.867 444.093 128.452C442.694 106.905 460.998 100.59 473.276 105.523C474.953 90.9745 486.013 76.651 508.062 77.2727C529.163 77.8658 534.01 92.5083 534.91 94.2466L535.049 147.209L418.641 147.61H418.636Z" fill="white" stroke="#0C322C" stroke-width="1.63604" stroke-linejoin="round"/>
<path d="M465.219 92.8765C465.219 87.8416 461.558 83.6656 456.756 82.8557C454.76 74.8801 447.545 68.974 438.948 68.974C438.334 68.974 437.729 69.0067 437.132 69.0639C435.479 65.6896 432.011 63.3665 428.003 63.3665C424.698 63.3665 421.761 64.9452 419.904 67.387H419.896C414.379 67.387 409.606 70.5527 407.278 75.1623C406.17 74.7451 404.967 74.516 403.712 74.516C400.1 74.516 396.93 76.4016 395.131 79.236C393.953 78.917 392.718 78.7452 391.437 78.7452C383.633 78.7452 377.31 85.0685 377.31 92.8724H465.219V92.8765Z" fill="white" stroke="#0C322C" stroke-width="1.63604" stroke-linejoin="round"/>
</g>
<path d="M478.54 37.6604L368.921 145.299L329.98 184.245L380.873 163.165L533.756 103.298V37.6604H478.54Z" stroke="#0C322C" stroke-width="1.63604" stroke-linejoin="round"/>
<path d="M380.873 163.165L331.297 184.904H607.378V74.4712L380.873 163.165Z" fill="#FE7C3F" stroke="#0C322C" stroke-width="1.63604" stroke-linejoin="round"/>
<path d="M331.297 184.904L380.873 205.325L460.134 240.12H662.594V184.904H331.297Z" fill="#C8DAFC" stroke="#0C322C" stroke-width="1.63604" stroke-linejoin="round"/>
<path d="M380.873 205.325L329.98 184.245L368.921 223.187L386.513 240.12H460.134L380.873 205.325Z" fill="#C8DAFC" stroke="#0C322C" stroke-width="1.63604" stroke-linejoin="round"/>
<path d="M368.921 223.187L329.98 184.245L351.06 235.134L354.111 240.12H386.513L368.921 223.187Z" fill="#C8DAFC" stroke="#0C322C" stroke-width="1.63604" stroke-linejoin="round"/>
<path d="M352.377 235.94L331.297 185.047V240.12H354.111L352.377 235.94Z" fill="#EAFAF4" stroke="#0C322C" stroke-width="1.63604" stroke-linejoin="round"/>
<path d="M308.899 235.134L306.834 240.12H331.297V184.245L308.899 235.134Z" fill="#EAFAF4" stroke="#0C322C" stroke-width="1.63604" stroke-linejoin="round"/>
<path d="M291.038 223.187L276.08 240.12H306.834L308.899 235.134L329.98 184.245L291.038 223.187Z" fill="#C8DAFC" stroke="#0C322C" stroke-width="1.63604" stroke-linejoin="round"/>
<path d="M279.086 205.325L195.08 240.12H276.08L291.038 223.187L329.98 184.245L279.086 205.325Z" fill="#C8DAFC" stroke="#0C322C" stroke-width="1.63604" stroke-linejoin="round"/>
<path d="M18.4047 184.904V240.12H195.08L279.087 205.325L331.297 184.904H18.4047Z" fill="#C8DAFC" stroke="#0C322C" stroke-width="1.63604" stroke-linejoin="round"/>
<path d="M279.087 163.165L18.4048 56.0659V184.904H274.907L329.98 184.245L279.087 163.165Z" fill="#FE7C3F"/>
<mask id="mask2_56_5036" style="mask-type:luminance" maskUnits="userSpaceOnUse" x="18" y="56" width="312" height="129">
<path d="M279.087 163.165L18.4048 56.0657V184.904H274.907L329.98 184.245L279.087 163.165Z" fill="white"/>
</mask>
<g mask="url(#mask2_56_5036)">
<path d="M45.8255 168.952L36.8109 166.498V113.642H45.8255V168.952Z" fill="#025937" stroke="#0C322C" stroke-width="1.63604" stroke-linejoin="round"/>
<path d="M57.4454 118.112C57.2981 118.112 57.155 118.117 57.0118 118.125C57.6662 116.816 58.0343 115.339 58.0343 113.777C58.0343 108.382 53.662 104.01 48.2672 104.01C47.9032 104.01 47.5433 104.03 47.1915 104.071C45.4369 101.47 42.4634 99.7561 39.089 99.7561C33.6942 99.7561 29.3219 104.128 29.3219 109.523C29.3219 109.593 29.3219 109.662 29.326 109.732C28.6757 109.597 28.0008 109.523 27.3096 109.523C22.1356 109.523 17.9024 113.548 17.567 118.64C13.7264 119.953 10.9615 123.593 10.9615 127.88C10.9615 133.152 15.1375 137.442 20.3605 137.639C21.3094 142.044 25.2195 145.344 29.9068 145.344C33.2729 145.344 36.2423 143.639 38.0011 141.046C39.768 142.804 42.2016 143.888 44.8888 143.888C49.2488 143.888 52.9381 141.033 54.1937 137.09C55.2122 137.45 56.3042 137.647 57.4454 137.647C62.8402 137.647 67.2125 133.274 67.2125 127.88C67.2125 122.485 62.8402 118.112 57.4454 118.112Z" fill="#30BA78" stroke="#0C322C" stroke-width="1.63604" stroke-linejoin="round"/>
<path d="M-53.6829 129.687C-53.5275 118.247 -45.5477 109.188 -35.073 107.425C-30.7171 90.1199 -14.9825 77.3016 3.76239 77.3016C5.09985 77.3016 6.41686 77.367 7.7216 77.4938C11.3291 70.1766 18.8875 65.1335 27.6363 65.1335C34.8471 65.1335 41.2481 68.561 45.2973 73.8618C45.3054 73.8618 45.3095 73.8618 45.3177 73.8618C57.3508 73.8618 67.7641 80.7291 72.8358 90.7334C75.2572 89.8295 77.8789 89.3346 80.6152 89.3346C88.4886 89.3346 95.4009 93.4247 99.3355 99.5803C101.904 98.8891 104.599 98.5169 107.389 98.5169C124.404 98.5169 138.2 112.239 138.044 129.687H-53.6829Z" fill="white"/>
<mask id="mask3_56_5036" style="mask-type:luminance" maskUnits="userSpaceOnUse" x="-54" y="65" width="193" height="65">
<path d="M-53.6827 129.687C-53.5273 118.247 -45.5476 109.188 -35.0728 107.425C-30.7169 90.1199 -14.9823 77.3016 3.76257 77.3016C5.10003 77.3016 6.41705 77.367 7.72179 77.4938C11.3292 70.1766 18.8877 65.1335 27.6364 65.1335C34.8473 65.1335 41.2483 68.561 45.2974 73.8618C45.3056 73.8618 45.3097 73.8618 45.3179 73.8618C57.3509 73.8618 67.7643 80.7291 72.836 90.7334C75.2574 89.8295 77.8791 89.3346 80.6154 89.3346C88.4888 89.3346 95.401 93.4247 99.3357 99.5803C101.904 98.8891 104.6 98.5169 107.389 98.5169C124.404 98.5169 138.2 112.239 138.044 129.687H-53.6827Z" fill="white"/>
</mask>
<g mask="url(#mask3_56_5036)">
<path d="M43.6049 113.032H34.5903V165.889H43.6049V113.032Z" fill="#025937" stroke="#0C322C" stroke-width="1.63604" stroke-linejoin="round"/>
<path d="M57.446 118.112C57.2987 118.112 57.1556 118.117 57.0124 118.125C57.6668 116.816 58.0349 115.339 58.0349 113.777C58.0349 108.382 53.6626 104.01 48.2678 104.01C47.9038 104.01 47.5439 104.03 47.1921 104.071C45.4375 101.47 42.464 99.7561 39.0896 99.7561C33.6948 99.7561 29.3225 104.128 29.3225 109.523C29.3225 109.593 29.3225 109.662 29.3266 109.732C28.6763 109.597 28.0014 109.523 27.3102 109.523C22.1362 109.523 17.903 113.548 17.5676 118.64C13.727 119.953 10.9621 123.593 10.9621 127.88C10.9621 133.152 15.1381 137.442 20.3611 137.639C21.31 142.044 25.2202 145.344 29.9074 145.344C33.2735 145.344 36.2429 143.639 38.0017 141.046C39.7686 142.804 42.2022 143.888 44.8894 143.888C49.2494 143.888 52.9387 141.033 54.1943 137.09C55.2128 137.45 56.3048 137.647 57.446 137.647C62.8408 137.647 67.2131 133.274 67.2131 127.88C67.2131 122.485 62.8408 118.112 57.446 118.112Z" fill="#83E1BE" stroke="#0C322C" stroke-width="1.63604" stroke-linejoin="round"/>
</g>
<path d="M-53.6829 129.687C-53.5275 118.247 -45.5477 109.188 -35.073 107.425C-30.7171 90.1199 -14.9825 77.3016 3.76239 77.3016C5.09985 77.3016 6.41686 77.367 7.7216 77.4938C11.3291 70.1766 18.8875 65.1335 27.6363 65.1335C34.8471 65.1335 41.2481 68.561 45.2973 73.8618C45.3054 73.8618 45.3095 73.8618 45.3177 73.8618C57.3508 73.8618 67.7641 80.7291 72.8358 90.7334C75.2572 89.8295 77.8789 89.3346 80.6152 89.3346C88.4886 89.3346 95.4009 93.4247 99.3355 99.5803C101.904 98.8891 104.599 98.5169 107.389 98.5169C124.404 98.5169 138.2 112.239 138.044 129.687H-53.6829Z" stroke="#0C322C" stroke-width="1.63604" stroke-linejoin="round"/>
</g>
<path d="M279.087 163.165L18.4048 56.0659V184.904H274.907L329.98 184.245L279.087 163.165Z" stroke="#0C322C" stroke-width="1.63604" stroke-linejoin="round"/>
<path d="M291.038 145.299L220.864 74.4712H165.648V115.806L279.087 163.165L329.98 184.245L291.038 145.299Z" fill="white" stroke="#0C322C" stroke-width="1.63604" stroke-linejoin="round"/>
<path d="M329.979 239.318C360.395 239.318 385.052 214.661 385.052 184.245C385.052 153.829 360.395 129.172 329.979 129.172C299.563 129.172 274.906 153.829 274.906 184.245C274.906 214.661 299.563 239.318 329.979 239.318Z" fill="#FE7C3F"/>
<mask id="mask4_56_5036" style="mask-type:luminance" maskUnits="userSpaceOnUse" x="274" y="129" width="112" height="111">
<path d="M329.979 239.318C360.395 239.318 385.052 214.661 385.052 184.245C385.052 153.829 360.395 129.172 329.979 129.172C299.563 129.172 274.906 153.829 274.906 184.245C274.906 214.661 299.563 239.318 329.979 239.318Z" fill="white"/>
</mask>
<g mask="url(#mask4_56_5036)">
<path d="M410.448 184.904H249.396L249.454 239.134H410.505L410.448 184.904Z" fill="#FF5A2B" stroke="#0C322C" stroke-width="1.63604" stroke-linejoin="round"/>
</g>
<path d="M329.979 239.318C360.395 239.318 385.052 214.661 385.052 184.245C385.052 153.829 360.395 129.172 329.979 129.172C299.563 129.172 274.906 153.829 274.906 184.245C274.906 214.661 299.563 239.318 329.979 239.318Z" stroke="#0C322C" stroke-width="1.63604" stroke-linejoin="round"/>
<path d="M156.445 129.688H138.04V239.319H156.445V129.688Z" fill="#83E1BE"/>
<mask id="mask5_56_5036" style="mask-type:luminance" maskUnits="userSpaceOnUse" x="138" y="129" width="19" height="111">
<path d="M156.444 129.688H138.039V239.319H156.444V129.688Z" fill="white"/>
</mask>
<g mask="url(#mask5_56_5036)">
<path d="M149.962 190.45C149.822 190.405 149.683 190.364 149.544 190.328C150.567 189.28 151.373 187.992 151.855 186.503C153.516 181.37 150.698 175.865 145.569 174.204C145.221 174.094 144.873 174.004 144.526 173.93C143.659 170.916 141.352 168.372 138.141 167.333C133.008 165.672 127.503 168.491 125.842 173.62C125.822 173.685 125.801 173.754 125.781 173.82C125.204 173.489 124.583 173.215 123.928 173.002C119.004 171.411 113.736 173.939 111.854 178.679C107.797 178.748 104.046 181.362 102.729 185.44C101.11 190.454 103.76 195.825 108.672 197.616C108.218 202.099 110.926 206.442 115.384 207.882C118.586 208.917 121.936 208.209 124.407 206.283C125.548 208.5 127.527 210.279 130.084 211.105C134.231 212.447 138.62 210.864 141.029 207.502C141.888 208.156 142.865 208.68 143.953 209.032C149.086 210.692 154.592 207.874 156.252 202.745C157.913 197.612 155.095 192.107 149.966 190.446L149.962 190.45Z" fill="#42D29F" stroke="#0C322C" stroke-width="1.63604" stroke-linejoin="round"/>
</g>
<path d="M156.445 129.688H138.04V239.319H156.445V129.688Z" stroke="#0C322C" stroke-width="1.63604" stroke-linejoin="round"/>
<path d="M165.648 129.688H156.446V239.319H165.648V129.688Z" fill="#30BA78" stroke="#0C322C" stroke-width="1.63604" stroke-linejoin="round"/>
<path d="M138.04 157.296H73.6213V184.904H138.04V157.296Z" fill="#83E1BE" stroke="#0C322C" stroke-width="1.63604" stroke-linejoin="round"/>
<path d="M607.378 56.0667H588.973V193.997H607.378V56.0667Z" fill="#30BA78"/>
<mask id="mask6_56_5036" style="mask-type:luminance" maskUnits="userSpaceOnUse" x="588" y="56" width="20" height="138">
<path d="M607.379 56.0664H588.974V193.997H607.379V56.0664Z" fill="white"/>
</mask>
<g mask="url(#mask6_56_5036)">
<path d="M592.921 138.92H583.906V194.079H592.921V138.92Z" fill="#025937" stroke="#0C322C" stroke-width="1.63604" stroke-linejoin="round"/>
<path d="M606.762 143.345C606.615 143.345 606.472 143.349 606.329 143.357C606.983 142.049 607.351 140.572 607.351 139.01C607.351 133.615 602.979 129.242 597.584 129.242C597.22 129.242 596.86 129.263 596.508 129.304C594.754 126.703 591.78 124.989 588.406 124.989C583.011 124.989 578.639 129.361 578.639 134.756C578.639 134.825 578.639 134.895 578.643 134.964C577.992 134.83 577.318 134.756 576.626 134.756C571.452 134.756 567.219 138.781 566.884 143.873C563.043 145.186 560.278 148.826 560.278 153.112C560.278 158.384 564.454 162.675 569.677 162.871C570.626 167.276 574.536 170.577 579.224 170.577C582.59 170.577 585.559 168.871 587.318 166.278C589.085 168.037 591.518 169.121 594.206 169.121C598.566 169.121 602.255 166.266 603.51 162.323C604.529 162.683 605.621 162.879 606.762 162.879C612.157 162.879 616.529 158.507 616.529 153.112C616.529 147.717 612.157 143.345 606.762 143.345Z" fill="#42D29F" stroke="#0C322C" stroke-width="1.63604" stroke-linejoin="round"/>
</g>
<path d="M607.378 56.0667H588.973V193.997H607.378V56.0667Z" stroke="#0C322C" stroke-width="1.63604" stroke-linejoin="round"/>
<path d="M644.189 92.8774H616.581V193.424H644.189V92.8774Z" fill="#83E1BE" stroke="#0C322C" stroke-width="1.63604" stroke-linejoin="round"/>
<path d="M616.581 92.8774H607.378V193.424H616.581V92.8774Z" fill="#90EBCD" stroke="#0C322C" stroke-width="1.63604" stroke-linejoin="round"/>
<path d="M588.973 19.2559H533.757V193.985H588.973V19.2559Z" fill="#FFEFE9"/>
<mask id="mask7_56_5036" style="mask-type:luminance" maskUnits="userSpaceOnUse" x="533" y="19" width="56" height="175">
<path d="M588.973 19.2561H533.756V193.985H588.973V19.2561Z" fill="white"/>
</mask>
<g mask="url(#mask7_56_5036)">
<path d="M495.203 19.0232L368.922 145.301L329.98 184.246L380.873 163.166L672.496 49.0526L730.416 18.377L495.203 19.0232Z" fill="#DCDBDC" stroke="#0C322C" stroke-width="1.63604" stroke-linejoin="round"/>
<path d="M561.516 121.398H548.898V195.376H561.516V121.398Z" fill="#008657" stroke="#0C322C" stroke-width="1.63604" stroke-linejoin="round"/>
<path d="M580.891 128.507C580.687 128.507 580.486 128.515 580.282 128.523C581.194 126.691 581.713 124.625 581.713 122.437C581.713 114.887 575.594 108.768 568.044 108.768C567.537 108.768 567.034 108.797 566.539 108.854C564.085 105.214 559.921 102.817 555.197 102.817C547.647 102.817 541.528 108.936 541.528 116.486C541.528 116.584 541.532 116.682 541.536 116.78C540.624 116.588 539.683 116.486 538.714 116.486C531.47 116.486 525.544 122.122 525.078 129.247C519.703 131.088 515.834 136.18 515.834 142.18C515.834 149.558 521.679 155.567 528.988 155.837C530.313 162 535.79 166.618 542.35 166.618C547.062 166.618 551.217 164.234 553.676 160.606C556.146 163.064 559.553 164.585 563.316 164.585C569.414 164.585 574.58 160.589 576.339 155.072C577.762 155.575 579.292 155.849 580.891 155.849C588.441 155.849 594.56 149.73 594.56 142.18C594.56 134.63 588.441 128.511 580.891 128.511V128.507Z" fill="#42D29F" stroke="#0C322C" stroke-width="1.63604" stroke-linejoin="round"/>
</g>
<path d="M588.973 19.2559H533.757V193.985H588.973V19.2559Z" stroke="#0C322C" stroke-width="1.63604" stroke-linejoin="round"/>
<path d="M533.756 74.4722H496.945V193.424H533.756V74.4722Z" fill="#FFB184"/>
<mask id="mask8_56_5036" style="mask-type:luminance" maskUnits="userSpaceOnUse" x="496" y="74" width="38" height="120">
<path d="M533.756 74.4722H496.945V193.424H533.756V74.4722Z" fill="white"/>
</mask>
<g mask="url(#mask8_56_5036)">
<path d="M476.38 37.5222L368.459 145.443L329.517 184.385L380.41 163.305L672.189 49.0399L684.075 37.5222H531.453H476.38Z" fill="#EFEFEF" stroke="#0C322C" stroke-width="1.63604" stroke-linejoin="round"/>
</g>
<path d="M533.756 74.4722H496.945V193.424H533.756V74.4722Z" stroke="#0C322C" stroke-width="1.63604" stroke-linejoin="round"/>
<path d="M588.973 28.4585H533.757V37.6612H588.973V28.4585Z" fill="#2453FF" stroke="#0C322C" stroke-width="1.63604" stroke-linejoin="round"/>
<path d="M588.973 56.0667H533.757V65.2694H588.973V56.0667Z" fill="#E6EDFE" stroke="#0C322C" stroke-width="1.63604" stroke-linejoin="round"/>
<path d="M588.973 83.6748H533.756V92.8775H588.973V83.6748Z" fill="#FFEFE9"/>
<mask id="mask9_56_5036" style="mask-type:luminance" maskUnits="userSpaceOnUse" x="533" y="83" width="56" height="10">
<path d="M588.973 83.6748H533.756V92.8775H588.973V83.6748Z" fill="white"/>
</mask>
<g mask="url(#mask9_56_5036)">
<path d="M495.203 19.0229L368.922 145.3L329.98 184.246L380.873 163.166L672.496 49.0524L730.416 18.3767L495.203 19.0229Z" fill="#E6EDFE" stroke="#0C322C" stroke-width="1.63604" stroke-linejoin="round"/>
</g>
<path d="M588.973 83.6748H533.756V92.8775H588.973V83.6748Z" stroke="#0C322C" stroke-width="1.63604" stroke-linejoin="round"/>
<path d="M588.973 111.283H533.757V120.486H588.973V111.283Z" fill="#FFEFE9"/>
<mask id="mask10_56_5036" style="mask-type:luminance" maskUnits="userSpaceOnUse" x="533" y="111" width="56" height="10">
<path d="M588.973 111.283H533.756V120.485H588.973V111.283Z" fill="white"/>
</mask>
<g mask="url(#mask10_56_5036)">
<path d="M580.89 128.506C580.686 128.506 580.486 128.514 580.281 128.522C581.193 126.69 581.713 124.624 581.713 122.436C581.713 114.886 575.594 108.767 568.043 108.767C567.536 108.767 567.033 108.796 566.538 108.853C564.084 105.213 559.921 102.816 555.197 102.816C547.646 102.816 541.527 108.935 541.527 116.485C541.527 116.583 541.532 116.681 541.536 116.779C540.624 116.587 539.683 116.485 538.713 116.485C531.47 116.485 525.543 122.121 525.077 129.246C519.703 131.087 515.833 136.179 515.833 142.179C515.833 149.557 521.678 155.566 528.987 155.836C530.312 162 535.789 166.617 542.35 166.617C547.061 166.617 551.217 164.233 553.675 160.605C556.145 163.063 559.552 164.584 563.315 164.584C569.414 164.584 574.579 160.588 576.338 155.071C577.762 155.574 579.291 155.848 580.89 155.848C588.441 155.848 594.56 149.729 594.56 142.179C594.56 134.629 588.441 128.51 580.89 128.51V128.506Z" fill="#90EBCD" stroke="#0C322C" stroke-width="1.63604" stroke-linejoin="round"/>
</g>
<path d="M588.973 111.283H533.757V120.486H588.973V111.283Z" stroke="#0C322C" stroke-width="1.63604" stroke-linejoin="round"/>
<path d="M588.973 138.891H533.757V148.094H588.973V138.891Z" fill="#FFEFE9"/>
<mask id="mask11_56_5036" style="mask-type:luminance" maskUnits="userSpaceOnUse" x="533" y="138" width="56" height="11">
<path d="M588.973 138.891H533.756V148.094H588.973V138.891Z" fill="white"/>
</mask>
<g mask="url(#mask11_56_5036)">
<path d="M561.516 121.398H548.898V195.375H561.516V121.398Z" fill="#30BA78" stroke="#0C322C" stroke-width="1.63604" stroke-linejoin="round"/>
<path d="M580.89 128.506C580.686 128.506 580.486 128.514 580.281 128.523C581.193 126.69 581.713 124.625 581.713 122.437C581.713 114.886 575.594 108.767 568.043 108.767C567.536 108.767 567.033 108.796 566.538 108.853C564.084 105.213 559.921 102.816 555.197 102.816C547.646 102.816 541.527 108.935 541.527 116.485C541.527 116.584 541.532 116.682 541.536 116.78C540.624 116.588 539.683 116.485 538.713 116.485C531.47 116.485 525.543 122.122 525.077 129.247C519.703 131.087 515.833 136.179 515.833 142.179C515.833 149.558 521.678 155.566 528.987 155.836C530.312 162 535.789 166.618 542.35 166.618C547.061 166.618 551.217 164.233 553.675 160.605C556.145 163.063 559.552 164.585 563.315 164.585C569.414 164.585 574.579 160.589 576.338 155.071C577.762 155.574 579.291 155.849 580.89 155.849C588.441 155.849 594.56 149.73 594.56 142.179C594.56 134.629 588.441 128.51 580.89 128.51V128.506Z" fill="#90EBCD" stroke="#0C322C" stroke-width="1.63604" stroke-linejoin="round"/>
</g>
<path d="M588.973 138.891H533.757V148.094H588.973V138.891Z" stroke="#0C322C" stroke-width="1.63604" stroke-linejoin="round"/>
<path d="M588.973 166.499H533.757V175.702H588.973V166.499Z" fill="#FFEFE9"/>
<mask id="mask12_56_5036" style="mask-type:luminance" maskUnits="userSpaceOnUse" x="533" y="166" width="56" height="10">
<path d="M588.973 166.499H533.757V175.702H588.973V166.499Z" fill="white"/>
</mask>
<g mask="url(#mask12_56_5036)">
<path d="M561.516 121.398H548.898V195.375H561.516V121.398Z" fill="#30BA78" stroke="#0C322C" stroke-width="1.63604" stroke-linejoin="round"/>
<path d="M580.891 128.506C580.686 128.506 580.486 128.514 580.281 128.523C581.193 126.69 581.713 124.625 581.713 122.437C581.713 114.886 575.594 108.767 568.044 108.767C567.536 108.767 567.033 108.796 566.538 108.853C564.084 105.213 559.921 102.816 555.197 102.816C547.646 102.816 541.527 108.935 541.527 116.485C541.527 116.584 541.532 116.682 541.536 116.78C540.624 116.588 539.683 116.485 538.713 116.485C531.47 116.485 525.543 122.122 525.077 129.247C519.703 131.087 515.834 136.179 515.834 142.179C515.834 149.558 521.678 155.566 528.987 155.836C530.312 162 535.789 166.618 542.35 166.618C547.061 166.618 551.217 164.233 553.675 160.605C556.145 163.063 559.553 164.585 563.315 164.585C569.414 164.585 574.579 160.589 576.338 155.071C577.762 155.574 579.291 155.849 580.891 155.849C588.441 155.849 594.56 149.73 594.56 142.179C594.56 134.629 588.441 128.51 580.891 128.51V128.506Z" fill="#90EBCD" stroke="#0C322C" stroke-width="1.63604" stroke-linejoin="round"/>
</g>
<path d="M588.973 166.499H533.757V175.702H588.973V166.499Z" stroke="#0C322C" stroke-width="1.63604" stroke-linejoin="round"/>
<path d="M149.963 190.45C149.824 190.405 149.685 190.365 149.546 190.328C150.569 189.281 151.374 187.992 151.857 186.504C153.518 181.37 150.7 175.865 145.571 174.205C145.223 174.094 144.875 174.004 144.528 173.931C143.661 170.916 141.354 168.372 138.143 167.333C133.01 165.673 127.505 168.491 125.844 173.62C125.824 173.685 125.803 173.755 125.783 173.82C125.206 173.489 124.584 173.215 123.93 173.002C119.006 171.411 113.737 173.939 111.856 178.679C107.799 178.749 104.048 181.362 102.731 185.44C101.111 190.455 103.762 195.825 108.674 197.616C108.22 202.099 110.928 206.443 115.386 207.882C118.588 208.917 121.938 208.21 124.409 206.283C125.55 208.5 127.529 210.279 130.086 211.105C134.233 212.447 138.622 210.864 141.031 207.502C141.89 208.156 142.867 208.68 143.955 209.032C149.088 210.692 154.593 207.874 156.254 202.745C157.915 197.612 155.096 192.107 149.967 190.446L149.963 190.45Z" fill="#30BA78" stroke="#0C322C" stroke-width="1.63604" stroke-linejoin="round"/>
<path d="M220.865 74.4719H165.649V239.319H220.865V74.4719Z" fill="#FFEFE9"/>
<mask id="mask13_56_5036" style="mask-type:luminance" maskUnits="userSpaceOnUse" x="165" y="74" width="56" height="166">
<path d="M220.865 74.4719H165.649V239.319H220.865V74.4719Z" fill="white"/>
</mask>
<g mask="url(#mask13_56_5036)">
<path d="M221.831 118.539H211.663V188.897H221.831V118.539Z" fill="#008657" stroke="#0C322C" stroke-width="1.63604" stroke-linejoin="round"/>
<path d="M240.257 125.3C240.064 125.3 239.872 125.308 239.68 125.316C240.547 123.574 241.042 121.606 241.042 119.529C241.042 112.346 235.222 106.526 228.039 106.526C227.557 106.526 227.078 106.555 226.608 106.608C224.272 103.144 220.313 100.865 215.822 100.865C208.64 100.865 202.82 106.686 202.82 113.868C202.82 113.962 202.824 114.052 202.828 114.146C201.961 113.966 201.065 113.868 200.145 113.868C193.253 113.868 187.621 119.23 187.175 126.007C182.063 127.758 178.386 132.6 178.386 138.306C178.386 145.321 183.944 151.039 190.897 151.296C192.157 157.157 197.368 161.55 203.605 161.55C208.088 161.55 212.039 159.28 214.379 155.828C216.73 158.168 219.97 159.611 223.549 159.611C229.352 159.611 234.265 155.812 235.937 150.564C237.291 151.043 238.747 151.304 240.265 151.304C247.447 151.304 253.267 145.484 253.267 138.302C253.267 131.12 247.447 125.3 240.265 125.3H240.257Z" fill="#42D29F" stroke="#0C322C" stroke-width="1.63604" stroke-linejoin="round"/>
<path d="M291.039 145.301L219.647 73.9285H164.758V115.807L279.088 163.166L329.981 184.246L291.039 145.301Z" fill="#EFEFEF"/>
<mask id="mask14_56_5036" style="mask-type:luminance" maskUnits="userSpaceOnUse" x="164" y="73" width="166" height="112">
<path d="M291.04 145.3L219.648 73.9282H164.759V115.807L279.089 163.166L329.982 184.246L291.04 145.3Z" fill="white"/>
</mask>
<g mask="url(#mask14_56_5036)">
<path d="M240.257 125.3C240.065 125.3 239.873 125.308 239.68 125.316C240.547 123.574 241.042 121.607 241.042 119.529C241.042 112.347 235.222 106.526 228.04 106.526C227.557 106.526 227.079 106.555 226.608 106.608C224.273 103.144 220.314 100.866 215.823 100.866C208.641 100.866 202.82 106.686 202.82 113.868C202.82 113.962 202.825 114.052 202.829 114.146C201.961 113.966 201.066 113.868 200.146 113.868C193.254 113.868 187.622 119.23 187.176 126.008C182.063 127.758 178.386 132.601 178.386 138.306C178.386 145.321 183.945 151.039 190.898 151.297C192.158 157.158 197.368 161.55 203.606 161.55C208.088 161.55 212.039 159.28 214.379 155.828C216.731 158.168 219.97 159.612 223.549 159.612C229.353 159.612 234.265 155.812 235.938 150.564C237.292 151.043 238.748 151.305 240.265 151.305C247.447 151.305 253.268 145.485 253.268 138.302C253.268 131.12 247.447 125.3 240.265 125.3H240.257Z" fill="#90EBCD" stroke="#0C322C" stroke-width="1.63604" stroke-linejoin="round"/>
</g>
<path d="M291.039 145.301L219.647 73.9285H164.758V115.807L279.088 163.166L329.981 184.246L291.039 145.301Z" stroke="#0C322C" stroke-width="1.63604" stroke-linejoin="round"/>
<path d="M184.055 73.928V239.319" stroke="#0C322C" stroke-width="1.63604" stroke-linejoin="round"/>
<path d="M202.46 73.928V239.319" stroke="#0C322C" stroke-width="1.63604" stroke-linejoin="round"/>
</g>
<path d="M220.865 74.4719H165.649V239.319H220.865V74.4719Z" stroke="#0C322C" stroke-width="1.63604" stroke-linejoin="round"/>
<path d="M219.834 184.904H18.4055V239.319H274.907C274.907 208.901 250.248 184.246 219.834 184.904Z" fill="#90EBCD" stroke="#0C322C" stroke-width="1.63604" stroke-linejoin="round"/>
<path d="M220.865 184.904H164.757V239.135H220.865V184.904Z" fill="#EAFAF4" stroke="#0C322C" stroke-width="1.63604" stroke-linejoin="round"/>
<path d="M165.649 184.904H138.041V239.135H165.649V184.904Z" fill="#83E1BE" stroke="#0C322C" stroke-width="1.63604" stroke-linejoin="round"/>
<path d="M421.905 230.918H109.684V240.121H421.905V230.918Z" fill="#3C8EEF" stroke="#0C322C" stroke-width="1.63604" stroke-linejoin="round"/>
<path d="M653.658 196.946C653.519 196.901 653.38 196.86 653.241 196.823C654.263 195.776 655.069 194.487 655.552 192.999C657.212 187.866 654.394 182.36 649.265 180.7C648.918 180.589 648.57 180.499 648.222 180.426C647.355 177.411 645.048 174.867 641.838 173.828C636.705 172.168 631.199 174.986 629.539 180.115C629.518 180.18 629.498 180.25 629.477 180.315C628.901 179.984 628.279 179.71 627.625 179.497C622.7 177.906 617.432 180.434 615.551 185.174C611.493 185.244 607.743 187.857 606.426 191.935C604.806 196.95 607.456 202.32 612.368 204.111C611.914 208.594 614.622 212.938 619.08 214.378C622.283 215.412 625.633 214.705 628.103 212.778C629.244 214.995 631.224 216.774 633.78 217.601C637.927 218.942 642.316 217.359 644.725 213.997C645.584 214.652 646.562 215.175 647.65 215.527C652.783 217.187 658.288 214.369 659.949 209.24C661.609 204.107 658.791 198.602 653.662 196.942L653.658 196.946Z" fill="#30BA78" stroke="#0C322C" stroke-width="1.63604" stroke-linejoin="round"/>
<path d="M312.843 175.701H347.719V194.107H294.487V194.058C294.487 183.927 302.712 175.701 312.843 175.701Z" fill="#EFEFEF"/>
<mask id="mask15_56_5036" style="mask-type:luminance" maskUnits="userSpaceOnUse" x="294" y="175" width="54" height="20">
<path d="M312.843 175.701H347.719V194.107H294.487V194.058C294.487 183.927 302.712 175.701 312.843 175.701Z" fill="white"/>
</mask>
<g mask="url(#mask15_56_5036)">
<path d="M343.249 180.139H294.916V184.577H343.249V180.139Z" fill="#2453FF" stroke="#0C322C" stroke-width="1.63604" stroke-linejoin="round"/>
</g>
<path d="M312.843 175.701H347.719V194.107H294.487V194.058C294.487 183.927 302.712 175.701 312.843 175.701Z" stroke="#0C322C" stroke-width="1.63604" stroke-linejoin="round"/>
<path d="M405.258 175.701H352.026V194.107H405.258V175.701Z" fill="#EFEFEF"/>
<mask id="mask16_56_5036" style="mask-type:luminance" maskUnits="userSpaceOnUse" x="352" y="175" width="54" height="20">
<path d="M405.259 175.701H352.026V194.106H405.259V175.701Z" fill="white"/>
</mask>
<g mask="url(#mask16_56_5036)">
<path d="M507.42 180.139H356.59V184.577H507.42V180.139Z" fill="#2453FF" stroke="#0C322C" stroke-width="1.63604" stroke-linejoin="round"/>
</g>
<path d="M405.258 175.701H352.026V194.107H405.258V175.701Z" stroke="#0C322C" stroke-width="1.63604" stroke-linejoin="round"/>
<path d="M460.135 175.701H404.919V194H460.135V175.701Z" fill="#EFEFEF"/>
<mask id="mask17_56_5036" style="mask-type:luminance" maskUnits="userSpaceOnUse" x="404" y="175" width="57" height="20">
<path d="M460.135 175.701H404.919V194H460.135V175.701Z" fill="white"/>
</mask>
<g mask="url(#mask17_56_5036)">
<path d="M507.42 180.139H356.59V184.577H507.42V180.139Z" fill="#2453FF" stroke="#0C322C" stroke-width="1.63604" stroke-linejoin="round"/>
</g>
<path d="M460.135 175.701H404.919V194H460.135V175.701Z" stroke="#0C322C" stroke-width="1.63604" stroke-linejoin="round"/>
<path d="M511.727 175.701H460.135V193.984H511.727V175.701Z" fill="#EFEFEF"/>
<mask id="mask18_56_5036" style="mask-type:luminance" maskUnits="userSpaceOnUse" x="460" y="175" width="52" height="19">
<path d="M511.728 175.701H460.136V193.984H511.728V175.701Z" fill="white"/>
</mask>
<g mask="url(#mask18_56_5036)">
<path d="M507.42 180.139H356.59V184.577H507.42V180.139Z" fill="#2453FF" stroke="#0C322C" stroke-width="1.63604" stroke-linejoin="round"/>
</g>
<path d="M511.727 175.701H460.135V193.984H511.727V175.701Z" stroke="#0C322C" stroke-width="1.63604" stroke-linejoin="round"/>
<path d="M352.026 177.358H347.719V194.107H352.026V177.358Z" fill="#DCDBDC" stroke="#0C322C" stroke-width="1.63604" stroke-linejoin="round"/>
<path d="M458.487 193.997L18.4055 194.606L18.5241 199.375L458.487 198.86V193.997Z" fill="#BABABA" stroke="#0C322C" stroke-width="1.63604" stroke-linejoin="round"/>
<path d="M18.4056 198.86V203.31H129.861C134.38 203.31 138.041 206.97 138.041 211.49V240.165H147.243V211.49C147.243 206.97 150.904 203.31 155.424 203.31H185.077C189.596 203.31 193.257 206.97 193.257 211.49V240.165H202.46V211.49C202.46 206.97 206.12 203.31 210.64 203.31H240.293C244.813 203.31 248.473 206.97 248.473 211.49V240.165H257.676V211.49C257.676 206.97 261.337 203.31 265.856 203.31H295.509C300.029 203.31 303.689 206.97 303.689 211.49V240.165H312.892V211.49C312.892 206.97 316.553 203.31 321.072 203.31H350.725C355.245 203.31 358.906 206.97 358.906 211.49V240.12H368.108V211.502C368.108 206.978 371.777 203.314 376.301 203.322L458.487 203.449V198.86H18.4056Z" fill="#999999" stroke="#0C322C" stroke-width="1.63604" stroke-linejoin="round"/>
<path d="M18.5237 166.499H36.8801C77.4088 166.499 110.314 199.404 110.314 239.933V240.121H18.5237V166.499Z" fill="#83E1BE"/>
<mask id="mask19_56_5036" style="mask-type:luminance" maskUnits="userSpaceOnUse" x="18" y="166" width="93" height="75">
<path d="M18.523 166.5H36.8793C77.408 166.5 110.313 199.405 110.313 239.933V240.121H18.523V166.5Z" fill="white"/>
</mask>
<g mask="url(#mask19_56_5036)">
<path d="M110.314 212.395H18.5238V239.933H110.314V212.395Z" fill="#30BA78" stroke="#0C322C" stroke-width="1.63604" stroke-linejoin="round"/>
<path d="M110.154 203.216H18.3644V212.394H110.154V203.216Z" fill="#90EBCD" stroke="#0C322C" stroke-width="1.63604" stroke-linejoin="round"/>
<path d="M110.154 184.856H18.3644V194.034H110.154V184.856Z" fill="#30BA78" stroke="#0C322C" stroke-width="1.63604" stroke-linejoin="round"/>
</g>
<path d="M18.5237 166.499H36.8801C77.4088 166.499 110.314 199.404 110.314 239.933V240.121H18.5237V166.499Z" stroke="#0C322C" stroke-width="1.63604" stroke-linejoin="round"/>
<path d="M489.899 186.602C490.038 186.639 490.177 186.68 490.316 186.721C490.013 185.289 490.03 183.767 490.422 182.254C491.78 177.035 497.114 173.902 502.333 175.26C502.684 175.35 503.028 175.465 503.359 175.587C505.711 173.51 509.024 172.606 512.288 173.452C517.507 174.81 520.64 180.144 519.282 185.363C519.265 185.432 519.241 185.498 519.225 185.563C519.887 185.596 520.558 185.694 521.229 185.87C526.239 187.175 529.319 192.136 528.362 197.146C531.748 199.388 533.507 203.604 532.427 207.752C531.098 212.852 525.977 215.956 520.873 214.828C518.848 218.852 514.231 221.061 509.695 219.879C506.435 219.032 503.993 216.635 502.946 213.682C500.795 214.938 498.165 215.376 495.563 214.701C491.347 213.605 488.492 209.911 488.271 205.78C487.195 205.87 486.087 205.789 484.982 205.498C479.763 204.14 476.63 198.807 477.988 193.588C479.346 188.369 484.68 185.236 489.899 186.594V186.602Z" fill="#30BA78" stroke="#0C322C" stroke-width="1.63604" stroke-linejoin="round"/>
<path d="M515.401 129.688C535.663 129.688 552.117 146.139 552.117 166.405V193.984H515.401V129.688Z" fill="#DCDBDC" stroke="#0C322C" stroke-width="1.63604" stroke-linejoin="round"/>
<path d="M660.423 193.997H451.043C425.57 193.997 404.919 214.647 404.919 240.121H660.423V193.997Z" fill="#83E1BE"/>
<mask id="mask20_56_5036" style="mask-type:luminance" maskUnits="userSpaceOnUse" x="404" y="193" width="257" height="48">
<path d="M660.423 193.997H451.043C425.57 193.997 404.919 214.647 404.919 240.121H660.423V193.997Z" fill="white"/>
</mask>
<g mask="url(#mask20_56_5036)">
<path d="M454.785 220.337C454.953 220.357 455.125 220.378 455.288 220.406C454.695 218.795 454.45 217.028 454.65 215.204C455.337 208.913 460.994 204.369 467.284 205.056C467.71 205.101 468.123 205.175 468.532 205.265C470.908 202.455 474.598 200.835 478.532 201.265C484.823 201.952 489.367 207.608 488.68 213.899C488.672 213.981 488.659 214.062 488.647 214.144C489.424 214.067 490.218 214.067 491.027 214.157C497.064 214.815 501.49 220.05 501.232 226.03C505.543 228.051 508.304 232.648 507.756 237.646C507.085 243.793 501.67 248.268 495.551 247.83C493.886 252.845 488.901 256.199 483.436 255.601C479.51 255.172 476.262 252.808 474.544 249.56C472.262 251.385 469.285 252.342 466.147 251.998C461.063 251.442 457.125 247.642 456.159 242.885C454.928 243.176 453.628 243.266 452.294 243.118C446.004 242.431 441.46 236.775 442.147 230.484C442.834 224.194 448.491 219.65 454.781 220.337H454.785Z" fill="#30BA78" stroke="#0C322C" stroke-width="1.63604" stroke-linejoin="round"/>
</g>
<path d="M660.423 193.997H451.043C425.57 193.997 404.919 214.647 404.919 240.121H660.423V193.997Z" stroke="#0C322C" stroke-width="1.63604" stroke-linejoin="round"/>
<path d="M552.162 194.001H515.351V240.125H552.162V194.001Z" fill="#90EBCD" stroke="#0C322C" stroke-width="1.63604" stroke-linejoin="round"/>
<path d="M515.351 193.996H496.946V240.12H515.351V193.996Z" fill="#90EBCD"/>
<mask id="mask21_56_5036" style="mask-type:luminance" maskUnits="userSpaceOnUse" x="496" y="193" width="20" height="48">
<path d="M515.35 193.996H496.945V240.12H515.35V193.996Z" fill="white"/>
</mask>
<g mask="url(#mask21_56_5036)">
<path d="M454.785 220.336C454.952 220.357 455.124 220.377 455.288 220.406C454.695 218.794 454.449 217.028 454.65 215.203C455.337 208.913 460.993 204.369 467.284 205.056C467.709 205.101 468.122 205.174 468.531 205.264C470.908 202.455 474.597 200.835 478.532 201.264C484.822 201.951 489.366 207.608 488.679 213.899C488.671 213.98 488.659 214.062 488.646 214.144C489.423 214.066 490.217 214.066 491.027 214.156C497.064 214.815 501.489 220.05 501.232 226.03C505.543 228.05 508.303 232.648 507.755 237.646C507.085 243.793 501.669 248.268 495.55 247.83C493.886 252.844 488.9 256.198 483.436 255.601C479.509 255.172 476.262 252.808 474.544 249.56C472.261 251.384 469.284 252.341 466.147 251.998C461.063 251.442 457.124 247.642 456.159 242.885C454.928 243.175 453.627 243.265 452.294 243.118C446.003 242.431 441.459 236.774 442.146 230.484C442.833 224.193 448.49 219.649 454.78 220.336H454.785Z" fill="#83E1BE" stroke="#0C322C" stroke-width="1.63604" stroke-linejoin="round"/>
</g>
<path d="M515.351 193.996H496.946V240.12H515.351V193.996Z" stroke="#0C322C" stroke-width="1.63604" stroke-linejoin="round"/>
<path d="M588.973 193.984H552.162V240.121H588.973V193.984Z" fill="#EAFAF4"/>
<mask id="mask22_56_5036" style="mask-type:luminance" maskUnits="userSpaceOnUse" x="552" y="193" width="37" height="48">
<path d="M588.973 193.984H552.162V240.121H588.973V193.984Z" fill="white"/>
</mask>
<g mask="url(#mask22_56_5036)">
<path d="M623.706 223.682C623.559 223.682 623.416 223.686 623.273 223.695C623.927 222.386 624.295 220.909 624.295 219.347C624.295 213.952 619.923 209.58 614.528 209.58C614.164 209.58 613.804 209.6 613.453 209.641C611.698 207.04 608.724 205.326 605.35 205.326C599.955 205.326 595.583 209.698 595.583 215.093C595.583 215.163 595.583 215.232 595.587 215.302C594.937 215.167 594.262 215.093 593.571 215.093C588.397 215.093 584.163 219.118 583.828 224.21C579.987 225.523 577.223 229.163 577.223 233.449C577.223 238.722 581.399 243.012 586.622 243.208C587.57 247.613 591.481 250.914 596.168 250.914C599.534 250.914 602.503 249.209 604.262 246.615C606.029 248.374 608.463 249.458 611.15 249.458C615.51 249.458 619.199 246.603 620.455 242.66C621.473 243.02 622.565 243.217 623.706 243.217C629.101 243.217 633.474 238.844 633.474 233.449C633.474 228.055 629.101 223.682 623.706 223.682Z" fill="#90EBCD" stroke="#0C322C" stroke-width="1.63604" stroke-linejoin="round"/>
</g>
<path d="M588.973 193.984H552.162V240.121H588.973V193.984Z" stroke="#0C322C" stroke-width="1.63604" stroke-linejoin="round"/>
<path d="M662.595 193.984H588.973V240.12H662.595V193.984Z" fill="#90EBCD"/>
<mask id="mask23_56_5036" style="mask-type:luminance" maskUnits="userSpaceOnUse" x="588" y="193" width="75" height="48">
<path d="M662.596 193.984H588.974V240.12H662.596V193.984Z" fill="white"/>
</mask>
<g mask="url(#mask23_56_5036)">
<path d="M623.707 223.682C623.56 223.682 623.416 223.686 623.273 223.695C623.928 222.386 624.296 220.909 624.296 219.347C624.296 213.952 619.923 209.58 614.529 209.58C614.165 209.58 613.805 209.6 613.453 209.641C611.698 207.04 608.725 205.326 605.351 205.326C599.956 205.326 595.583 209.698 595.583 215.093C595.583 215.163 595.583 215.232 595.587 215.302C594.937 215.167 594.262 215.093 593.571 215.093C588.397 215.093 584.164 219.118 583.828 224.21C579.988 225.523 577.223 229.163 577.223 233.449C577.223 238.722 581.399 243.012 586.622 243.208C587.571 247.613 591.481 250.914 596.168 250.914C599.534 250.914 602.504 249.209 604.263 246.615C606.029 248.374 608.463 249.458 611.15 249.458C615.51 249.458 619.2 246.603 620.455 242.66C621.474 243.02 622.566 243.217 623.707 243.217C629.102 243.217 633.474 238.844 633.474 233.449C633.474 228.055 629.102 223.682 623.707 223.682Z" fill="#30BA78" stroke="#0C322C" stroke-width="1.63604" stroke-linejoin="round"/>
<path d="M664.939 202.516H655.925V257.675H664.939V202.516Z" fill="#025937" stroke="#0C322C" stroke-width="1.63604" stroke-linejoin="round"/>
<path d="M678.784 207.596C678.637 207.596 678.494 207.6 678.351 207.608C679.005 206.299 679.373 204.823 679.373 203.26C679.373 197.866 675.001 193.493 669.606 193.493C669.242 193.493 668.882 193.514 668.531 193.555C666.776 190.953 663.802 189.24 660.428 189.24C655.033 189.24 650.661 193.612 650.661 199.007C650.661 199.076 650.661 199.146 650.665 199.215C650.015 199.08 649.34 199.007 648.649 199.007C643.475 199.007 639.242 203.031 638.906 208.123C635.066 209.436 632.301 213.077 632.301 217.363C632.301 222.635 636.477 226.926 641.7 227.122C642.649 231.527 646.559 234.828 651.246 234.828C654.612 234.828 657.581 233.122 659.34 230.529C661.107 232.288 663.541 233.372 666.228 233.372C670.588 233.372 674.277 230.517 675.533 226.574C676.551 226.934 677.643 227.13 678.784 227.13C684.179 227.13 688.552 222.758 688.552 217.363C688.552 211.968 684.179 207.596 678.784 207.596Z" fill="#30BA78" stroke="#0C322C" stroke-width="1.63604" stroke-linejoin="round"/>
</g>
<path d="M662.595 193.984H588.973V240.12H662.595V193.984Z" stroke="#0C322C" stroke-width="1.63604" stroke-linejoin="round"/>
<path d="M331.297 102.1C331.289 97.8549 327.841 94.4151 323.596 94.4151C323.555 94.4151 323.514 94.4151 323.473 94.4151C323.551 93.8139 323.596 93.2044 323.596 92.5868C323.596 84.9547 317.407 78.7705 309.779 78.7705C304.597 78.7705 300.082 81.6254 297.718 85.8464C297.145 85.7482 296.56 85.695 295.963 85.695C290.72 85.695 286.388 89.597 285.705 94.6523C285.092 94.4969 284.449 94.411 283.787 94.411C279.537 94.411 276.093 97.8508 276.085 102.096H331.301L331.297 102.1Z" fill="white" stroke="#0C322C" stroke-width="1.63604" stroke-linejoin="round"/>
</svg>
