<svg width="664" height="665" viewBox="0 0 664 665" fill="none" xmlns="http://www.w3.org/2000/svg">
<path d="M192.972 56.1833V415.844L552.639 56.1833H192.972Z" fill="#FFB184" stroke="#0C322C" stroke-width="2.07963" stroke-linejoin="round"/>
<path d="M552.639 56.1833L192.972 415.844H635.639V56.1833H552.639Z" fill="#90EBCD" stroke="#0C322C" stroke-width="2.07963" stroke-linejoin="round"/>
<path d="M192.968 581.846C284.647 581.846 358.968 507.525 358.968 415.846C358.968 324.166 284.647 249.846 192.968 249.846C101.289 249.846 26.968 324.166 26.968 415.846C26.968 507.525 101.289 581.846 192.968 581.846Z" fill="#FE7C3F" stroke="#0C322C" stroke-width="2.07963" stroke-linejoin="round"/>
<path d="M358.956 305.185H26.9557V595.093H358.956V305.185Z" fill="#FFB184"/>
<mask id="mask0_60_6294" style="mask-type:luminance" maskUnits="userSpaceOnUse" x="26" y="305" width="333" height="291">
<path d="M358.956 305.185H26.9557V595.093H358.956V305.185Z" fill="white"/>
</mask>
<g mask="url(#mask0_60_6294)">
<path d="M192.968 581.845C284.647 581.845 358.968 507.525 358.968 415.845C358.968 324.166 284.647 249.845 192.968 249.845C101.289 249.845 26.9678 324.166 26.9678 415.845C26.9678 507.525 101.289 581.845 192.968 581.845Z" fill="#FE7C3F" stroke="#0C322C" stroke-width="2.07963" stroke-linejoin="round"/>
</g>
<path d="M358.956 305.185H26.9557V605.616H358.956V305.185Z" stroke="#0C322C" stroke-width="2.07963" stroke-linejoin="round"/>
<path d="M635.639 360.517H358.972V609.517H635.639V360.517Z" fill="#90EBCD"/>
<mask id="mask1_60_6294" style="mask-type:luminance" maskUnits="userSpaceOnUse" x="358" y="360" width="278" height="250">
<path d="M635.639 360.517H358.972V609.517H635.639V360.517Z" fill="white"/>
</mask>
<g mask="url(#mask1_60_6294)">
<path d="M912.305 512.641C908.622 515.899 903.778 517.885 898.472 517.885C893.166 517.885 888.321 515.899 884.638 512.641C880.956 515.899 876.111 517.885 870.805 517.885C865.499 517.885 860.655 515.899 856.972 512.641C853.289 515.899 848.444 517.885 843.138 517.885C837.833 517.885 832.988 515.899 829.305 512.641C825.622 515.899 820.778 517.885 815.472 517.885C810.166 517.885 805.321 515.899 801.638 512.641C797.956 515.899 793.111 517.885 787.805 517.885C782.499 517.885 777.655 515.899 773.972 512.641C770.289 515.899 765.444 517.885 760.138 517.885C754.833 517.885 749.988 515.899 746.305 512.641C742.622 515.899 737.778 517.885 732.472 517.885C727.166 517.885 722.321 515.899 718.638 512.641C714.956 515.899 710.111 517.885 704.805 517.885C699.499 517.885 694.655 515.899 690.972 512.641C687.289 515.899 682.444 517.885 677.138 517.885C671.833 517.885 666.988 515.899 663.305 512.641C659.622 515.899 654.778 517.885 649.472 517.885C644.166 517.885 639.321 515.899 635.638 512.641C631.956 515.899 627.111 517.885 621.805 517.885C616.499 517.885 611.654 515.899 607.972 512.641C604.289 515.899 599.444 517.885 594.138 517.885C588.833 517.885 583.988 515.899 580.305 512.641C576.622 515.899 571.778 517.885 566.472 517.885C561.166 517.885 556.321 515.899 552.638 512.641C548.956 515.899 544.111 517.885 538.805 517.885C533.499 517.885 528.654 515.899 524.972 512.641C521.289 515.899 516.444 517.885 511.138 517.885C505.833 517.885 500.988 515.899 497.305 512.641C493.622 515.899 488.778 517.885 483.472 517.885C478.166 517.885 473.321 515.899 469.638 512.641C465.956 515.899 461.111 517.885 455.805 517.885C450.499 517.885 445.654 515.899 441.972 512.641C438.289 515.899 433.444 517.885 428.138 517.885C422.833 517.885 417.988 515.899 414.305 512.641C410.622 515.899 405.778 517.885 400.472 517.885C395.166 517.885 390.321 515.899 386.638 512.641C382.956 515.899 378.111 517.885 372.805 517.885C367.499 517.885 362.654 515.899 358.972 512.641V581.851H912.305V512.641Z" fill="#EAFAF8" stroke="#0C322C" stroke-width="2.07963" stroke-linejoin="round"/>
<path d="M912.305 540.308C908.622 543.566 903.778 545.552 898.472 545.552C893.166 545.552 888.321 543.566 884.638 540.308C880.956 543.566 876.111 545.552 870.805 545.552C865.499 545.552 860.655 543.566 856.972 540.308C853.289 543.566 848.444 545.552 843.138 545.552C837.833 545.552 832.988 543.566 829.305 540.308C825.622 543.566 820.778 545.552 815.472 545.552C810.166 545.552 805.321 543.566 801.638 540.308C797.956 543.566 793.111 545.552 787.805 545.552C782.499 545.552 777.655 543.566 773.972 540.308C770.289 543.566 765.444 545.552 760.138 545.552C754.833 545.552 749.988 543.566 746.305 540.308C742.622 543.566 737.778 545.552 732.472 545.552C727.166 545.552 722.321 543.566 718.638 540.308C714.956 543.566 710.111 545.552 704.805 545.552C699.499 545.552 694.655 543.566 690.972 540.308C687.289 543.566 682.444 545.552 677.138 545.552C671.833 545.552 666.988 543.566 663.305 540.308C659.622 543.566 654.778 545.552 649.472 545.552C644.166 545.552 639.321 543.566 635.638 540.308C631.956 543.566 627.111 545.552 621.805 545.552C616.499 545.552 611.654 543.566 607.972 540.308C604.289 543.566 599.444 545.552 594.138 545.552C588.833 545.552 583.988 543.566 580.305 540.308C576.622 543.566 571.778 545.552 566.472 545.552C561.166 545.552 556.321 543.566 552.638 540.308C548.956 543.566 544.111 545.552 538.805 545.552C533.499 545.552 528.654 543.566 524.972 540.308C521.289 543.566 516.444 545.552 511.138 545.552C505.833 545.552 500.988 543.566 497.305 540.308C493.622 543.566 488.778 545.552 483.472 545.552C478.166 545.552 473.321 543.566 469.638 540.308C465.956 543.566 461.111 545.552 455.805 545.552C450.499 545.552 445.654 543.566 441.972 540.308C438.289 543.566 433.444 545.552 428.138 545.552C422.833 545.552 417.988 543.566 414.305 540.308C410.622 543.566 405.778 545.552 400.472 545.552C395.166 545.552 390.321 543.566 386.638 540.308C382.956 543.566 378.111 545.552 372.805 545.552C367.499 545.552 362.654 543.566 358.972 540.308V609.517H912.305V540.308Z" fill="#2453FF" stroke="#0C322C" stroke-width="2.07963" stroke-linejoin="round"/>
<path d="M912.305 567.618C908.622 570.876 903.778 572.862 898.472 572.862C893.166 572.862 888.321 570.876 884.638 567.618C880.956 570.876 876.111 572.862 870.805 572.862C865.499 572.862 860.655 570.876 856.972 567.618C853.289 570.876 848.444 572.862 843.138 572.862C837.833 572.862 832.988 570.876 829.305 567.618C825.622 570.876 820.778 572.862 815.472 572.862C810.166 572.862 805.321 570.876 801.638 567.618C797.956 570.876 793.111 572.862 787.805 572.862C782.499 572.862 777.655 570.876 773.972 567.618C770.289 570.876 765.444 572.862 760.138 572.862C754.833 572.862 749.988 570.876 746.305 567.618C742.622 570.876 737.778 572.862 732.472 572.862C727.166 572.862 722.321 570.876 718.638 567.618C714.956 570.876 710.111 572.862 704.805 572.862C699.499 572.862 694.655 570.876 690.972 567.618C687.289 570.876 682.444 572.862 677.138 572.862C671.833 572.862 666.988 570.876 663.305 567.618C659.622 570.876 654.778 572.862 649.472 572.862C644.166 572.862 639.321 570.876 635.638 567.618C631.956 570.876 627.111 572.862 621.805 572.862C616.499 572.862 611.654 570.876 607.972 567.618C604.289 570.876 599.444 572.862 594.138 572.862C588.833 572.862 583.988 570.876 580.305 567.618C576.622 570.876 571.778 572.862 566.472 572.862C561.166 572.862 556.321 570.876 552.638 567.618C548.956 570.876 544.111 572.862 538.805 572.862C533.499 572.862 528.654 570.876 524.972 567.618C521.289 570.876 516.444 572.862 511.138 572.862C505.833 572.862 500.988 570.876 497.305 567.618C493.622 570.876 488.778 572.862 483.472 572.862C478.166 572.862 473.321 570.876 469.638 567.618C465.956 570.876 461.111 572.862 455.805 572.862C450.499 572.862 445.654 570.876 441.972 567.618C438.289 570.876 433.444 572.862 428.138 572.862C422.833 572.862 417.988 570.876 414.305 567.618C410.622 570.876 405.778 572.862 400.472 572.862C395.166 572.862 390.321 570.876 386.638 567.618C382.956 570.876 378.111 572.862 372.805 572.862C367.499 572.862 362.654 570.876 358.972 567.618V636.827H912.305V567.618Z" fill="#192072" stroke="#0C322C" stroke-width="2.07963" stroke-linejoin="round"/>
<path d="M580.305 28.5173L192.972 415.845H635.638V28.5173H580.305Z" fill="#EAFAF8" stroke="#0C322C" stroke-width="2.07963" stroke-linejoin="round"/>
</g>
<path d="M635.639 360.517H358.972V609.517H635.639V360.517Z" stroke="#0C322C" stroke-width="2.07963" stroke-linejoin="round"/>
<path d="M220.635 111.518C220.635 96.6211 208.246 84.5461 192.968 84.5461C185.603 84.5461 178.907 87.362 173.952 91.9362C171.665 87.9092 168.695 84.3125 165.191 81.2753C163.457 53.0061 139.399 30.6023 109.968 30.6023C79.4058 30.6023 54.635 54.7522 54.635 84.5461C39.3568 84.5461 26.9683 96.6211 26.9683 111.518H220.635Z" fill="#30BA78" stroke="#0C322C" stroke-width="2.07963" stroke-miterlimit="10"/>
<path d="M379.722 111.536C379.722 111.536 379.722 111.511 379.722 111.493C379.722 103.85 373.53 97.6593 365.888 97.6593C365.827 97.6593 365.771 97.6593 365.71 97.6593C362.863 89.5991 355.178 83.8198 346.147 83.8198C336.1 83.8198 327.721 90.964 325.808 100.444C323.491 98.6922 320.601 97.6532 317.472 97.6532C309.829 97.6532 303.638 103.844 303.638 111.486C303.638 111.499 303.638 111.511 303.638 111.53H379.722V111.536Z" fill="white" stroke="#0C322C" stroke-width="2.07963" stroke-miterlimit="10"/>
<path d="M635.638 457.283H386.638V470.987H635.638V457.283Z" fill="#999999" stroke="#0C322C" stroke-width="2.07963" stroke-linejoin="round"/>
<path d="M635.638 443.517H372.805V457.222H635.638V443.517Z" fill="#BABABA" stroke="#0C322C" stroke-width="2.07963" stroke-linejoin="round"/>
<path d="M594.138 545.459C599.444 545.459 604.289 543.474 607.972 540.215C607.99 540.233 608.009 540.246 608.027 540.258V471.184H580.613V540.473C584.258 543.578 588.974 545.459 594.138 545.459Z" fill="#999999" stroke="#0C322C" stroke-width="2.07963" stroke-linejoin="round"/>
<path d="M538.805 545.459C544.111 545.459 548.956 543.474 552.638 540.215C552.7 540.27 552.768 540.326 552.835 540.381V471.184H525.421V540.596C529.048 543.627 533.708 545.459 538.805 545.459Z" fill="#999999" stroke="#0C322C" stroke-width="2.07963" stroke-linejoin="round"/>
<path d="M428.139 545.459C433.445 545.459 438.289 543.474 441.972 540.215V471.184H414.557V540.43C418.209 543.56 422.95 545.459 428.133 545.459H428.139Z" fill="#999999" stroke="#0C322C" stroke-width="2.07963" stroke-linejoin="round"/>
<path d="M483.472 545.46C488.778 545.46 493.622 543.474 497.305 540.215C497.416 540.314 497.533 540.406 497.643 540.504V471.19H470.229V540.719C473.831 543.677 478.443 545.46 483.472 545.46Z" fill="#999999" stroke="#0C322C" stroke-width="2.07963" stroke-linejoin="round"/>
<path d="M635.639 305.184H358.96V360.517H635.639V305.184Z" fill="#30BA78" stroke="#0C322C" stroke-width="2.07963" stroke-linejoin="round"/>
<path d="M358.978 222.19H192.978V305.19H358.978V222.19Z" fill="#2453FF" stroke="#0C322C" stroke-width="2.07963" stroke-linejoin="round"/>
<path d="M206.811 230.871V297.498" stroke="#0C322C" stroke-width="2.07963" stroke-linejoin="round"/>
<path d="M220.638 230.87V297.498" stroke="#0C322C" stroke-width="2.07963" stroke-linejoin="round"/>
<path d="M234.472 230.87V297.498" stroke="#0C322C" stroke-width="2.07963" stroke-linejoin="round"/>
<path d="M248.305 230.87V297.498" stroke="#0C322C" stroke-width="2.07963" stroke-linejoin="round"/>
<path d="M262.138 230.87V297.498" stroke="#0C322C" stroke-width="2.07963" stroke-linejoin="round"/>
<path d="M275.972 230.87V297.498" stroke="#0C322C" stroke-width="2.07963" stroke-linejoin="round"/>
<path d="M289.805 230.87V297.498" stroke="#0C322C" stroke-width="2.07963" stroke-linejoin="round"/>
<path d="M303.638 230.87V297.498" stroke="#0C322C" stroke-width="2.07963" stroke-linejoin="round"/>
<path d="M317.472 230.87V297.498" stroke="#0C322C" stroke-width="2.07963" stroke-linejoin="round"/>
<path d="M331.305 297.498V230.87" stroke="#0C322C" stroke-width="2.07963" stroke-linejoin="round"/>
<path d="M345.138 230.87V297.498" stroke="#0C322C" stroke-width="2.07963" stroke-linejoin="round"/>
<path d="M248.311 360.517H137.731V457.35H248.311V360.517Z" fill="#EFEFEF" stroke="#0C322C" stroke-width="2.07963" stroke-linejoin="round"/>
<path d="M151.472 374.35V367.452" stroke="#0C322C" stroke-width="2.07963" stroke-linejoin="round"/>
<path d="M165.305 374.35V367.452" stroke="#0C322C" stroke-width="2.07963" stroke-linejoin="round"/>
<path d="M179.138 374.35V367.452" stroke="#0C322C" stroke-width="2.07963" stroke-linejoin="round"/>
<path d="M192.972 374.35V367.452" stroke="#0C322C" stroke-width="2.07963" stroke-linejoin="round"/>
<path d="M206.805 374.35V367.452" stroke="#0C322C" stroke-width="2.07963" stroke-linejoin="round"/>
<path d="M220.638 374.35V367.452" stroke="#0C322C" stroke-width="2.07963" stroke-linejoin="round"/>
<path d="M234.472 374.35V367.452" stroke="#0C322C" stroke-width="2.07963" stroke-linejoin="round"/>
<path d="M262.139 339.767H123.805V360.517H262.139V339.767Z" fill="#90EBCD" stroke="#0C322C" stroke-width="2.07963" stroke-linejoin="round"/>
<path d="M262.139 346.671H123.805V353.588H262.139V346.671Z" fill="#2453FF" stroke="#0C322C" stroke-width="2.07963" stroke-linejoin="round"/>
<path d="M234.472 332.85H151.472V339.767H234.472V332.85Z" fill="#90EBCD" stroke="#0C322C" stroke-width="2.07963" stroke-linejoin="round"/>
<path d="M151.472 422.767H109.972V443.517H151.472V422.767Z" fill="#2453FF" stroke="#0C322C" stroke-width="2.07963" stroke-linejoin="round"/>
<path d="M192.972 422.767H151.472V443.517H192.972V422.767Z" fill="#30BA78" stroke="#0C322C" stroke-width="2.07963" stroke-linejoin="round"/>
<path d="M234.478 422.767H192.978V443.517H234.478V422.767Z" fill="#30BA78" stroke="#0C322C" stroke-width="2.07963" stroke-linejoin="round"/>
<path d="M275.978 422.767H234.478V443.517H275.978V422.767Z" fill="white" stroke="#0C322C" stroke-width="2.07963" stroke-linejoin="round"/>
<path d="M151.472 402.017H109.972V422.767H151.472V402.017Z" fill="#30BA78" stroke="#0C322C" stroke-width="2.07963" stroke-linejoin="round"/>
<path d="M192.972 402.017H151.472V422.767H192.972V402.017Z" fill="white" stroke="#0C322C" stroke-width="2.07963" stroke-linejoin="round"/>
<path d="M234.478 402.017H192.978V422.767H234.478V402.017Z" fill="#2453FF" stroke="#0C322C" stroke-width="2.07963" stroke-linejoin="round"/>
<path d="M275.978 402.017H234.478V422.767H275.978V402.017Z" fill="#FE7C3F" stroke="#0C322C" stroke-width="2.07963" stroke-linejoin="round"/>
<path d="M192.972 381.267H151.472V402.017H192.972V381.267Z" fill="#2453FF" stroke="#0C322C" stroke-width="2.07963" stroke-linejoin="round"/>
<path d="M234.478 381.267H192.978V402.017H234.478V381.267Z" fill="#30BA78" stroke="#0C322C" stroke-width="2.07963" stroke-linejoin="round"/>
<path d="M289.805 443.517L192.972 429.683L96.1384 443.517L109.972 526.486L275.972 526.517L289.805 443.517Z" fill="#0C322C"/>
<mask id="mask2_60_6294" style="mask-type:luminance" maskUnits="userSpaceOnUse" x="96" y="429" width="194" height="98">
<path d="M289.805 443.517L192.972 429.683L96.1384 443.517L109.972 526.486L275.972 526.517L289.805 443.517Z" fill="white"/>
</mask>
<g mask="url(#mask2_60_6294)">
<path d="M289.805 429.683H193.101V526.504H289.805V429.683Z" fill="#90EBCD" stroke="#0C322C" stroke-width="2.07963" stroke-linejoin="round"/>
<path d="M193.021 457.35C196.841 457.35 199.938 454.254 199.938 450.434C199.938 446.614 196.841 443.517 193.021 443.517C189.201 443.517 186.104 446.614 186.104 450.434C186.104 454.254 189.201 457.35 193.021 457.35Z" fill="#0C322C" stroke="#0C322C" stroke-width="2.07963" stroke-linejoin="round"/>
</g>
<path d="M289.805 443.517L192.972 429.683L96.1384 443.517L109.972 526.486L275.972 526.517L289.805 443.517Z" stroke="#0C322C" stroke-width="2.07963" stroke-linejoin="round"/>
<path d="M26.972 581.85H358.96V512.641C355.277 515.899 350.432 517.885 345.126 517.885C339.821 517.885 334.976 515.899 331.293 512.641C327.61 515.899 322.766 517.885 317.46 517.885C312.154 517.885 307.309 515.899 303.626 512.641C299.944 515.899 295.099 517.885 289.793 517.885C284.487 517.885 279.643 515.899 275.96 512.641C272.277 515.899 267.432 517.885 262.126 517.885C256.821 517.885 251.976 515.899 248.293 512.641C244.61 515.899 239.766 517.885 234.46 517.885C229.154 517.885 224.309 515.899 220.626 512.641C216.944 515.899 212.099 517.885 206.793 517.885C201.487 517.885 196.643 515.899 192.96 512.641C189.277 515.899 184.432 517.885 179.126 517.885C173.821 517.885 168.976 515.899 165.293 512.641C161.61 515.899 156.766 517.885 151.46 517.885C146.154 517.885 141.309 515.899 137.626 512.641C133.944 515.899 129.099 517.885 123.793 517.885C118.487 517.885 113.643 515.899 109.96 512.641C106.277 515.899 101.432 517.885 96.1264 517.885C90.8206 517.885 85.9758 515.899 82.2931 512.641C78.6104 515.899 73.7656 517.885 68.4598 517.885C63.1539 517.885 58.3092 515.899 54.6264 512.641C50.9437 515.899 46.0989 517.885 40.7931 517.885C35.4872 517.885 30.6548 515.905 26.972 512.653V581.85Z" fill="#FFEFE9" stroke="#0C322C" stroke-width="2.07963" stroke-linejoin="round"/>
<path d="M26.972 609.517H358.96V540.307C355.277 543.566 350.432 545.552 345.126 545.552C339.821 545.552 334.976 543.566 331.293 540.307C327.61 543.566 322.766 545.552 317.46 545.552C312.154 545.552 307.309 543.566 303.626 540.307C299.944 543.566 295.099 545.552 289.793 545.552C284.487 545.552 279.643 543.566 275.96 540.307C272.277 543.566 267.432 545.552 262.126 545.552C256.821 545.552 251.976 543.566 248.293 540.307C244.61 543.566 239.766 545.552 234.46 545.552C229.154 545.552 224.309 543.566 220.626 540.307C216.944 543.566 212.099 545.552 206.793 545.552C201.487 545.552 196.643 543.566 192.96 540.307C189.277 543.566 184.432 545.552 179.126 545.552C173.821 545.552 168.976 543.566 165.293 540.307C161.61 543.566 156.766 545.552 151.46 545.552C146.154 545.552 141.309 543.566 137.626 540.307C133.944 543.566 129.099 545.552 123.793 545.552C118.487 545.552 113.643 543.566 109.96 540.307C106.277 543.566 101.432 545.552 96.1264 545.552C90.8206 545.552 85.9758 543.566 82.2931 540.307C78.6104 543.566 73.7656 545.552 68.4598 545.552C63.1539 545.552 58.3092 543.566 54.6264 540.307C50.9437 543.566 46.0989 545.552 40.7931 545.552C35.4872 545.552 30.6548 543.572 26.972 540.32V609.517Z" fill="#2453FF" stroke="#0C322C" stroke-width="2.07963" stroke-linejoin="round"/>
<path d="M26.972 609.468H358.96V567.618C355.277 570.876 350.432 572.862 345.126 572.862C339.821 572.862 334.976 570.876 331.293 567.618C327.61 570.876 322.766 572.862 317.46 572.862C312.154 572.862 307.309 570.876 303.626 567.618C299.944 570.876 295.099 572.862 289.793 572.862C284.487 572.862 279.643 570.876 275.96 567.618C272.277 570.876 267.432 572.862 262.126 572.862C256.821 572.862 251.976 570.876 248.293 567.618C244.61 570.876 239.766 572.862 234.46 572.862C229.154 572.862 224.309 570.876 220.626 567.618C216.944 570.876 212.099 572.862 206.793 572.862C201.487 572.862 196.643 570.876 192.96 567.618C189.277 570.876 184.432 572.862 179.126 572.862C173.821 572.862 168.976 570.876 165.293 567.618C161.61 570.876 156.766 572.862 151.46 572.862C146.154 572.862 141.309 570.876 137.626 567.618C133.944 570.876 129.099 572.862 123.793 572.862C118.487 572.862 113.643 570.876 109.96 567.618C106.277 570.876 101.432 572.862 96.1264 572.862C90.8206 572.862 85.9758 570.876 82.2931 567.618C78.6104 570.876 73.7656 572.862 68.4598 572.862C63.1539 572.862 58.3092 570.876 54.6264 567.618C50.9437 570.876 46.0989 572.862 40.7931 572.862C35.4872 572.862 30.6548 570.882 26.972 567.63V609.468Z" fill="#192072" stroke="#0C322C" stroke-width="2.07963" stroke-linejoin="round"/>
<path d="M552.638 402.017H469.638V443.517H552.638V402.017Z" fill="#30BA78" stroke="#0C322C" stroke-width="2.07963" stroke-linejoin="round"/>
<path d="M580.305 360.517H497.305V402.017H580.305V360.517Z" fill="white" stroke="#0C322C" stroke-width="2.07963" stroke-linejoin="round"/>
<path d="M635.638 402.017H552.638V443.517H635.638V402.017Z" fill="#30BA78" stroke="#0C322C" stroke-width="2.07963" stroke-linejoin="round"/>
<path d="M469.638 402.017H386.638V443.517H469.638V402.017Z" fill="#FE7C3F" stroke="#0C322C" stroke-width="2.07963" stroke-linejoin="round"/>
<path d="M275.96 559.428C272.277 556.169 267.432 554.183 262.127 554.183C256.821 554.183 251.976 556.169 248.293 559.428C251.976 562.686 256.821 564.672 262.127 564.672C267.432 564.672 272.277 562.686 275.96 559.428Z" fill="#3C8EEF" stroke="#0C322C" stroke-width="2.07963" stroke-linejoin="round"/>
<path d="M241.382 555.358V563.492C243.958 562.588 246.301 561.199 248.305 559.422C246.301 557.651 243.958 556.262 241.382 555.352V555.358Z" fill="#3C8EEF" stroke="#0C322C" stroke-width="2.07963" stroke-linejoin="round"/>
<path d="M269.037 560.658C269.716 560.658 270.266 560.107 270.266 559.428C270.266 558.749 269.716 558.198 269.037 558.198C268.357 558.198 267.807 558.749 267.807 559.428C267.807 560.107 268.357 560.658 269.037 560.658Z" fill="#0C322C"/>
<path d="M54.6384 531.761C58.3211 535.02 63.1659 537.006 68.4717 537.006C73.7776 537.006 78.6223 535.02 82.3051 531.761C78.6223 528.503 73.7776 526.517 68.4717 526.517C63.1659 526.517 58.3211 528.503 54.6384 531.761Z" fill="#FFEFE9" stroke="#0C322C" stroke-width="2.07963" stroke-linejoin="round"/>
<path d="M89.2157 535.831V527.697C86.6396 528.601 84.2972 529.991 82.2929 531.767C84.2972 533.538 86.6396 534.927 89.2157 535.837V535.831Z" fill="#FFEFE9" stroke="#0C322C" stroke-width="2.07963" stroke-linejoin="round"/>
<path d="M61.5613 532.991C62.2404 532.991 62.7909 532.44 62.7909 531.761C62.7909 531.082 62.2404 530.532 61.5613 530.532C60.8822 530.532 60.3316 531.082 60.3316 531.761C60.3316 532.44 60.8822 532.991 61.5613 532.991Z" fill="#0C322C"/>
<path d="M414.305 559.428C410.622 556.169 405.778 554.183 400.472 554.183C395.166 554.183 390.321 556.169 386.638 559.428C390.321 562.686 395.166 564.672 400.472 564.672C405.778 564.672 410.622 562.686 414.305 559.428Z" fill="#3C8EEF" stroke="#0C322C" stroke-width="2.07963" stroke-linejoin="round"/>
<path d="M379.728 555.358V563.492C382.304 562.588 384.647 561.199 386.651 559.422C384.647 557.651 382.304 556.262 379.728 555.352V555.358Z" fill="#3C8EEF" stroke="#0C322C" stroke-width="2.07963" stroke-linejoin="round"/>
<path d="M407.382 560.658C408.061 560.658 408.612 560.107 408.612 559.428C408.612 558.749 408.061 558.198 407.382 558.198C406.703 558.198 406.153 558.749 406.153 559.428C406.153 560.107 406.703 560.658 407.382 560.658Z" fill="#0C322C"/>
<path d="M151.521 180.69L179.317 153.023L206.861 180.69L234.527 153.023L262.194 180.69L289.861 153.023L317.521 180.69L345.188 153.023L372.855 180.69L400.521 153.023L428.139 180.678L455.805 153.017L483.472 180.678L511.139 153.023L538.805 180.678L566.472 153.017L594.317 180.678L621.805 153.017L635.639 166.851" stroke="#0C322C" stroke-width="2.07963" stroke-linejoin="round"/>
<path d="M635.638 146.106H179.188V153.023H635.638V146.106Z" fill="white" stroke="#0C322C" stroke-width="2.07963" stroke-linejoin="round"/>
<path d="M635.645 180.678H151.521V187.594H635.645V180.678Z" fill="white" stroke="#0C322C" stroke-width="2.07963" stroke-linejoin="round"/>
<path d="M511.139 111.517H497.299V360.517H511.139V111.517Z" fill="white" stroke="#0C322C" stroke-width="2.07963" stroke-linejoin="round"/>
<path d="M635.639 111.517H497.299V125.35H635.639V111.517Z" fill="white" stroke="#0C322C" stroke-width="2.07963" stroke-linejoin="round"/>
<path d="M372.805 284.434L400.607 256.767L428.145 284.434L455.811 256.767L483.478 284.434L511.145 256.767L538.805 284.434L566.472 256.767L594.139 284.434L621.805 256.767" stroke="#0C322C" stroke-width="2.07963" stroke-linejoin="round"/>
<path d="M635.639 249.85H400.472V256.767H635.639V249.85Z" fill="white" stroke="#0C322C" stroke-width="2.07963" stroke-linejoin="round"/>
<path d="M635.639 284.421H372.805V291.338H635.639V284.421Z" fill="white" stroke="#0C322C" stroke-width="2.07963" stroke-linejoin="round"/>
<path d="M206.166 146.1L296.082 56.1833" stroke="#0C322C" stroke-width="2.07963" stroke-linejoin="round"/>
<path d="M428.138 249.641L621.805 56.1833" stroke="#0C322C" stroke-width="2.07963" stroke-linejoin="round"/>
<path d="M282.889 208.35H269.055V222.183H282.889V208.35Z" fill="#0C322C" stroke="#0C322C" stroke-width="2.07963" stroke-linejoin="round"/>
<path d="M275.972 208.35V187.594" stroke="#0C322C" stroke-width="2.07963" stroke-linejoin="round"/>
<path d="M82.3052 111.498V343.148C82.3052 346.96 85.3855 350.053 89.1973 350.065L116.882 350.243" stroke="#42D29F" stroke-width="2.07963" stroke-linejoin="round"/>
<path d="M345.139 118.433C348.959 118.433 352.055 115.337 352.055 111.517C352.055 107.697 348.959 104.6 345.139 104.6C341.319 104.6 338.222 107.697 338.222 111.517C338.222 115.337 341.319 118.433 345.139 118.433Z" fill="#30BA78" stroke="#0C322C" stroke-width="2.07963" stroke-linejoin="round"/>
<path d="M123.805 357.061C127.625 357.061 130.722 353.965 130.722 350.145C130.722 346.325 127.625 343.228 123.805 343.228C119.985 343.228 116.888 346.325 116.888 350.145C116.888 353.965 119.985 357.061 123.805 357.061Z" fill="#30BA78" stroke="#0C322C" stroke-width="2.07963" stroke-linejoin="round"/>
<path d="M165.305 111.498V118.44C165.305 122.258 168.404 125.356 172.222 125.356H338.222C342.04 125.356 345.139 122.258 345.139 118.44" stroke="#0C322C" stroke-width="2.07963" stroke-linejoin="round"/>
<path d="M137.638 111.498L137.724 256.718C137.724 260.529 140.811 263.622 144.623 263.628L192.966 263.769" stroke="#42D29F" stroke-width="2.07963" stroke-linejoin="round"/>
<path d="M192.96 271.098C196.78 271.098 199.876 268.002 199.876 264.182C199.876 260.362 196.78 257.265 192.96 257.265C189.14 257.265 186.043 260.362 186.043 264.182C186.043 268.002 189.14 271.098 192.96 271.098Z" fill="#30BA78" stroke="#0C322C" stroke-width="2.07963" stroke-linejoin="round"/>
<path d="M109.972 111.535V312.1C109.972 315.918 113.071 319.017 116.889 319.017H393.555C397.373 319.017 400.472 322.115 400.472 325.933V402.017" stroke="#42D29F" stroke-width="2.07963" stroke-linejoin="round"/>
<path d="M400.472 408.933C404.292 408.933 407.389 405.837 407.389 402.017C407.389 398.197 404.292 395.1 400.472 395.1C396.652 395.1 393.555 398.197 393.555 402.017C393.555 405.837 396.652 408.933 400.472 408.933Z" fill="#30BA78" stroke="#0C322C" stroke-width="2.07963" stroke-linejoin="round"/>
<path d="M165.354 118.433C169.174 118.433 172.271 115.337 172.271 111.517C172.271 107.697 169.174 104.6 165.354 104.6C161.534 104.6 158.438 107.697 158.438 111.517C158.438 115.337 161.534 118.433 165.354 118.433Z" fill="white" stroke="#0C322C" stroke-width="2.07963" stroke-linejoin="round"/>
<path d="M137.639 118.433C141.459 118.433 144.555 115.337 144.555 111.517C144.555 107.697 141.459 104.6 137.639 104.6C133.819 104.6 130.722 107.697 130.722 111.517C130.722 115.337 133.819 118.433 137.639 118.433Z" fill="#2453FF" stroke="#0C322C" stroke-width="2.07963" stroke-linejoin="round"/>
<path d="M109.972 118.433C113.792 118.433 116.889 115.337 116.889 111.517C116.889 107.697 113.792 104.6 109.972 104.6C106.152 104.6 103.055 107.697 103.055 111.517C103.055 115.337 106.152 118.433 109.972 118.433Z" fill="#FE7C3F" stroke="#0C322C" stroke-width="2.07963" stroke-linejoin="round"/>
<path d="M82.3051 118.433C86.125 118.433 89.2217 115.337 89.2217 111.517C89.2217 107.697 86.125 104.6 82.3051 104.6C78.4851 104.6 75.3884 107.697 75.3884 111.517C75.3884 115.337 78.4851 118.433 82.3051 118.433Z" fill="#90EBCD" stroke="#0C322C" stroke-width="2.07963" stroke-linejoin="round"/>
<path d="M507.271 367.913V394.621" stroke="#0C322C" stroke-width="2.07963" stroke-linejoin="round"/>
<path d="M515.153 367.913V394.62" stroke="#0C322C" stroke-width="2.07963" stroke-linejoin="round"/>
<path d="M546.693 367.913L530.923 394.62" stroke="#0C322C" stroke-width="2.07963" stroke-linejoin="round"/>
<path d="M562.457 367.913V394.62" stroke="#0C322C" stroke-width="2.07963" stroke-linejoin="round"/>
<path d="M570.345 367.913V394.62" stroke="#0C322C" stroke-width="2.07963" stroke-linejoin="round"/>
<path d="M528.906 375.174L522.826 381.255L528.925 387.354" stroke="#0C322C" stroke-width="2.07963" stroke-miterlimit="10"/>
<path d="M548.704 387.354L554.784 381.273L548.685 375.174" stroke="#0C322C" stroke-width="2.07963" stroke-miterlimit="10"/>
<path d="M562.783 409.413V436.121" stroke="#0C322C" stroke-width="2.07963" stroke-linejoin="round"/>
<path d="M570.665 409.413V436.12" stroke="#0C322C" stroke-width="2.07963" stroke-linejoin="round"/>
<path d="M602.205 409.413L586.435 436.12" stroke="#0C322C" stroke-width="2.07963" stroke-linejoin="round"/>
<path d="M617.969 409.413V436.12" stroke="#0C322C" stroke-width="2.07963" stroke-linejoin="round"/>
<path d="M625.857 409.413V436.12" stroke="#0C322C" stroke-width="2.07963" stroke-linejoin="round"/>
<path d="M584.419 416.674L578.344 422.755L584.437 428.854" stroke="#0C322C" stroke-width="2.07963" stroke-miterlimit="10"/>
<path d="M604.216 428.854L610.296 422.773L604.197 416.674" stroke="#0C322C" stroke-width="2.07963" stroke-miterlimit="10"/>
<path d="M479.605 409.413V436.121" stroke="#0C322C" stroke-width="2.07963" stroke-linejoin="round"/>
<path d="M487.487 409.413V436.12" stroke="#0C322C" stroke-width="2.07963" stroke-linejoin="round"/>
<path d="M519.026 409.413L503.256 436.12" stroke="#0C322C" stroke-width="2.07963" stroke-linejoin="round"/>
<path d="M534.79 409.413V436.12" stroke="#0C322C" stroke-width="2.07963" stroke-linejoin="round"/>
<path d="M542.679 409.413V436.12" stroke="#0C322C" stroke-width="2.07963" stroke-linejoin="round"/>
<path d="M501.24 416.674L495.159 422.755L501.258 428.854" stroke="#0C322C" stroke-width="2.07963" stroke-miterlimit="10"/>
<path d="M521.037 428.854L527.117 422.773L521.018 416.674" stroke="#0C322C" stroke-width="2.07963" stroke-miterlimit="10"/>
<path d="M396.734 409.413V436.121" stroke="#0C322C" stroke-width="2.07963" stroke-linejoin="round"/>
<path d="M404.616 409.413V436.12" stroke="#0C322C" stroke-width="2.07963" stroke-linejoin="round"/>
<path d="M436.15 409.413L420.38 436.12" stroke="#0C322C" stroke-width="2.07963" stroke-linejoin="round"/>
<path d="M451.92 409.413V436.12" stroke="#0C322C" stroke-width="2.07963" stroke-linejoin="round"/>
<path d="M459.802 409.413V436.12" stroke="#0C322C" stroke-width="2.07963" stroke-linejoin="round"/>
<path d="M418.369 416.674L412.289 422.755L418.388 428.854" stroke="#0C322C" stroke-width="2.07963" stroke-miterlimit="10"/>
<path d="M438.166 428.854L444.247 422.773L438.148 416.674" stroke="#0C322C" stroke-width="2.07963" stroke-miterlimit="10"/>
</svg>
