<svg width="180" height="181" viewBox="0 0 180 181" fill="none" xmlns="http://www.w3.org/2000/svg">
<g id="suse_hackweek_24_light_background 1">
<g id="Group">
<g id="Ebene_1">
<g id="Group_2">
<g id="Group_3">
<path id="Vector" d="M56.6839 132.04L51.2229 131.024L51.4558 132.844L53.4243 133.225L54.4614 141.374L55.9431 141.692L54.8848 133.5L56.9167 133.903L56.6839 132.04Z" fill="#0C322C"/>
<path id="Vector_2" d="M63.436 138.919C63.8594 138.453 63.9864 137.691 63.8594 136.612C63.7324 135.553 63.3725 134.707 62.8222 134.051C62.2719 133.394 61.5945 132.992 60.8114 132.844L58.0386 132.315L59.3086 142.39L60.7902 142.687L60.3457 139.109L61.3829 139.321L63.2244 143.195L64.9388 143.554L62.8434 139.321C63.0762 139.236 63.2667 139.109 63.436 138.919ZM59.7319 134.305L60.9384 134.537C61.2982 134.601 61.5945 134.813 61.8485 135.13C62.1025 135.469 62.2507 135.85 62.3142 136.315C62.3777 136.802 62.3142 137.162 62.1237 137.395C61.9332 137.628 61.6792 137.712 61.3194 137.649L60.1129 137.416L59.7319 134.305Z" fill="#0C322C"/>
<path id="Vector_3" d="M67.119 134.008L65.7008 143.682L67.246 143.999L67.5423 141.755L70.5268 142.369L71.4158 144.867L73.0033 145.184L68.9816 134.347L67.0767 133.987L67.119 134.008ZM67.7752 140.126L68.3043 136.189L69.8706 140.549L67.7752 140.126Z" fill="#0C322C"/>
<path id="Vector_4" d="M76.6016 144.084L75.7973 137.501L77.0673 137.755L76.8344 135.85L72.7281 135.067L72.961 136.972L74.2098 137.205L75.0141 143.766L73.7653 143.512L73.9981 145.396L78.0832 146.243L77.8716 144.359L76.6016 144.084Z" fill="#0C322C"/>
<path id="Vector_5" d="M83.5019 137.099L84.3274 143.872L80.0306 136.443L78.5912 136.167L79.8612 146.624L81.4699 146.941L80.6444 140.21L84.9624 147.661L86.4017 147.957L85.1317 137.395L83.5019 137.099Z" fill="#0C322C"/>
<path id="Vector_6" d="M98.7418 145.184C98.6148 144.084 98.3184 143.068 97.8528 142.158C97.3871 141.247 96.8156 140.507 96.1383 139.935C95.461 139.364 94.7201 138.983 93.937 138.834C93.1538 138.686 92.4765 138.792 91.905 139.131C91.3335 139.469 90.9313 140.02 90.6773 140.782C90.4233 141.544 90.3598 142.454 90.4868 143.555V143.66C90.635 144.761 90.9102 145.756 91.3758 146.645C91.8203 147.534 92.3918 148.275 93.0691 148.867C93.7465 149.46 94.4661 149.841 95.2493 149.989C96.0325 150.158 96.7098 150.074 97.2813 149.735C97.8528 149.396 98.2549 148.846 98.5301 148.084C98.8053 147.322 98.8688 146.391 98.7418 145.29V145.184ZM96.9214 146.73C96.7733 147.195 96.5405 147.534 96.2018 147.724C95.8631 147.915 95.4821 147.978 95.0165 147.872C94.5508 147.788 94.1275 147.555 93.7253 147.216C93.3231 146.878 93.0056 146.433 92.7305 145.883C92.4765 145.333 92.286 144.698 92.2013 143.999V143.893C92.0955 143.195 92.1378 142.602 92.286 142.136C92.4341 141.671 92.667 141.332 93.0056 141.142C93.3443 140.951 93.7253 140.888 94.191 140.972C94.6566 141.057 95.08 141.269 95.4821 141.607C95.8843 141.946 96.2018 142.39 96.4769 142.941C96.7521 143.491 96.9214 144.126 97.0061 144.825V144.93C97.1119 145.65 97.0696 146.243 96.9214 146.708V146.73Z" fill="#0C322C"/>
<path id="Vector_7" d="M105.833 146.074L102.213 145.354L101.938 142.941C101.938 142.814 101.938 142.708 102.001 142.645C102.065 142.56 102.128 142.539 102.234 142.56L105.79 143.237L105.557 141.226L101.366 140.443C100.943 140.359 100.626 140.486 100.393 140.782C100.16 141.078 100.075 141.502 100.139 142.031L101.176 151.005L102.89 151.365L102.425 147.322L106.044 148.042L105.811 146.074H105.833Z" fill="#0C322C"/>
<path id="Vector_8" d="M115.865 143.195L109.156 141.925L109.367 143.936L111.802 144.401L112.839 153.397L114.617 153.778L113.601 144.74L116.077 145.227L115.865 143.195Z" fill="#0C322C"/>
<path id="Vector_9" d="M123.295 144.592L123.782 149.016L119.802 148.233L119.316 143.851L117.495 143.491L118.744 154.625L120.564 155.006L120.035 150.286L124.015 151.069L124.544 155.81L126.406 156.212L125.158 144.952L123.295 144.592Z" fill="#0C322C"/>
<path id="Vector_10" d="M137.117 152.762C136.99 151.577 136.672 150.518 136.164 149.545C135.656 148.571 135.021 147.788 134.259 147.153C133.497 146.539 132.672 146.137 131.783 145.968C130.894 145.798 130.132 145.904 129.476 146.243C128.819 146.603 128.354 147.174 128.036 147.978C127.74 148.783 127.634 149.756 127.761 150.921V151.026C127.909 152.191 128.206 153.249 128.714 154.201C129.222 155.154 129.835 155.937 130.597 156.572C131.359 157.207 132.164 157.609 133.053 157.8C133.942 157.99 134.725 157.906 135.36 157.546C136.016 157.186 136.503 156.614 136.82 155.831C137.138 155.027 137.244 154.053 137.117 152.868V152.762ZM135.021 154.371C134.852 154.858 134.577 155.217 134.196 155.429C133.815 155.641 133.37 155.683 132.841 155.577C132.312 155.471 131.825 155.239 131.381 154.858C130.936 154.498 130.576 154.011 130.28 153.418C129.984 152.826 129.793 152.169 129.73 151.407V151.302C129.645 150.561 129.687 149.947 129.857 149.439C130.026 148.952 130.301 148.592 130.682 148.381C131.063 148.169 131.508 148.127 132.037 148.211C132.566 148.317 133.053 148.55 133.497 148.91C133.942 149.27 134.302 149.756 134.598 150.349C134.894 150.942 135.085 151.619 135.169 152.36V152.466C135.254 153.228 135.212 153.863 135.042 154.35L135.021 154.371Z" fill="#0C322C"/>
<path id="Vector_11" d="M146.218 148.91L144.229 148.529L145.012 155.894C145.096 156.699 144.991 157.228 144.673 157.545C144.377 157.842 143.932 157.926 143.361 157.821C142.789 157.715 142.324 157.44 141.943 156.995C141.562 156.551 141.329 155.937 141.244 155.154L140.461 147.83L138.514 147.47L139.318 154.942C139.466 156.381 139.932 157.524 140.694 158.35C141.456 159.196 142.429 159.726 143.594 159.958C144.377 160.128 145.033 160.107 145.562 159.916C146.091 159.726 146.493 159.345 146.769 158.773C147.023 158.202 147.107 157.44 147.001 156.466L146.197 148.888L146.218 148.91Z" fill="#0C322C"/>
<path id="Vector_12" d="M154.24 155.556L154.431 157.482L156.717 157.947C156.717 158.18 156.717 158.392 156.717 158.582C156.653 158.963 156.526 159.281 156.336 159.535C156.145 159.789 155.87 159.958 155.553 160.043C155.235 160.128 154.875 160.149 154.452 160.043C153.859 159.916 153.288 159.641 152.801 159.239C152.293 158.815 151.891 158.307 151.552 157.672C151.235 157.058 151.023 156.36 150.938 155.619V155.471C150.854 154.73 150.917 154.095 151.108 153.587C151.319 153.079 151.637 152.698 152.081 152.465C152.526 152.233 153.055 152.169 153.669 152.275C154.092 152.36 154.494 152.529 154.897 152.783C155.299 153.037 155.659 153.397 155.997 153.841L157.267 152.465C156.738 151.83 156.145 151.28 155.51 150.857C154.875 150.433 154.156 150.137 153.415 150.01C152.399 149.82 151.51 149.904 150.79 150.264C150.071 150.624 149.52 151.217 149.182 152.042C148.843 152.868 148.737 153.862 148.843 155.048V155.196C148.991 156.381 149.309 157.461 149.838 158.434C150.367 159.429 151.044 160.255 151.849 160.911C152.674 161.588 153.584 162.011 154.579 162.223C155.362 162.392 156.04 162.371 156.632 162.16C157.225 161.969 157.69 161.609 158.029 161.08C158.389 160.572 158.601 159.895 158.685 159.112C158.77 158.307 158.685 157.397 158.474 156.339L154.198 155.492L154.24 155.556Z" fill="#0C322C"/>
<path id="Vector_13" d="M166.75 152.783L167.215 157.503L162.686 156.614L162.199 151.915L160.103 151.513L161.331 163.409L163.405 163.832L162.897 158.794L167.448 159.683L167.956 164.763L170.094 165.208L168.888 153.185L166.75 152.783Z" fill="#0C322C"/>
<path id="Vector_14" d="M179.196 157.313L178.984 155.069L170.814 153.545L171.047 155.746L173.989 156.318L174.962 166.202L177.143 166.668L176.169 156.741L179.196 157.313Z" fill="#0C322C"/>
</g>
<path id="Vector_15" d="M140.884 94.0673C140.884 97.835 140.482 101.497 139.741 105.053C137.667 102.407 136.46 101.264 136.46 101.264C134.407 99.359 132.27 97.3693 129.56 95.5913C127.825 94.4483 125.814 93.3688 123.464 92.4798C122.596 92.1623 121.729 91.866 120.882 91.6332C120.84 91.6332 120.776 91.612 120.734 91.5909C119.591 91.3369 117.665 91.0617 115.463 91.3792V91.231L29.0404 102.386C28.6806 100.1 28.3419 97.1153 28.3419 94.0673C28.3419 64.0532 53.5301 39.7329 84.6025 39.7329C115.675 39.7329 140.863 64.0532 140.863 94.0673H140.884Z" fill="#C0EFDE"/>
<path id="Vector_16" d="M150.684 125.076C150.367 127.341 148.843 129.14 147.086 130.516C145.223 131.955 143.086 132.887 141.837 133.374C141.435 133.522 141.138 133.628 140.948 133.691C135.868 132.844 130.809 131.998 125.75 131.151C117.665 129.818 109.558 128.505 101.472 127.172C88.1585 124.992 74.8236 122.812 61.5099 120.631C59.4567 120.293 57.4036 119.954 55.3716 119.615C47.9633 118.409 40.555 117.181 33.1256 115.975C32.0461 113.625 30.7761 110.408 29.8236 106.471C29.8236 106.471 29.6754 105.878 29.4849 104.862C29.3579 104.185 29.2098 103.338 29.0616 102.365L115.463 91.21V91.3581C117.686 91.0406 119.591 91.3158 120.734 91.5698C120.776 91.5698 120.84 91.591 120.882 91.6121C121.729 91.8661 122.596 92.1413 123.464 92.4588C125.814 93.3478 127.803 94.4273 129.56 95.5703C132.27 97.3483 134.407 99.3379 136.46 101.243C136.46 101.243 137.688 102.386 139.741 105.032C139.741 105.074 139.72 105.138 139.699 105.18C141.286 107.233 142.705 109.18 143.911 111.001C143.953 111.043 143.975 111.106 144.017 111.149C145.541 113.414 146.79 115.446 147.763 117.16C148.97 119.234 149.711 120.716 150.155 121.838C150.176 121.88 150.198 121.944 150.219 121.986C150.219 121.986 150.219 122.007 150.24 122.028C150.748 123.383 150.811 124.23 150.706 125.076H150.684Z" fill="white"/>
<g id="Group_4">
<g id="Group_5">
<path id="Vector_17" d="M177.121 140.168C177.079 140.168 177.037 140.168 177.016 140.168L140.757 133.67C140.397 133.607 140.165 133.268 140.228 132.908C140.292 132.548 140.63 132.316 140.99 132.379L177.248 138.877C177.608 138.941 177.841 139.279 177.778 139.639C177.714 139.957 177.439 140.168 177.143 140.168H177.121Z" fill="#C0EFDE"/>
<path id="Vector_18" d="M177.333 129.712C177.291 129.712 177.27 129.712 177.227 129.712L150.981 125.246C150.621 125.182 150.388 124.844 150.452 124.505C150.515 124.145 150.854 123.912 151.192 123.976L177.439 128.442C177.799 128.505 178.031 128.844 177.968 129.183C177.904 129.5 177.629 129.733 177.333 129.733V129.712Z" fill="#C0EFDE"/>
<path id="Vector_19" d="M176.063 126.812C176.021 126.812 175.978 126.812 175.957 126.812L170.793 125.923C170.433 125.86 170.2 125.521 170.263 125.183C170.327 124.823 170.666 124.59 171.004 124.653L176.169 125.542C176.529 125.606 176.761 125.945 176.698 126.283C176.634 126.601 176.359 126.812 176.063 126.812Z" fill="#FE7C3F"/>
<path id="Vector_20" d="M164.633 124.886C164.591 124.886 164.57 124.886 164.527 124.886L150.028 122.494C149.668 122.431 149.436 122.092 149.499 121.753C149.563 121.394 149.901 121.161 150.24 121.224L164.739 123.616C165.099 123.68 165.332 124.018 165.268 124.357C165.205 124.674 164.951 124.907 164.633 124.907V124.886Z" fill="#FE7C3F"/>
<path id="Vector_21" d="M159.934 141.184C159.892 141.184 159.871 141.184 159.828 141.184L100.52 131.003C100.16 130.94 99.9271 130.601 99.9906 130.262C100.054 129.902 100.393 129.67 100.731 129.733L160.04 139.914C160.4 139.978 160.633 140.316 160.569 140.655C160.506 140.972 160.23 141.184 159.934 141.184Z" fill="#FE7C3F"/>
<path id="Vector_22" d="M176.931 148.021C176.889 148.021 176.846 148.021 176.825 148.021L138.429 141.248C138.069 141.184 137.836 140.846 137.9 140.507C137.963 140.147 138.302 139.914 138.641 139.978L177.037 146.751C177.397 146.814 177.629 147.153 177.566 147.492C177.502 147.809 177.227 148.021 176.931 148.021Z" fill="#C0EFDE"/>
<path id="Vector_23" d="M130.957 139.872C130.915 139.872 130.873 139.872 130.851 139.872L57.3612 126.643C57.0014 126.579 56.7686 126.241 56.8321 125.881C56.8956 125.521 57.2342 125.288 57.5941 125.352L131.084 138.581C131.444 138.644 131.677 138.983 131.613 139.343C131.55 139.66 131.275 139.872 130.978 139.872H130.957Z" fill="#C0EFDE"/>
<path id="Vector_24" d="M51.7521 125.627C51.7098 125.627 51.6674 125.627 51.6463 125.627L40.4492 123.616C40.0894 123.553 39.8565 123.214 39.92 122.854C39.9835 122.494 40.3222 122.261 40.682 122.325L51.8791 124.336C52.2389 124.399 52.4718 124.738 52.4083 125.098C52.3448 125.415 52.0696 125.627 51.7733 125.627H51.7521Z" fill="#C0EFDE"/>
</g>
<g id="Group_6">
<path id="Vector_25" d="M141.159 128.145L124.819 125.859L124.184 119.234C125.708 119.531 127.19 119.891 128.65 120.314C131.867 121.245 133.899 122.113 135.868 122.981C137.9 123.87 139.212 124.547 139.995 125.14C140.673 125.627 140.905 126.008 141.054 126.41C141.244 126.939 141.286 127.532 141.159 128.167V128.145Z" fill="#FE7C3F"/>
<path id="Vector_26" d="M142.281 125.965C142.027 125.225 141.562 124.674 140.778 124.082C139.911 123.447 138.514 122.706 136.397 121.796C134.407 120.928 132.333 120.018 129.031 119.065C127.232 118.557 125.454 118.134 123.591 117.795C123.401 117.753 123.189 117.816 123.041 117.964C122.893 118.091 122.808 118.303 122.829 118.494L123.591 126.495C123.612 126.791 123.845 127.045 124.142 127.087L141.562 129.543C141.604 129.543 141.625 129.543 141.667 129.543C141.943 129.543 142.197 129.352 142.281 129.077C142.599 127.955 142.599 126.918 142.281 125.987V125.965ZM141.159 128.146L124.819 125.86L124.184 119.234C125.708 119.531 127.19 119.891 128.65 120.314C131.867 121.245 133.899 122.113 135.868 122.981C137.9 123.87 139.212 124.547 139.995 125.14C140.673 125.627 140.905 126.008 141.054 126.41C141.244 126.939 141.286 127.532 141.159 128.167V128.146Z" fill="#0C322C"/>
</g>
<path id="Vector_27" d="M95.4398 129.458L39.6449 119.87" stroke="#FE7C3F" stroke-width="6.1" stroke-linecap="round" stroke-linejoin="round"/>
<path id="Vector_28" d="M147.255 115.192C146.388 113.689 145.52 112.249 144.567 110.768L144.483 110.62C143.043 108.376 141.625 106.365 140.27 104.608C138.196 101.941 136.968 100.798 136.905 100.756C134.831 98.8299 132.672 96.8191 129.92 95.0199C129.835 94.9564 129.73 94.9141 129.603 94.9141C126.47 94.7024 121.75 95.0199 116.924 97.6445C114.638 98.8934 112.585 100.544 110.807 102.534C110.278 102.322 109.706 102.132 109.113 101.963C107.738 101.582 106.319 101.349 104.88 101.222C107.484 95.2951 112.119 93.0091 112.161 92.9668C114.045 92.0566 116.141 91.6333 118.427 91.6968H118.554C118.913 91.6968 119.21 91.4004 119.21 91.0406C119.21 90.6808 118.913 90.3844 118.554 90.3844H118.448C115.95 90.2998 113.664 90.7866 111.59 91.7814C111.378 91.8873 106.256 94.4061 103.483 101.137C103.377 101.137 103.271 101.137 103.166 101.137L99.5249 101.285C99.5249 101.285 99.5249 101.285 99.5038 101.285L85.6185 101.857L80.2422 102.09L68.6853 102.576L63.8805 102.767L60.6209 102.894L50.3975 103.317L46.778 103.465L39.539 103.762L30.0564 104.164C29.6966 104.164 29.4214 104.481 29.4426 104.841C29.4426 105.18 29.7389 105.455 30.0988 105.455C30.4586 105.455 30.0988 105.455 30.1199 105.455L38.5865 105.095C38.2902 105.878 38.0574 106.704 37.888 107.529C37.6975 108.439 37.6129 109.371 37.5917 110.281L31.6439 109.688C31.2841 109.667 30.9666 109.921 30.9243 110.26C30.8819 110.62 31.1571 110.937 31.4958 110.979L38.1632 111.636L45.0423 112.313L48.7465 112.673L58.8429 113.668L61.5522 113.943L61.2559 116.843L33.0197 112.884C32.6599 112.842 32.3424 113.075 32.2789 113.435C32.2366 113.795 32.4694 114.112 32.8293 114.176L61.1077 118.155L60.8749 120.462C60.8325 120.822 61.1077 121.139 61.4464 121.182C61.4675 121.182 61.4887 121.182 61.5099 121.182C61.8485 121.182 62.1237 120.928 62.1449 120.589L62.3777 118.345L82.5917 121.182C82.6129 121.182 82.6552 121.182 82.6764 121.182C82.9939 121.182 83.269 120.949 83.3114 120.631C83.3537 120.272 83.1209 119.954 82.761 119.891L62.5047 117.033L62.801 114.091L66.8438 114.493L78.2102 115.615L83.4172 116.144L97.4294 117.541C97.4294 117.541 97.4718 117.541 97.4929 117.541C97.6623 117.541 97.8104 117.478 97.9374 117.372C98.0644 117.245 98.1491 117.054 98.1491 116.864C98.0433 114.176 98.1914 111.424 98.5936 108.672C98.9111 106.598 99.3768 104.545 99.9906 102.513L102.933 102.386C102.319 104.058 101.684 106.683 101.197 112.715C100.943 116.038 100.795 119.213 100.774 122.409L85.7244 120.293C85.3645 120.25 85.047 120.483 84.9835 120.843C84.9412 121.203 85.174 121.52 85.5339 121.584L100.753 123.722C100.753 124.886 100.753 126.008 100.795 127.108V127.278C100.795 127.637 101.091 127.913 101.451 127.913C101.811 127.913 102.107 127.616 102.107 127.256V127.087C102.086 126.05 102.065 124.992 102.065 123.912L115.103 125.754L120.226 126.473C120.247 126.473 120.289 126.473 120.31 126.473C120.607 126.473 120.882 126.262 120.945 125.965C120.945 125.902 120.945 125.86 120.945 125.796C120.924 123.171 120.882 120.547 120.84 117.901C120.84 117.605 120.628 117.329 120.332 117.266C118.808 116.927 117.262 116.61 115.738 116.271C115.569 116.229 115.379 116.271 115.23 116.377C115.082 116.483 114.976 116.631 114.955 116.821C114.765 118.134 114.617 119.467 114.553 120.78C114.49 121.965 114.49 123.171 114.553 124.357L102.065 122.6C102.065 119.383 102.213 116.186 102.488 112.842C103.017 106.429 103.674 104.016 104.309 102.471C105.811 102.555 107.293 102.788 108.732 103.19C109.473 103.402 110.108 103.614 110.722 103.868C113.664 105.624 116.543 107.508 119.273 109.413C119.358 109.477 127.803 115.382 133.476 118.726C133.582 118.79 136.249 120.441 139.318 120.928C139.762 120.991 140.207 121.055 140.715 121.097H141.223C141.265 121.118 141.308 121.118 141.35 121.118C142.662 121.118 143.763 120.801 144.694 120.187C146.62 118.896 147.15 116.737 147.319 115.573C147.319 115.424 147.319 115.276 147.234 115.17L147.255 115.192ZM84.7084 103.444C84.4755 104.249 84.285 105.053 84.0945 105.857C84.0522 106.005 84.031 106.153 84.0099 106.28C83.8194 107.127 83.65 107.995 83.5019 108.863C83.3537 109.773 83.2267 110.704 83.142 111.614C83.142 111.72 83.1209 111.826 83.0997 111.932C83.015 112.8 82.9515 113.689 82.9092 114.578C82.9092 114.662 82.9092 114.747 82.9092 114.832L78.9934 114.451C78.9934 114.366 78.9934 114.303 78.9934 114.218C79.0357 113.392 79.0992 112.567 79.1839 111.72C79.1839 111.636 79.1839 111.551 79.2051 111.445C79.2897 110.577 79.4167 109.688 79.5437 108.82C79.6919 107.953 79.8612 107.085 80.0517 106.217C80.0517 106.153 80.0729 106.069 80.0941 106.005C80.2846 105.18 80.4962 104.354 80.7291 103.55C80.7291 103.487 80.7714 103.423 80.7714 103.36L84.7719 103.19C84.7507 103.275 84.7295 103.338 84.7084 103.423V103.444ZM64.3885 104.079L67.8387 103.931C67.5847 104.989 67.3518 106.026 67.1402 107.042C66.7592 109.074 66.484 111.149 66.3147 113.202L62.9069 112.863C62.9915 111.847 63.0762 110.831 63.2244 109.836C63.4995 107.889 63.8805 105.963 64.3885 104.079ZM61.9544 109.667C61.8062 110.683 61.7004 111.72 61.6157 112.736L59.6049 112.546C59.6684 112.017 59.7531 111.509 59.8166 110.979C59.8589 110.683 59.9012 110.387 59.9436 110.069C60.0917 109.117 60.2822 108.185 60.4727 107.254C60.6844 106.302 60.9172 105.328 61.15 104.354C61.15 104.312 61.1712 104.248 61.1924 104.206L63.0127 104.121C62.547 105.942 62.1872 107.804 61.9332 109.646L61.9544 109.667ZM46.5028 107.233C46.7145 106.407 46.9685 105.603 47.2436 104.799L49.5508 104.714C49.3391 105.54 49.1275 106.344 48.9581 107.148C48.6618 108.524 48.4078 109.963 48.2173 111.424L45.7832 111.191C45.9313 109.858 46.1642 108.545 46.5028 107.254V107.233Z" fill="#0C322C"/>
<g id="Group_7">
<path id="Vector_29" d="M34.2262 102.09C33.9087 102.09 33.6336 101.857 33.5912 101.539C33.5277 101.18 33.7817 100.862 34.1416 100.799L57.9116 97.1792C58.2714 97.1157 58.5889 97.3697 58.6524 97.7295C58.7159 98.0893 58.4619 98.4068 58.1021 98.4703L34.3321 102.09C34.2897 102.09 34.2686 102.09 34.2262 102.09Z" fill="#0C322C"/>
<path id="Vector_30" d="M140.842 133.628C140.524 133.628 140.249 133.416 140.207 133.099C140.143 132.739 140.376 132.4 140.736 132.358C143.234 131.913 145.414 131.003 147.277 129.585C148.293 128.823 149.563 127.849 150.028 126.241C150.303 125.267 150.219 124.336 150.176 123.976C150.071 123.066 149.732 122.452 149.584 122.177C149.224 121.457 148.991 120.928 148.779 120.399C148.441 119.552 148.06 118.663 147.107 117.097C140.567 106.344 136.609 99.8671 128.544 95.3798C125.962 93.9405 123.126 92.8399 120.12 92.099C117.559 91.5064 115.252 91.4005 114.109 91.4005C112.817 91.4005 111.505 91.4852 110.235 91.6757C109.875 91.718 109.558 91.4852 109.494 91.1254C109.452 90.7655 109.685 90.448 110.045 90.3845C111.378 90.194 112.712 90.1094 114.109 90.1094C115.315 90.1094 117.707 90.2152 120.416 90.829C123.549 91.6122 126.491 92.7552 129.158 94.2368C137.54 98.8935 141.773 105.857 148.208 116.419C149.224 118.091 149.605 119.023 149.965 119.912C150.176 120.441 150.388 120.928 150.706 121.563C150.896 121.923 151.298 122.685 151.446 123.806C151.51 124.357 151.595 125.436 151.256 126.6C150.684 128.632 149.16 129.797 148.06 130.622C146.049 132.146 143.657 133.162 140.969 133.628C140.927 133.628 140.884 133.628 140.863 133.628H140.842Z" fill="#0C322C"/>
<path id="Vector_31" d="M135.212 133.607C135.169 133.607 135.148 133.607 135.106 133.607L36.3429 117.118C35.9831 117.054 35.7502 116.716 35.8137 116.377C35.8772 116.017 36.1947 115.784 36.5546 115.848L135.317 132.337C135.677 132.4 135.91 132.739 135.847 133.077C135.804 133.395 135.529 133.628 135.212 133.628V133.607Z" fill="#0C322C"/>
</g>
</g>
<g id="Group_8">
<g id="Group_9">
<path id="Vector_32" d="M9.01693 74.9117C8.7206 74.573 8.31843 74.3402 7.81044 74.2132C7.42944 74.1074 7.06961 74.1074 6.79445 74.192C6.51928 74.2767 6.26528 74.4037 6.03245 74.5942C5.82079 74.7847 5.63029 75.0175 5.46096 75.2715C5.29162 75.5255 5.14346 75.7795 4.99529 76.0547C4.84713 76.3299 4.72013 76.5627 4.59313 76.7744C4.46613 76.986 4.31796 77.1554 4.14863 77.2612C3.9793 77.367 3.7888 77.4094 3.57714 77.3459C3.30197 77.2824 3.11147 77.113 2.98447 76.8379C2.87864 76.5627 2.85748 76.2452 2.94214 75.8854C3.00564 75.589 3.13264 75.3562 3.30197 75.1445C3.4713 74.9329 3.70414 74.7424 4.00047 74.573L3.25964 73.3242C2.89981 73.5147 2.56114 73.8111 2.26481 74.2132C1.96848 74.5942 1.77798 75.0599 1.65098 75.589C1.50282 76.1605 1.48165 76.6685 1.58748 77.1342C1.67215 77.5999 1.86265 78.002 2.15898 78.3195C2.45531 78.637 2.83631 78.8487 3.32314 78.9757C3.70414 79.0603 4.02163 79.0815 4.31796 78.9757C4.59313 78.891 4.84713 78.764 5.05879 78.5735C5.27046 78.383 5.46096 78.1502 5.63029 77.9174C5.79962 77.6634 5.94779 77.4094 6.09595 77.1554C6.24412 76.9014 6.39228 76.6685 6.54045 76.4569C6.68861 76.2452 6.85795 76.097 7.02728 75.9912C7.19661 75.8854 7.40827 75.8642 7.64111 75.9277C7.91627 75.9912 8.10677 76.1605 8.23377 76.4357C8.36077 76.7109 8.36077 77.0284 8.2761 77.4305C8.19143 77.748 8.06444 78.0232 7.85277 78.2772C7.66227 78.5312 7.36594 78.7852 6.98494 79.018L7.68344 80.2457C8.10677 80.0128 8.48777 79.6953 8.80526 79.3143C9.12276 78.9122 9.37676 78.4254 9.52493 77.8115C9.67309 77.2189 9.69426 76.6897 9.60959 76.1817C9.52493 75.6949 9.31326 75.2715 9.01693 74.9329V74.9117Z" fill="#0C322C"/>
<path id="Vector_33" d="M11.2817 63.5874L6.54045 61.7036L5.92662 63.2488L10.5409 65.0903C11.0489 65.2808 11.3452 65.5771 11.4722 65.9369C11.5992 66.2967 11.5781 66.6989 11.3876 67.1434C11.2182 67.5879 10.9643 67.8842 10.6256 68.0747C10.2869 68.2441 9.86359 68.2441 9.37676 68.0324L4.76246 66.1909L4.14864 67.7361L8.88993 69.6199C9.80009 69.9797 10.5833 69.9797 11.2394 69.6199C11.8956 69.2601 12.4036 68.6039 12.7634 67.7149C12.9962 67.1011 13.1232 66.5507 13.1021 66.0216C13.1021 65.4924 12.9327 65.0268 12.6364 64.6246C12.3401 64.2224 11.8744 63.8838 11.2817 63.6509V63.5874Z" fill="#0C322C"/>
<path id="Vector_34" d="M16.5945 54.4438C16.2347 54.2533 15.9172 54.1475 15.6209 54.1475C15.3245 54.1475 15.0494 54.211 14.7954 54.338C14.5414 54.465 14.2874 54.6343 14.0757 54.8248C13.8429 55.0365 13.6312 55.227 13.4196 55.4598C13.2079 55.6715 13.0174 55.862 12.8269 56.0313C12.6364 56.2006 12.4459 56.3065 12.2554 56.3699C12.0649 56.4334 11.8744 56.4123 11.6839 56.2853C11.4299 56.1371 11.3029 55.9255 11.2606 55.6503C11.2182 55.354 11.3029 55.0576 11.4934 54.719C11.6416 54.465 11.8321 54.2533 12.0437 54.1051C12.2554 53.957 12.5517 53.83 12.8692 53.7453L12.5094 52.3271C12.1072 52.4118 11.7051 52.6023 11.3241 52.8986C10.9431 53.195 10.6044 53.576 10.3504 54.0416C10.0541 54.5496 9.88475 55.0365 9.84242 55.5021C9.80009 55.989 9.86359 56.4123 10.0753 56.7933C10.2657 57.1743 10.5832 57.4918 11.0066 57.7458C11.3452 57.9363 11.6627 58.0421 11.9591 58.0421C12.2554 58.0421 12.5306 57.9786 12.7846 57.8516C13.0386 57.7246 13.2926 57.5553 13.5042 57.3648C13.7371 57.1743 13.9487 56.9626 14.1604 56.7721C14.3721 56.5605 14.5837 56.3911 14.7742 56.2218C14.9647 56.0736 15.1764 55.9466 15.3669 55.9043C15.5574 55.862 15.769 55.9043 15.9807 56.0101C16.2135 56.1371 16.3617 56.37 16.404 56.6451C16.4464 56.9414 16.3617 57.2589 16.1712 57.6188C16.0019 57.8939 15.7902 58.1268 15.5362 58.3173C15.2822 58.5078 14.9224 58.6559 14.4991 58.7829L14.8377 60.1376C15.3034 60.0318 15.769 59.8413 16.1712 59.5449C16.5734 59.2486 16.9544 58.8464 17.2719 58.3173C17.5682 57.7881 17.7375 57.2801 17.801 56.7721C17.8645 56.2641 17.7799 55.8196 17.5682 55.3963C17.3777 54.9941 17.0602 54.6555 16.6157 54.4015L16.5945 54.4438Z" fill="#0C322C"/>
<path id="Vector_35" d="M21.1453 49.5119C21.0818 49.5965 21.0183 49.6389 20.9337 49.6389C20.849 49.6389 20.7643 49.6389 20.7008 49.5754L19.5155 48.6652L21.6957 45.8077L20.6162 44.9822L18.436 47.8397L17.2719 46.9507C17.2084 46.8872 17.166 46.8237 17.1449 46.739C17.1237 46.6544 17.1449 46.5697 17.2084 46.485L19.325 43.6911L18.182 42.8232L15.7267 46.0617C15.4727 46.3792 15.3881 46.7179 15.4304 47.0989C15.4727 47.4587 15.6421 47.755 15.9384 47.9879L20.0447 51.1205C20.341 51.3533 20.6797 51.438 21.0395 51.3745C21.3993 51.311 21.6957 51.1205 21.9497 50.803L24.405 47.5645L23.262 46.6967L21.1453 49.4907V49.5119Z" fill="#0C322C"/>
<path id="Vector_36" d="M30.5644 30.5676L32.5541 32.9171L29.8236 35.2242L27.834 32.8536L26.564 33.9331L31.6228 39.9232L32.8927 38.8649L30.7549 36.3249L33.4642 34.0177L35.6232 36.5577L36.8721 35.4994L31.8344 29.5093L30.5644 30.5676Z" fill="#0C322C"/>
<path id="Vector_37" d="M43.7512 28.7899L42.7987 27.2659C42.5658 26.8849 42.2695 26.6309 41.9309 26.4827C41.5922 26.3346 41.2112 26.2922 40.8302 26.3557C40.428 26.4192 40.047 26.5886 39.6237 26.8426C39.2215 27.0966 38.8617 27.414 38.5654 27.795C38.269 28.176 38.0997 28.5359 38.015 28.8957L39.1369 29.3825C39.2427 29.1074 39.3909 28.8322 39.5814 28.5782C39.7719 28.3242 40.0047 28.1337 40.2164 27.9855C40.4704 27.8374 40.7032 27.7527 40.936 27.7739C41.1689 27.7739 41.3594 27.922 41.5287 28.176L41.7827 28.557C41.444 28.5994 41.0842 28.7475 40.682 29.0015C40.2587 29.2767 39.9412 29.5519 39.7084 29.8694C39.4755 30.1869 39.3697 30.4832 39.3697 30.8007C39.3697 31.1182 39.4332 31.3934 39.6025 31.6685C39.8565 32.0707 40.2375 32.3035 40.7244 32.367C41.2112 32.4093 41.7192 32.2612 42.2695 31.9225C42.7987 31.5839 43.1162 31.2029 43.2008 30.8007C43.222 30.6949 43.2432 30.589 43.222 30.4832L43.5395 30.97L44.7037 30.2292C44.5343 29.9964 44.365 29.7424 44.2168 29.5095C44.0687 29.2767 43.8993 29.0227 43.7512 28.7899ZM42.5447 30.2715C42.46 30.462 42.2907 30.6525 42.0367 30.8007C41.7827 30.9489 41.571 31.0335 41.3382 31.0335C41.1265 31.0335 40.9572 30.9489 40.8725 30.8007C40.7667 30.6525 40.7667 30.4832 40.8725 30.2715C40.9572 30.081 41.1265 29.8905 41.3805 29.7424C41.6345 29.573 41.8674 29.5095 42.079 29.5095C42.2907 29.5095 42.4388 29.5942 42.5447 29.7424C42.6505 29.8905 42.6505 30.081 42.5447 30.2715Z" fill="#0C322C"/>
<path id="Vector_38" d="M51.1806 25.3609C51.0324 25.509 50.8631 25.636 50.6726 25.7207C50.4186 25.8477 50.1858 25.89 49.9106 25.89C49.6566 25.89 49.4238 25.8054 49.2121 25.6784C49.0005 25.5514 48.8311 25.3397 48.7041 25.0645L48.6406 24.9587C48.5136 24.7047 48.4713 24.4295 48.4925 24.1967C48.5136 23.9427 48.5983 23.7099 48.7465 23.5194C48.8946 23.3077 49.1063 23.1596 49.3391 23.0326C49.5508 22.9267 49.7625 22.8844 49.9741 22.8632C50.1858 22.8632 50.3975 22.8844 50.588 22.9691L51.0536 21.7414C50.7149 21.5721 50.3551 21.4874 49.953 21.5086C49.5508 21.5297 49.1486 21.6144 48.7676 21.8049C48.2385 22.0589 47.8363 22.3764 47.54 22.7786C47.2436 23.1807 47.0531 23.6252 46.9896 24.1332C46.9261 24.62 47.032 25.128 47.2648 25.6149L47.3283 25.7207C47.5611 26.2075 47.8998 26.5885 48.302 26.8637C48.7253 27.1389 49.191 27.2659 49.699 27.3082C50.207 27.3082 50.715 27.2235 51.2441 26.9695C51.6251 26.779 51.9638 26.525 52.2178 26.2075C52.4929 25.89 52.6623 25.5514 52.7469 25.1915L51.5193 24.7894C51.4346 25.0222 51.3288 25.2127 51.1594 25.3609H51.1806Z" fill="#0C322C"/>
<path id="Vector_39" d="M60.3245 17.4658L58.5254 18.0585L57.3612 20.5985L55.8584 16.1323L54.3768 16.6192L57.0014 24.3661L58.4619 23.8793L57.9962 22.4823L58.3984 21.5933L60.3457 23.2443L62.1449 22.6304L59.0757 20.154L60.3245 17.4658Z" fill="#0C322C"/>
<path id="Vector_40" d="M79.1627 17.2752L76.9614 12.0047L75.1411 12.1741L73.9558 17.762L72.0085 12.4492L70.3363 12.6186L73.3208 20.2173L75.0141 20.048L76.2418 14.0155L78.5489 19.7305L80.2422 19.5612L81.7662 11.5391L80.0941 11.7084L79.1627 17.2752Z" fill="#0C322C"/>
<path id="Vector_41" d="M90.1905 14.5656C89.7883 14.2693 89.3015 14.1 88.7088 14.0788C88.1585 14.0577 87.6505 14.1423 87.2272 14.3751C86.8039 14.608 86.4652 14.9043 86.2112 15.3276C85.9572 15.7298 85.809 16.1955 85.7879 16.7246V16.8305C85.7455 17.3808 85.8514 17.8888 86.063 18.3333C86.2747 18.7778 86.6134 19.1164 87.0367 19.3704C87.46 19.6244 87.968 19.7726 88.5395 19.8149C89.0052 19.8361 89.4285 19.7938 89.8095 19.6668C90.1905 19.5398 90.508 19.3493 90.7408 19.0741L89.9153 18.164C89.746 18.3121 89.5767 18.418 89.3862 18.4815C89.1957 18.545 88.9628 18.5873 88.6877 18.5661C88.3702 18.5661 88.1162 18.4815 87.9045 18.3545C87.6928 18.2275 87.5447 18.0581 87.4388 17.8465C87.3753 17.6983 87.333 17.5501 87.333 17.3596L91.0583 17.5713C91.1853 16.9151 91.1642 16.3225 91.016 15.8145C90.8678 15.3065 90.5715 14.9043 90.1693 14.608L90.1905 14.5656ZM87.9468 15.4335C88.1373 15.3065 88.3702 15.243 88.6665 15.2641C88.8993 15.2641 89.111 15.3488 89.2803 15.497C89.4497 15.6451 89.5555 15.8356 89.619 16.0896C89.6402 16.2166 89.6613 16.3436 89.6613 16.4918L87.3965 16.3648C87.4177 16.2378 87.46 16.1108 87.5023 16.005C87.6082 15.7721 87.7563 15.5816 87.9257 15.4546L87.9468 15.4335Z" fill="#0C322C"/>
<path id="Vector_42" d="M100.075 15.8994C99.7154 15.5607 99.2498 15.3491 98.6783 15.2432C98.1279 15.1374 97.6199 15.1797 97.1754 15.3491C96.7309 15.5184 96.3499 15.7936 96.0536 16.1746C95.7573 16.5556 95.5668 17.0001 95.4821 17.5081V17.6139C95.3763 18.1642 95.3974 18.6722 95.5668 19.1379C95.7361 19.6035 96.0113 19.9845 96.3923 20.2809C96.7733 20.5984 97.2601 20.7889 97.8316 20.8947C98.2973 20.9794 98.7206 20.9794 99.1016 20.8947C99.5038 20.81 99.8212 20.6619 100.096 20.4079L99.3768 19.3919C99.2074 19.5189 99.0169 19.6035 98.8264 19.6459C98.6359 19.6882 98.4031 19.6882 98.1068 19.6459C97.7893 19.5824 97.5353 19.4977 97.3448 19.3284C97.1543 19.1802 97.0273 18.9897 96.9426 18.7569C96.9003 18.6087 96.8791 18.4394 96.8791 18.2701L100.562 18.9051C100.774 18.2489 100.816 17.6774 100.731 17.1482C100.626 16.6191 100.393 16.1957 100.033 15.8571L100.075 15.8994ZM97.2601 16.9789C97.3871 16.7672 97.5564 16.5979 97.7469 16.4709C97.9374 16.3439 98.1914 16.3227 98.4666 16.3862C98.6994 16.4286 98.8899 16.5344 99.0381 16.6826C99.1863 16.8519 99.2709 17.0424 99.3133 17.2964C99.3133 17.4234 99.3133 17.5504 99.3133 17.6986L97.0908 17.3176C97.1331 17.1906 97.1754 17.0847 97.2389 16.9789H97.2601Z" fill="#0C322C"/>
<path id="Vector_43" d="M109.389 17.9946L106.976 19.3704L108.351 14.862L106.87 14.4175L104.499 22.2279L105.981 22.6724L106.404 21.2754L107.251 20.7886L107.865 23.2651L109.685 23.8154L108.627 20.0054L111.209 18.545L109.389 17.9946Z" fill="#0C322C"/>
<path id="Vector_44" d="M125.877 22.8208C125.623 22.461 125.263 22.1435 124.777 21.8895C124.269 21.6143 123.739 21.4662 123.21 21.4873C122.681 21.4873 122.152 21.6355 121.665 21.8895L122.11 23.2653C122.491 23.096 122.829 22.9902 123.126 22.969C123.422 22.9478 123.718 23.0113 124.015 23.1595C124.311 23.3288 124.501 23.5405 124.586 23.7945C124.671 24.0485 124.65 24.3237 124.501 24.5988C124.417 24.747 124.311 24.8952 124.184 25.001C124.057 25.128 123.888 25.2338 123.697 25.3185C123.507 25.4243 123.274 25.4878 122.999 25.5725L119.252 26.6096L118.702 27.6256L123.676 30.3349L124.353 29.0861L121.411 27.4775L123.57 26.8848C124.015 26.7578 124.396 26.6096 124.713 26.4615C125.031 26.3133 125.306 26.1228 125.517 25.9111C125.729 25.6995 125.92 25.4878 126.047 25.2338C126.258 24.8317 126.364 24.4083 126.322 23.985C126.279 23.5617 126.131 23.1807 125.877 22.7997V22.8208Z" fill="#0C322C"/>
<path id="Vector_45" d="M133.159 30.7158L132.037 32.2609L130.513 31.1391L135.169 28.6626L133.878 27.689L129.073 30.2078L128.311 31.2449L131.211 33.3828L130.216 34.7374L131.486 35.6687L132.481 34.2929L133.37 34.9491L134.175 33.8273L133.286 33.1923L134.428 31.6259L133.159 30.7158Z" fill="#0C322C"/>
</g>
<g id="Group_10">
<g id="Group_11">
<path id="Vector_46" d="M141.117 53.4064C140.821 53.4064 140.524 53.2794 140.334 53.0254C136.418 48.1359 131.867 43.7968 126.745 40.0926C126.301 39.7751 126.195 39.1402 126.533 38.6957C126.851 38.2512 127.486 38.1453 127.93 38.484C133.18 42.294 137.879 46.7813 141.9 51.7977C142.239 52.2211 142.175 52.8561 141.752 53.1947C141.562 53.3429 141.35 53.4064 141.138 53.4064H141.117Z" fill="#C0EFDE"/>
<path id="Vector_47" d="M34.9036 45.4688C34.6284 45.4688 34.3744 45.363 34.1627 45.1513C33.7817 44.7491 33.8029 44.1141 34.2262 43.7331C49.1063 29.9537 69.4473 22.9688 90 24.5774C100.16 25.3606 109.854 28.1334 118.765 32.79C119.252 33.044 119.443 33.6579 119.189 34.1447C118.935 34.6315 118.321 34.822 117.834 34.568C109.156 30.0384 99.7366 27.3503 89.8307 26.5671C69.8072 25.0008 50.0376 31.8164 35.5597 45.1936C35.3692 45.363 35.1152 45.4688 34.8824 45.4688H34.9036Z" fill="#C0EFDE"/>
<path id="Vector_48" d="M13.8641 104.291C13.3772 104.291 12.9539 103.931 12.8692 103.444C12.1496 98.5122 11.9802 93.4745 12.3612 88.4792C13.0809 79.1025 15.7055 70.1702 20.1505 61.8941C20.4045 61.4073 21.0183 61.2168 21.5052 61.4919C21.992 61.7459 22.1825 62.3598 21.9073 62.8466C17.5894 70.8687 15.0494 79.5681 14.3509 88.6486C13.9699 93.4957 14.1392 98.3852 14.8377 103.169C14.9224 103.719 14.5414 104.227 13.9911 104.312C13.9487 104.312 13.8852 104.312 13.8429 104.312L13.8641 104.291Z" fill="#C0EFDE"/>
<path id="Vector_49" d="M49.572 154.9C32.7023 145.798 20.0447 130.325 14.8377 112.439L16.7639 111.889C21.8227 129.267 34.1204 144.295 50.5245 153.143L49.572 154.9Z" fill="#C0EFDE"/>
<path id="Vector_50" d="M85.1317 163.811C83.1632 163.811 81.1947 163.726 79.2262 163.578C73.0033 163.091 66.8862 161.842 61.023 159.874C60.4939 159.704 60.2187 159.133 60.388 158.604C60.5574 158.075 61.1289 157.799 61.658 157.969C67.3518 159.895 73.3208 161.101 79.3744 161.567C81.7027 161.736 84.0522 161.821 86.3594 161.779C86.9097 161.779 87.3542 162.223 87.3542 162.752C87.3542 163.303 86.9309 163.768 86.3805 163.768C85.9572 163.768 85.5339 163.768 85.1105 163.768L85.1317 163.811Z" fill="#C0EFDE"/>
</g>
<g id="Group_12">
<path id="Vector_51" d="M141.985 67.9899C141.625 67.9899 141.265 67.7994 141.096 67.4395C131.19 48.2627 111.315 35.2876 89.2592 33.5731C82.6129 33.0651 76.0089 33.5519 69.5955 35.0124C69.0663 35.1394 68.516 34.8008 68.389 34.2504C68.262 33.7213 68.6007 33.1709 69.151 33.0439C75.7549 31.52 82.5917 31.0331 89.4073 31.5623C112.161 33.3191 132.651 46.7175 142.874 66.5082C143.128 66.995 142.937 67.6089 142.451 67.8629C142.302 67.9475 142.154 67.9687 141.985 67.9687V67.9899Z" fill="#FE7C3F"/>
<path id="Vector_52" d="M33.0198 131.426C32.7234 131.426 32.4271 131.299 32.2154 131.045C22.9233 118.916 18.436 103.994 19.6002 89.0293C21.1877 68.519 33.1891 50.1253 51.6886 39.7749C52.1754 39.4997 52.7893 39.669 53.0433 40.1559C53.3184 40.6427 53.1491 41.2565 52.6623 41.5105C34.7554 51.5223 23.135 69.3445 21.5898 89.1775C20.468 103.655 24.8071 118.07 33.8029 129.817C34.1416 130.262 34.0569 130.876 33.6124 131.214C33.4219 131.362 33.2103 131.426 32.9986 131.426H33.0198Z" fill="#FE7C3F"/>
<path id="Vector_53" d="M72.6858 155.64C72.6223 155.64 72.5588 155.64 72.4953 155.64C61.3829 153.566 50.9266 148.698 42.3119 141.543C41.8885 141.184 41.825 140.57 42.1849 140.125C42.5447 139.702 43.1585 139.638 43.603 139.998C51.9638 146.941 62.1025 151.661 72.8763 153.672C73.4266 153.778 73.7865 154.286 73.6806 154.836C73.596 155.323 73.1726 155.661 72.707 155.661L72.6858 155.64Z" fill="#FE7C3F"/>
</g>
<g id="Group_13">
<path id="Vector_54" d="M137.836 77.0915C137.434 77.0915 137.053 76.8375 136.905 76.4353C129.581 56.433 110.637 42.3996 88.6877 40.7063C70.9078 39.3304 53.4454 46.3154 41.9732 59.4386C41.6134 59.8619 40.9784 59.9043 40.555 59.5233C40.1317 59.1635 40.0894 58.5285 40.4704 58.1051C52.3448 44.5374 70.4421 37.2773 88.8358 38.7166C111.569 40.4734 131.169 55.0148 138.768 75.758C138.958 76.2872 138.683 76.8587 138.175 77.0492C138.069 77.0915 137.942 77.1127 137.836 77.1127V77.0915Z" fill="#0C322C"/>
<path id="Vector_55" d="M45.8467 134.22C45.6138 134.22 45.3598 134.135 45.1693 133.966C32.4694 122.388 25.929 106.153 27.2201 89.4315C27.58 84.9018 28.4901 80.4357 29.9718 76.1601C30.1411 75.6309 30.7126 75.3557 31.2418 75.5462C31.7709 75.7156 32.0461 76.2871 31.8556 76.8162C30.4374 80.9225 29.5484 85.2193 29.2098 89.5796C27.961 105.687 34.2686 121.308 46.5028 132.484C46.905 132.865 46.9473 133.479 46.5663 133.902C46.3758 134.114 46.1007 134.22 45.8255 134.22H45.8467Z" fill="#0C322C"/>
</g>
</g>
</g>
<g id="Group_14">
<g id="Group_15">
<path id="Vector_56" d="M125.158 74.8906C125.158 74.7847 125.136 74.6789 125.115 74.5942C125.158 74.7847 125.158 74.9964 125.179 75.2081V75.0176C125.179 74.9752 125.179 74.9329 125.179 74.8906H125.158ZM125.158 74.8906C125.158 74.7847 125.136 74.6789 125.115 74.5942C125.158 74.7847 125.158 74.9964 125.179 75.2081V75.0176C125.179 74.9752 125.179 74.9329 125.179 74.8906H125.158ZM125.158 74.8906C125.158 74.7847 125.136 74.6789 125.115 74.5942C125.158 74.7847 125.158 74.9964 125.179 75.2081V75.0176C125.179 74.9752 125.179 74.9329 125.179 74.8906H125.158ZM125.158 74.8906C125.158 74.7847 125.136 74.6789 125.115 74.5942C125.158 74.7847 125.158 74.9964 125.179 75.2081V75.0176C125.179 74.9752 125.179 74.9329 125.179 74.8906H125.158ZM125.158 74.8906C125.158 74.7847 125.136 74.6789 125.115 74.5942C125.158 74.7847 125.158 74.9964 125.179 75.2081V75.0176C125.179 74.9752 125.179 74.9329 125.179 74.8906H125.158ZM125.158 74.8906C125.158 74.7847 125.136 74.6789 125.115 74.5942C125.158 74.7847 125.158 74.9964 125.179 75.2081V75.0176C125.179 74.9752 125.179 74.9329 125.179 74.8906H125.158Z" fill="#0C322C"/>
<path id="Vector_57" d="M125.073 74.4249C125.073 74.3826 125.052 74.3614 125.031 74.3191C125.031 74.2768 125.031 74.2556 125.009 74.2344C125.009 74.1921 124.967 74.1286 124.946 74.0863C124.904 74.0228 124.882 73.9804 124.84 73.917C124.84 73.917 124.819 73.8746 124.798 73.8746C124.798 73.8746 124.777 73.8323 124.755 73.8323C124.713 73.7899 124.671 73.7265 124.628 73.6841C124.628 73.6841 124.628 73.6629 124.586 73.6418C124.586 73.6418 124.565 73.5995 124.544 73.5995C124.544 73.5995 124.523 73.5783 124.501 73.5571C124.459 73.5148 124.438 73.4936 124.396 73.4725C124.353 73.4513 124.332 73.4301 124.29 73.4089C124.247 73.3666 124.184 73.3454 124.12 73.3031C123.93 73.1973 123.718 73.1338 123.485 73.1126C123.443 73.1126 123.401 73.1126 123.358 73.1126C123.316 73.1126 123.358 73.1126 123.337 73.1126C123.295 73.1126 123.253 73.1126 123.21 73.1126C123.168 73.1126 123.147 73.1126 123.126 73.1126C123.083 73.1126 123.041 73.1126 122.999 73.1338C122.977 73.1338 122.935 73.1338 122.914 73.1338C122.512 71.6098 122.025 70.107 121.432 68.6465C121.432 68.6465 121.453 68.6465 121.475 68.6465C121.475 68.6465 121.475 68.6465 121.496 68.6465C123.422 69.9376 124.713 72.0966 125.073 74.3826V74.4249Z" fill="white"/>
<path id="Vector_58" d="M125.158 75.2507C125.263 76.7535 124.946 78.2563 124.142 79.5475C124.099 79.3358 124.099 79.1241 124.057 78.8913C123.951 78.2986 123.866 77.706 123.739 77.1133C123.803 77.1133 123.866 77.071 123.951 77.0498C123.951 77.0498 123.972 77.0498 123.993 77.0498C124.057 77.0286 124.12 77.0075 124.163 76.9651C124.226 76.9228 124.269 76.9016 124.332 76.8593C124.459 76.7746 124.565 76.6688 124.65 76.563H124.671C124.671 76.5418 124.671 76.5207 124.671 76.5207C124.671 76.5207 124.671 76.5206 124.671 76.4995C124.692 76.4783 124.713 76.4572 124.734 76.4148C124.734 76.3937 124.777 76.3725 124.798 76.3302C124.84 76.2667 124.882 76.2032 124.904 76.1397C124.925 76.0973 124.946 76.0762 124.946 76.0338C124.946 76.0338 124.946 76.0127 124.946 75.9915C124.946 75.9915 124.946 75.9844 124.946 75.9703V75.928C124.946 75.8857 124.988 75.8222 124.988 75.7798C124.988 75.7375 125.009 75.7163 125.009 75.674C125.031 75.6105 125.052 75.5682 125.052 75.5047C125.052 75.5047 125.052 75.4835 125.052 75.4623C125.052 75.3988 125.073 75.3142 125.073 75.2295L125.158 75.2507Z" fill="white"/>
</g>
<g id="Group_16">
<path id="Vector_59" d="M113.833 81.4521C112.161 81.4521 112.14 84.0345 113.833 84.0345C115.506 84.0345 115.527 81.4521 113.833 81.4521Z" fill="#30BA78"/>
<g id="Group_17">
<path id="Vector_60" d="M125.158 74.8906C125.158 74.7848 125.136 74.6789 125.115 74.5943C125.158 74.7848 125.158 74.9964 125.179 75.2081V75.0176C125.179 74.9753 125.179 74.9329 125.179 74.8906H125.158Z" fill="#0C322C"/>
<path id="Vector_61" d="M122.088 67.9689C122.088 67.9689 122.046 67.9689 122.046 67.9478C121.665 67.7149 121.263 67.5244 120.84 67.3763C120.48 66.5931 120.078 65.81 119.654 65.0691L119.421 64.7516L118.956 64.032C118.067 62.4868 116.733 61.0052 115.273 60.0103C109.791 55.5865 102.531 53.8721 95.6303 53.2582C91.016 52.8772 86.3805 52.8984 81.7662 53.6816C81.5334 53.7239 81.3217 53.8721 81.1947 54.0837C78.7606 58.5075 77.3213 63.4181 76.9191 68.4346C73.4478 65.5348 69.3415 70.7418 67.3307 73.4511C65.0447 76.6895 63.7112 80.4572 62.1025 83.992L59.0757 90.9346C59.0334 90.9769 58.9911 91.0404 58.9699 91.1039C56.6627 96.6707 49.6778 93.2629 47.6246 89.2625C46.9685 88.0136 46.6087 86.6166 46.524 85.1985C48.5983 85.6641 51.0324 86.2568 52.7893 84.9022C57.2766 81.1345 58.4196 72.5832 55.1176 67.7573C52.9798 64.921 48.683 63.905 45.5503 65.683C43.984 66.5508 42.841 67.9689 42.0155 69.4506C38.904 75.4407 39.0099 82.849 41.5287 89.0508C44.0687 95.5701 50.9478 99.5494 57.8692 99.0202C59.3297 98.7027 60.8537 98.5122 62.3777 98.2794C62.5682 99.1895 62.8434 100.079 63.1397 100.904C63.1397 101.095 63.182 102.153 63.182 102.153C63.182 102.513 63.2244 103.169 63.2455 103.529C63.3514 104.608 62.9915 107.042 64.579 107.063C65.1717 107.021 65.5527 106.407 65.7008 105.942C66.103 104.947 66.0818 104.1 66.5898 103.275C67.6058 101.476 70.2728 100.777 70.9925 98.5546C71.1195 98.1736 70.8866 97.7502 70.5691 97.6232C70.1458 97.4539 69.7013 97.4327 68.6642 97.6232C67.8175 97.7714 67.5212 97.9196 66.6322 98.0466C66.2723 98.0889 65.9972 98.1101 65.8067 98.1312C65.7432 98.0466 65.722 97.9407 65.722 97.8349C66.738 97.6867 72.8975 96.7554 73.7229 96.6496C73.7441 96.6496 73.7865 96.6496 73.8076 96.6496C74.6754 96.5226 75.5433 96.4167 76.3899 96.2897C77.0461 98.0042 77.9351 99.634 79.1204 101.052C79.1204 102.915 79.2686 104.778 79.7766 106.598C79.9671 107.423 80.1152 108.249 80.4116 109.053C80.7291 110.175 81.9144 111.424 83.0997 110.429C84.3697 108.926 83.7559 106.661 84.2427 104.947C85.1952 101.73 87.7775 99.2319 90.4657 97.3481C90.7197 97.1787 90.8678 96.9036 90.8678 96.5861C90.8678 96.0992 90.4445 95.6971 89.9577 95.6971C87.3542 95.7182 84.7295 96.4167 82.4436 97.6867C82.0414 97.0941 81.6392 96.4167 81.2371 95.7606C86.5499 95.0621 105.155 92.6068 105.155 92.6068C105.684 92.5433 106.489 92.4374 107.399 92.3104L111.95 91.8236C112.14 91.7813 112.309 91.7389 112.436 91.6543C113.325 91.5273 114.109 91.4426 114.617 91.3791C120.755 90.8711 124.48 86.3838 124.205 80.6265C127.825 77.1552 126.364 70.1703 122.046 67.9689H122.088ZM125.115 74.5941C125.136 74.6999 125.158 74.7846 125.158 74.8904C125.158 74.9327 125.158 74.9751 125.158 75.0174C125.158 75.0809 125.158 75.1444 125.158 75.2079C125.158 74.9962 125.115 74.7846 125.094 74.5941C125.094 74.5729 125.094 74.5517 125.094 74.5306C125.094 74.5306 125.094 74.5729 125.094 74.5941H125.115ZM114.405 89.1566C114.405 89.1566 113.029 89.3471 112.119 89.4741C111.992 89.4318 111.844 89.4318 111.696 89.453L97.8104 91.4849C95.3763 91.8236 92.8575 92.1834 90.4868 92.5221C85.1105 92.7973 80.4116 88.4158 80.6232 82.8278C80.6444 82.1928 79.7131 82.1505 79.6496 82.7855C79.3109 87.3998 82.0414 91.4003 85.936 93.1783C83.0574 93.5804 80.7502 93.8979 79.6072 94.0673C78.9511 94.1308 78.5489 94.9139 78.9087 95.4854L80.1152 97.5174C80.4751 98.1101 81.0254 98.8932 81.4276 99.507C82.2742 100.608 83.4807 99.0625 84.3909 98.8085C85.2164 98.4064 86.0842 98.1101 86.9732 97.8984C85.7032 99.1049 84.5602 100.46 83.65 101.984C83.1844 102.724 82.9092 103.571 82.6552 104.375C82.2319 105.793 82.4436 107.423 82.1261 108.757C81.6392 107.783 81.5334 106.471 81.2159 105.455C80.8561 103.931 80.7926 102.365 80.7714 100.798C80.7714 100.608 80.7079 100.396 80.5809 100.248C79.2897 98.7662 78.3584 97.0306 77.7023 95.1679C77.5753 94.8081 77.2154 94.5752 76.8133 94.6387L73.7441 95.1044H73.7229C72.453 95.2949 71.2041 95.4854 69.9341 95.6971C69.8283 95.6971 69.7436 95.7182 69.659 95.7394C68.2832 95.9511 66.9073 96.1627 65.5315 96.3744C65.3198 96.4167 65.1082 96.4379 64.8965 96.4802C64.5155 96.5226 64.2192 96.8612 64.2404 97.2422C64.2404 97.4962 64.1769 97.8772 64.2827 98.4276C64.2827 98.4276 64.2827 98.4487 64.2827 98.491C64.3885 98.7027 64.7483 99.4435 65.5315 99.6764C65.5315 99.6764 65.5315 99.6764 65.5527 99.6764C65.6162 99.6764 65.6585 99.6764 65.722 99.7187C65.722 99.7187 65.722 99.7187 65.7432 99.7187C65.8702 99.7187 65.9972 99.7187 66.1453 99.7187H66.2512C66.611 99.6552 67.0767 99.507 67.9868 99.3377C68.0503 99.3377 68.1138 99.3377 68.1773 99.3165C68.2197 99.3165 68.2832 99.3165 68.3467 99.2954C68.4102 99.2954 68.4525 99.2742 68.516 99.253C68.6853 99.2319 68.8123 99.2107 68.897 99.1895C67.7117 100.438 65.8278 101.306 65.1293 103.042C64.9177 103.465 64.8118 103.91 64.706 104.354C64.6425 103.19 64.6425 101.793 64.579 100.798C64.2615 99.6552 63.7959 98.5545 63.6689 97.4327C63.6054 97.0517 63.2455 96.7977 62.8645 96.8612C61.3405 97.1364 58.9911 97.4116 57.8057 97.7291C51.4134 98.2582 45.0847 94.6388 42.6928 88.6275C40.301 82.849 40.1317 75.7371 43.0527 70.0856C43.7935 68.7309 44.8095 67.4821 46.1218 66.7413C48.683 65.2173 52.4929 66.0851 54.2498 68.4769C56.8321 72.3504 56.2182 77.9807 53.9746 81.9177C53.2338 83.103 52.1754 84.5 50.7361 84.6482C49.3603 84.8387 47.6035 84.3307 46.2065 84.0555C41.4652 82.4045 43.9417 72.4986 46.5663 69.7681C47.9421 68.5404 48.9581 71.7577 49.2121 72.7737C49.826 75.4196 49.5085 78.3829 47.8363 80.5419C47.2225 81.3038 46.8838 81.4097 46.5028 80.4149C45.7832 78.1289 45.889 75.3137 47.0955 73.1971C47.2013 73.8956 47.1801 74.6152 47.159 75.3137C47.159 75.8006 47.8998 75.8217 47.921 75.3349C47.921 74.4671 47.9845 73.5992 47.794 72.7314C47.7305 72.6044 47.7516 72.4139 47.4341 72.1811C47.1801 72.0329 46.8415 72.2022 46.6721 72.3927C45.0423 74.7846 44.8942 77.9595 45.7197 80.69C45.9525 81.2403 46.2277 81.8753 46.9685 81.9812C47.6881 81.9812 48.0903 81.5155 48.4713 81.071C50.3551 78.6792 50.7361 75.4407 50.08 72.5621C46.6087 60.5183 40.174 78.7004 43.4337 83.0395C43.603 83.4628 44.5555 84.4577 45.3598 84.8598C45.4022 86.5955 45.7832 88.3311 46.6086 89.8975C48.7041 93.7498 54.4191 97.3269 58.3984 94.0038C58.8852 93.5804 59.2662 93.0724 59.6049 92.5221C59.9859 93.0089 60.3669 93.4958 60.896 93.8979C63.2879 95.4007 62.8434 91.2521 62.9492 89.9821C63.0339 88.2041 63.2455 86.405 63.5842 84.6482C64.8965 86.7436 67.3095 89.9609 68.2832 87.9501C68.5372 86.5743 67.9445 85.135 67.8598 83.8015C67.5212 81.2403 67.9022 77.9384 68.6007 75.4196C69.2568 77.642 70.3363 79.7375 71.8603 81.5367C72.3471 82.1082 73.2785 82.7855 74.0193 82.1928C74.4638 81.7483 74.4214 81.4308 74.4638 80.9864C74.3368 77.8325 74.6119 74.7422 75.4586 71.7154C75.6068 71.1651 75.8184 70.5089 76.0089 69.9586C76.2629 70.1914 76.5169 70.4454 76.7074 70.7206C76.8344 72.4562 77.0249 74.6787 77.2789 76.2662C77.3213 76.6684 77.9139 76.6261 77.9351 76.2451C77.9774 75.2291 77.9351 74.2342 78.0409 73.2394C78.0409 73.2394 78.1468 71.8001 78.2314 70.9746C78.2737 70.8899 78.3161 70.7841 78.3161 70.6783C78.4431 67.8843 78.7817 65.2385 79.5649 62.5503C80.2634 60.0315 81.2159 57.5974 82.4647 55.3325C92.54 53.9567 105.96 55.142 114.024 61.746C115.781 62.9102 116.776 64.6246 117.855 66.4026C120.056 70.4243 121.094 74.8269 121.729 79.3777C122.702 84.6905 119.887 88.7545 114.426 89.2625L114.405 89.1566ZM123.337 73.0701C123.337 73.0701 123.337 73.0701 123.316 73.0701C123.274 73.0701 123.231 73.0701 123.189 73.0701C123.147 73.0701 123.126 73.0701 123.104 73.0701C123.062 73.0701 123.02 73.0701 122.977 73.0912C122.956 73.0912 122.914 73.0912 122.893 73.0912C122.491 71.5672 122.004 70.0644 121.411 68.6039H121.432C121.432 68.6039 121.453 68.6251 121.475 68.6463C121.496 68.6674 121.475 68.6463 121.496 68.6463C123.422 69.9374 124.713 72.0964 125.073 74.3824C125.073 74.3401 125.052 74.3189 125.031 74.2766C125.031 74.2342 125.031 74.2131 125.009 74.1919C125.009 74.1496 124.967 74.0861 124.946 74.0437C124.904 73.9802 124.882 73.9379 124.84 73.8744C124.84 73.8744 124.819 73.8321 124.798 73.8321C124.798 73.8321 124.777 73.7897 124.755 73.7897C124.713 73.7474 124.671 73.6839 124.628 73.6416C124.628 73.6416 124.628 73.6204 124.586 73.5992C124.586 73.5992 124.565 73.5569 124.544 73.5569C124.544 73.5569 124.523 73.5357 124.501 73.5146C124.459 73.4722 124.438 73.4511 124.396 73.4299C124.353 73.4087 124.332 73.3876 124.29 73.3664C124.247 73.3241 124.184 73.3029 124.12 73.2606C123.93 73.1547 123.718 73.0912 123.485 73.0701C123.443 73.0701 123.401 73.0701 123.358 73.0701H123.337ZM124.057 78.8909C123.951 78.2982 123.866 77.7055 123.739 77.1129C123.803 77.1129 123.866 77.0705 123.951 77.0494C123.951 77.0494 123.972 77.0494 123.993 77.0494C124.057 77.0282 124.12 77.007 124.163 76.9647C124.226 76.9224 124.269 76.9012 124.332 76.8589C124.459 76.7742 124.565 76.6684 124.65 76.5626H124.671C124.671 76.5414 124.671 76.5202 124.671 76.5202C124.671 76.5202 124.671 76.5202 124.671 76.499C124.692 76.4779 124.713 76.4567 124.734 76.4144C124.734 76.3932 124.777 76.3721 124.798 76.3297C124.84 76.2662 124.882 76.2027 124.904 76.1392C124.925 76.0969 124.946 76.0757 124.946 76.0334C124.946 76.0334 124.946 76.0122 124.946 75.9911C124.946 75.9911 124.946 75.984 124.946 75.9699V75.9276C124.946 75.8852 124.988 75.8217 124.988 75.7794C124.988 75.7371 125.009 75.7159 125.009 75.6736C125.009 75.6312 125.031 75.5677 125.052 75.5042C125.052 75.5042 125.052 75.4831 125.052 75.4619C125.052 75.3984 125.073 75.3137 125.073 75.2291C125.179 76.7319 124.861 78.2347 124.057 79.5259C124.015 79.3142 124.015 79.1025 123.972 78.8697L124.057 78.8909Z" fill="#0C322C"/>
<path id="Vector_62" d="M121.707 79.2717C121.094 74.7209 120.056 70.3183 117.834 66.2967C116.754 64.5399 115.76 62.8254 114.003 61.64C105.938 55.0573 92.4976 53.8508 82.4436 55.2266C81.1947 57.5126 80.2422 59.9256 79.5437 62.4444C78.7606 65.1325 78.4219 67.7783 78.2949 70.5723C78.2949 70.6993 78.2526 70.784 78.2102 70.8686C78.1467 71.6941 78.0198 73.1335 78.0198 73.1335C77.9351 74.1283 77.9563 75.1231 77.9139 76.1391C77.9139 76.5413 77.3001 76.5624 77.2578 76.1603C77.0038 74.5939 76.8133 72.3503 76.6863 70.6146C76.4958 70.3606 76.2206 70.0855 75.9878 69.8526C75.7761 70.403 75.5856 71.0591 75.4374 71.6095C74.5908 74.6363 74.3156 77.7266 74.4426 80.8804C74.4003 81.3249 74.4426 81.6424 73.9981 82.0869C73.2361 82.6795 72.326 82.0022 71.8391 81.4307C70.3151 79.6316 69.2356 77.5573 68.5795 75.3136C67.881 77.8113 67.5 81.1344 67.8387 83.6955C67.9445 85.029 68.516 86.4472 68.262 87.8442C67.2883 89.855 64.8965 86.6165 63.563 84.5422C63.2244 86.299 63.0127 88.077 62.928 89.8762C62.8222 91.1462 63.2879 95.2948 60.8749 93.792C60.3457 93.3898 59.9647 92.903 59.5837 92.4161C59.2662 92.9453 58.8641 93.4533 58.3772 93.8978C54.4191 97.2209 48.683 93.6438 46.5875 89.7915C45.762 88.2463 45.381 86.4895 45.3387 84.7539C44.5132 84.3305 43.5607 83.3569 43.4125 82.9335C40.1317 78.5944 46.5875 60.4124 50.0588 72.4561C50.715 75.3348 50.334 78.5732 48.4501 80.9651C48.048 81.4307 47.667 81.8752 46.9473 81.8752C46.2065 81.7694 45.9313 81.1556 45.6985 80.5841C44.873 77.8536 45.0212 74.6574 46.651 72.2868C46.7991 72.0963 47.1378 71.927 47.413 72.0751C47.7516 72.308 47.7305 72.4773 47.7728 72.6255C47.9633 73.4721 47.8998 74.3611 47.8998 75.2289C47.8786 75.7158 47.1378 75.6946 47.1378 75.2078C47.1378 74.5093 47.1801 73.7684 47.0743 73.0911C45.8467 75.2078 45.7408 78.0441 46.4817 80.3089C46.8626 81.3037 47.1801 81.1979 47.8151 80.4359C49.4873 78.2769 49.8048 75.3136 49.191 72.6678C48.937 71.6518 47.9421 68.4345 46.5451 69.6621C43.8993 72.4138 41.4229 82.2986 46.1853 83.9495C47.6035 84.2247 49.3603 84.7327 50.715 84.5422C52.1543 84.4152 53.2126 83.0182 53.9534 81.8117C56.2182 77.8748 56.8109 72.2656 54.2286 68.371C52.4506 65.9792 48.6618 65.1113 46.1007 66.6353C44.7883 67.355 43.7723 68.6038 43.0315 69.9796C40.1317 75.6099 40.2799 82.7219 42.6717 88.5215C45.0635 94.554 51.3923 98.1523 57.7846 97.6231C58.9699 97.3056 61.3194 97.0304 62.8434 96.7553C63.2244 96.6918 63.5842 96.9458 63.6477 97.3268C63.7747 98.4486 64.2404 99.5493 64.5578 100.692C64.6213 101.687 64.6425 103.084 64.6848 104.248C64.7907 103.804 64.8965 103.359 65.1082 102.936C65.8067 101.2 67.6905 100.332 68.8758 99.0836C68.7912 99.0836 68.6642 99.1259 68.4948 99.1471C68.4313 99.1471 68.3678 99.1471 68.3255 99.1894C68.262 99.1894 68.2197 99.1894 68.1562 99.2106C68.0927 99.2106 68.0292 99.2106 67.9657 99.2318C67.0767 99.4011 66.5898 99.5281 66.23 99.6128H66.1242C65.9972 99.6128 65.849 99.6128 65.722 99.6128C65.722 99.6128 65.722 99.6128 65.7008 99.6128C65.6373 99.6128 65.595 99.5916 65.5315 99.5704C65.5315 99.5704 65.5315 99.5704 65.5103 99.5704C64.7272 99.3164 64.3674 98.5968 64.2615 98.3851C64.2615 98.3428 64.2615 98.3428 64.2615 98.3216C64.1557 97.7713 64.2404 97.3903 64.2192 97.1363C64.198 96.7553 64.4943 96.4166 64.8753 96.3743C65.087 96.3319 65.2987 96.3108 65.5103 96.2684C66.8862 96.0568 68.262 95.8451 69.6378 95.6335C69.7436 95.6335 69.8283 95.5911 69.913 95.5911C71.183 95.4006 72.4318 95.189 73.7018 94.9985H73.7229L76.7921 94.5328C77.1943 94.4693 77.5541 94.7021 77.6811 95.062C78.3372 96.9246 79.2897 98.6603 80.5597 100.142C80.7079 100.311 80.7502 100.502 80.7502 100.692C80.7714 102.259 80.8349 103.825 81.1947 105.349C81.5122 106.365 81.6181 107.698 82.1049 108.651C82.4224 107.317 82.2107 105.688 82.634 104.269C82.888 103.465 83.1632 102.618 83.6289 101.878C84.539 100.375 85.682 98.9989 86.952 97.7924C86.063 98.0041 85.174 98.3004 84.3697 98.7026C83.4595 98.9566 82.2531 100.502 81.4064 99.4011C81.0042 98.8084 80.4539 98.0253 80.0941 97.4114L78.8876 95.3795C78.5277 94.808 78.9299 94.0248 79.5861 93.9613C80.7291 93.792 83.0362 93.4745 85.9149 93.0723C81.9991 91.3155 79.2686 87.315 79.6284 82.6796C79.6707 82.0657 80.6232 82.0869 80.6021 82.7219C80.4116 88.331 85.0894 92.6913 90.4657 92.4161C92.8363 92.0775 95.3551 91.7177 97.7893 91.379L111.674 89.347C111.844 89.347 111.971 89.347 112.098 89.3682C113.029 89.2412 114.384 89.0507 114.384 89.0507C119.845 88.5427 122.639 84.4787 121.686 79.1659L121.707 79.2717ZM94.0216 87.6113C84.8989 87.1457 80.4116 76.0756 86.9732 69.6621C90.7832 65.7887 97.5353 65.831 101.324 69.7045C107.928 76.1814 103.208 87.5055 94.0005 87.6113H94.0216ZM113.833 84.0342C112.161 84.0342 112.182 81.4307 113.833 81.4519C115.506 81.4519 115.484 84.0554 113.833 84.0342Z" fill="#30BA78"/>
<path id="Vector_63" d="M101.345 69.7047C97.5353 65.8312 90.8043 65.7889 86.9944 69.6623C80.4327 76.0758 84.8989 87.1459 94.0428 87.6115C103.25 87.5057 107.97 76.1816 101.366 69.7047H101.345ZM94.0428 85.2197C86.2747 85.6854 82.2531 75.8853 87.7775 70.4455C91.1218 66.953 97.2178 66.9954 100.456 70.5725C105.769 76.1181 101.726 85.5161 94.0428 85.2197Z" fill="#0C322C"/>
<path id="Vector_64" d="M100.456 70.5934C97.2178 67.0163 91.1218 66.9739 87.7775 70.4664C82.2531 75.885 86.2747 85.7063 94.0428 85.2406C101.726 85.5581 105.769 76.139 100.456 70.5934ZM96.9638 80.3723C95.334 80.3723 94.0216 79.0388 94.0428 77.409C94.0428 75.7792 95.3763 74.4669 97.0061 74.488C98.6359 74.488 99.9483 75.8427 99.9271 77.4514C99.9271 79.0812 98.5936 80.3935 96.9638 80.3723Z" fill="white"/>
<path id="Vector_65" d="M99.9271 77.4514C99.9271 79.0812 98.5936 80.3935 96.9638 80.3723C95.334 80.3723 94.0216 79.0388 94.0428 77.409C94.0428 75.7792 95.3763 74.4669 97.0061 74.488C98.6359 74.488 99.9483 75.8427 99.9271 77.4514Z" fill="#0C322C"/>
<path id="Vector_66" d="M113.833 84.0341C112.161 84.0341 112.182 81.4306 113.833 81.4518C115.506 81.4518 115.484 84.0553 113.833 84.0341Z" fill="#0C322C"/>
</g>
</g>
</g>
</g>
</g>
</g>
</g>
</svg>
